<svg xmlns="http://www.w3.org/2000/svg" viewBox="0 0 396 396"><defs><style>.cls-1{opacity:0.33;}.cls-2{fill:#935c24;}.cls-3{fill:#e09041;}.cls-4{fill:#3c1602;}.cls-5{fill:#d8c6a9;}.cls-6{fill:#e9d3b0;}.cls-7{fill:#ddb98a;}.cls-8{fill:#ceb58c;}.cls-9{fill:#bab497;}.cls-10{fill:#86541f;}</style></defs><g id="レイヤー_1" data-name="レイヤー 1"><path class="cls-1" d="M159,356c8.33-.37,16.31-3.34,24.46-4.85,7.21-1.63,14.57-3.06,21.66-5.19,6.07-2,12.08-4.43,17.93-7,18.06-8.35,32.07-22.92,46.38-36.32a125.05,125.05,0,0,0,9.77-10.81,76,76,0,0,0,9.51-13.3c3.31-6.66,5.32-13.9,7.81-20.89a243.73,243.73,0,0,0,9.86-32.81c.65-3,1.21-6,1.76-8.94a18.47,18.47,0,0,0,.55-4.85c-1.43-1.15-5.57-6.39-7.26-6.91-2.5-1.54-5.19-2.83-7.76-4.24s-5.26-3.22-8-4.53a51.31,51.31,0,0,0-7.64-2.6c-4.31-1.16-8.51-2.95-12.75-4.34a60.1,60.1,0,0,0-14-2.58c-9.4-.68-18.65-3-28-4-11-.9-22.08-.45-33-2-6.93-1.08-14-1.76-21-2.33-6.19-.5-12.61-1-18.7.43a61,61,0,0,0-11.77,4.45c-2.28,1.22-4.49,2.67-6.67,4.07a41.9,41.9,0,0,0-7.57,6.24,46.27,46.27,0,0,0-5.85,6.58,60.55,60.55,0,0,0-6.58,11.17,87.35,87.35,0,0,0-4.37,9.73c-2.84,7.82-4,16.1-5.14,24.31-1.2,7-2.28,14.06-2.86,21.14A111.85,111.85,0,0,0,99,284.4a73.42,73.42,0,0,0,2.24,14.2c.81,3.62,1.53,7.37,2.7,10.91a86.53,86.53,0,0,0,8.31,17.26,60.55,60.55,0,0,0,12,14.41,62.43,62.43,0,0,0,10.61,8,52.51,52.51,0,0,0,8.31,4.42A45.59,45.59,0,0,0,159,356Z"/><path class="cls-1" d="M169.63,309.86c10-.43,20.18-1.45,29.71-4.72,18.06-6,33.2-18.24,46.71-31.29A138,138,0,0,0,262.9,256a156.09,156.09,0,0,0,11.67-15.52c1.46-2.25,3-4.68,4.33-7,.92-1.64,2.05-3.54,1.59-5.49l-6.65-4.78c-.33-.14-.84-.44-1.16-.57-2-1-4.13-1.88-6.21-2.7-4-1.52-8-3-12.07-4.21s-8-2.23-11.87-3.69c-6.1-2.5-12.53-4.28-18.67-6.69-3.27-1.35-6.5-3-9.81-4.28a57.27,57.27,0,0,0-9.7-2.64c-5.65-.94-11.32-2.24-17-2.83a126.09,126.09,0,0,0-13.61,0c-9.45.28-16.17,1.94-23.28,8.51a69,69,0,0,0-7.39,8.6,83.37,83.37,0,0,0-8,12.87,87.52,87.52,0,0,0-5.88,12.18,76.9,76.9,0,0,0-4,19.45c-.32,7.8-.24,15.94,2.39,23.38a46.2,46.2,0,0,0,6.36,10.68c4.19,5.63,10.07,9.74,15.83,13.63C155.57,308.58,162.76,309.89,169.63,309.86Z"/></g><g id="レイヤー_7" data-name="レイヤー 7"><path class="cls-2" d="M255.57,203.59c3.18,0,6.37-.08,9.53-.35a26.75,26.75,0,0,0,9.22-2.09c2.32-1,4.5-2.37,6.86-3.32s5.11-1.65,7.62-2.6a47.38,47.38,0,0,1,5-1.7c2.55-.55,5.16-.85,7.67-1.54a23.84,23.84,0,0,0,8-3.89,60,60,0,0,0,8.32-7c1.88-1.67,4-3,5.94-4.65,2.25-2.1,4.38-4.33,6.55-6.5,2-2,2.79-4.84,4-7.35s3-5,4.45-7.48A29.84,29.84,0,0,0,340.5,152a53.55,53.55,0,0,0,1.42-5.61c.47-1.63,1.14-3.19,1.57-4.83A19.6,19.6,0,0,0,344,138a23,23,0,0,0-.2-5.62c-.39-2-.7-4-.95-6-.37-2.7-.77-5.39-1.14-8.09a45.74,45.74,0,0,0-1.5-7.87,38.16,38.16,0,0,0-4.88-9.74A57.5,57.5,0,0,0,328.84,92a71.15,71.15,0,0,1-5.45-7.34,65.51,65.51,0,0,0-4.56-5.29c-1.68-1.75-3-3.79-4.83-5.43a6.93,6.93,0,0,0-2.06-1.52h0c-1-.87-3.59-2.61-4.42-3.55-1.06-1-2.08-2-3.22-2.85A60.8,60.8,0,0,0,296,60.77a73.21,73.21,0,0,0-9.65-4.11c-2.61-.94-5.22-1.94-7.9-2.69-1.59-.48-3.24-.74-4.85-1.11-3.47-.88-6.95-1.74-10.39-2.72-2.44-.65-4.92-1.23-7.36-1.88A61.47,61.47,0,0,0,247,46.44c-4-.46-8-.54-12-.76s-7.78-.74-11.68-.66c-5.3,0-10.62,0-15.91.23-1.43.08-2.86.31-4.28.45-2,.21-4.07.38-6.06.77q-2.48.54-4.91,1.25c-1.51.51-3,1.05-4.54,1.5-1.72.53-3.44,1.08-5.1,1.75-2.36,1-4.65,2.2-7,3.28a52.38,52.38,0,0,0-6,3.18c-2,1.08-4.08,2.16-6.1,3.25-2.52,1.24-5.23,2.11-7.69,3.48a39,39,0,0,0-4.07,2.67,33.17,33.17,0,0,0-3.86,2.89c-3.19,3-6.63,5.67-9.53,8.92-1.47,1.68-2.76,3.52-4.09,5.31s-2.69,3.41-4.08,5.07A50.34,50.34,0,0,0,127,93.25a24.27,24.27,0,0,0-3,4.77,29.07,29.07,0,0,0-1.46,5.68,30.48,30.48,0,0,0-.58,8.36c0,1.07.19,2.12.2,3.19,0,2.59-.21,5.18-.2,7.77a31.33,31.33,0,0,0,1.27,7.92c.92,2.58,2.36,4.94,3.53,7.41a31.78,31.78,0,0,1,2.06,5.93,24.65,24.65,0,0,0,1.52,4.66,54.51,54.51,0,0,0,5.05,7.81,76.31,76.31,0,0,0,4.64,6.38c1.4,1.71,3.14,3.09,4.68,4.66,1.95,2,3.52,4.25,5.52,6.14a76.25,76.25,0,0,0,8.8,7.14c2.12,1.42,4.46,2.53,6.67,3.79a114.26,114.26,0,0,0,13.62,6.42c4,1.55,8.15,2.76,12.25,4,6.24,1.41,12.55,2.59,18.84,3.77,5,1,10,1.43,15,2.19A211.25,211.25,0,0,0,255.57,203.59Z"/></g><g id="レイヤー_6" data-name="レイヤー 6"><path class="cls-3" d="M318.62,79.49a6.36,6.36,0,0,0-1.11-2.72,17.28,17.28,0,0,0-2.3-2.82,22.76,22.76,0,0,0-3.73-3.13c-1.1-.7-2.28-1.29-3.33-2.08-2.22-1.72-4.46-3.41-6.68-5.12a37.53,37.53,0,0,0-6-4c-1.71-.87-3.48-1.64-5.27-2.35-1.36-.49-2.74-.93-4.08-1.46h0c-2.48-1-4.83-2.25-7.26-3.35-1.69-.72-3.45-1.28-5.17-1.92-2.81-1-5.69-1.89-8.58-2.66-1.4-.33-2.86-.34-4.26-.65-1.88-.34-3.73-.83-5.57-1.31-2.09-.5-4.19-.91-6.3-1.26-1.23-.2-2.46-.42-3.7-.53-2.1-.19-4.22-.23-6.31-.54a75.14,75.14,0,0,0-9.82-1A73.17,73.17,0,0,0,220,42a64.23,64.23,0,0,0-6.93.38c-2.65.16-5.32.15-8,.21a24.91,24.91,0,0,0-5.85.55c-1.4.4-2.8.84-4.18,1.28-1.54.42-3.07.86-4.59,1.36-2.08.55-4.14,1.17-6.2,1.77-.93.23-1.85.5-2.79.69-.68.17-1.39.21-2.06.44-1.38.52-2.66,1.28-4,1.93a53.68,53.68,0,0,1-5.8,2.59,42.73,42.73,0,0,0-8.6,3.6c-1.85,1.19-3.79,2.25-5.6,3.51-2,1.33-4.16,2.56-6.14,4-1.62,1.3-3,2.85-4.58,4.23a104.76,104.76,0,0,0-11.18,11.7,15.9,15.9,0,0,0-2.1,3.34c-1,2.2-1.59,4.53-2.39,6.8-.29,1-.57,2-.9,2.93s-.73,1.9-1,2.89a44.47,44.47,0,0,1-2.42,8.08h0l-.08,0-.08,0a5.5,5.5,0,0,0-.49,1.43c-.16.61-.32,1.22-.46,1.83a16.56,16.56,0,0,0-.86,3.65,16.92,16.92,0,0,0,.29,3.69c.16,1.14.25,2.28.3,3.43.09,2,0,4,.28,5.91a38.6,38.6,0,0,0,1.53,5.57c.73,2.19,1.55,4.34,2.49,6.45a73.85,73.85,0,0,0,3.52,7.07c.91,1.82,1.94,3.57,3,5.29a48.46,48.46,0,0,0,3.38,4.78c.33.44.67.89,1,1.34l0,.06a1.84,1.84,0,0,0,.17.22h0l0,.06,0,.05c.3.43.58.88.89,1.3h0a27.53,27.53,0,0,0,2.42,3.16c.92,1,2,1.86,2.94,2.78s1.69,1.61,2.6,2.34c1.44,1.13,3,2.11,4.46,3.2,2.16,1.63,4.29,3.31,6.42,5,1.64,1.25,3.32,2.47,4.84,3.87a15.66,15.66,0,0,0,1.32,1c.41.34.78.73,1.22,1a72.45,72.45,0,0,0,8,4.46c3.7,1.82,7.71,2.87,11.62,4.11,3.58,1.15,7.12,2.41,10.73,3.45,2.78.75,5.64,1.18,8.47,1.65a82,82,0,0,0,9.64,1c.94,0,1.9.07,2.85.07.41,0,1,.08,1.28-.24,0-.17,0-.13-.12-.24a12.65,12.65,0,0,0-3-1.65c-2-.86-4-1.66-6-2.48-6.47-2.68-12.95-5.4-19.15-8.65-16.58-8.8-32.56-19.35-45-33.54a61.77,61.77,0,0,1-4.68-6.14c-.7-1.07-1.39-2.15-2-3.25a36.38,36.38,0,0,0-2.27-2.85h0A15.72,15.72,0,0,1,134,128c-.41-2-.79-4.06-1-6.11a38.54,38.54,0,0,1-.2-6.62,68.94,68.94,0,0,1,1.07-7.57,51,51,0,0,1,3-12.18,54.59,54.59,0,0,1,9.49-15c1.91-2.2,4.09-4.15,6.16-6.18,1.48-1.4,2.95-2.82,4.52-4.11,1.28-1,2.65-2,4-2.94a67.2,67.2,0,0,1,6.5-4.63c2.89-1.86,5.69-3.87,8.72-5.5a87.76,87.76,0,0,1,12.88-5.33,64.61,64.61,0,0,1,7.29-1.52,81.45,81.45,0,0,1,9.33-1.43c1.72-.12,3.46-.08,5.18-.15s3.23-.2,4.85-.25c3.17-.14,6.35,0,9.52.19,5.8.28,11.62.1,17.41.71,3.29.31,6.49,1.15,9.76,1.65,2.75.41,5.52.77,8.27,1.24s5.4,1.15,8.09,1.78h0a22.07,22.07,0,0,1,3.6,1.29c1,.41,2,.75,3,1.09,1.54.55,3.1,1,4.66,1.47,1.36.42,2.69.93,4,1.4,1.53.53,3.07,1,4.56,1.65s3,1.48,4.5,2.3c2.28,1.26,4.32,2.9,6.49,4.33s4.57,2.71,6.75,4.23c1.27.88,2.5,1.83,3.77,2.7s2.87,1.75,4.23,2.73c.85.59,1.68,1.21,2.51,1.84.29.21.59.41.9.61s.44.29.67.18S318.61,79.66,318.62,79.49Z"/><path class="cls-3" d="M276.77,63.7c-1.54-.92-3.08-1.85-4.68-2.67a73,73,0,0,0-9.1-3.25c-2-.63-4-1.25-6-1.72-2.52-.49-5.06-.93-7.61-1.27-4.26-.62-8.54-1.12-12.85-1.34a145.45,145.45,0,0,0-20.24-.58,121.36,121.36,0,0,0-15.78,1.9,70.13,70.13,0,0,0-13,3.35,58.63,58.63,0,0,0-10,5.27l0,.11a5.13,5.13,0,0,0,1.34-.21c1-.21,2.07-.44,3.1-.63,3.08-.57,6.2-.94,9.32-1.22s6.45-.22,9.67-.25,6.26-.14,9.38,0c6.41.63,12.8,1.5,19.18,2.34,4.86.8,9.63,2.1,14.43,3.21a149.05,149.05,0,0,1,18.78,6.21c2.64,1.15,5.28,2.35,7.91,3.53l2,.89c.31.11.69.37,1,.11.39-1-1.67-2.9-2.33-3.61a35.07,35.07,0,0,0-4.16-3.2c-1.26-.89-2.48-1.86-3.66-2.84-3.16-2.47-5-4.39.35-5.34,4.3-.55,9.05-.74,13,1.39l.08,0h0C277,63.77,276.81,63.73,276.77,63.7Z"/><path class="cls-3" d="M266.66,176.12a3.26,3.26,0,0,0-1-2.33,4.67,4.67,0,0,0-1.67-.37c-2.58-.3-5.19-.49-7.78-.75a63.43,63.43,0,0,1-9.52-1.24c-2.73-.52-5.51-.89-8.22-1.53a109,109,0,0,1-11.2-3.17,95.3,95.3,0,0,1-17.73-7.33c-2.32-1.23-4.55-2.65-6.82-4s-4.59-2.5-6.79-3.89c-2.78-1.69-5.49-3.56-8.26-5.26s-5.81-3.35-8.72-5c-5.5-3-11.5-4.86-17-7.85-3-1.52-6.22-2.67-9-4.65H153c-.09.11,2.22,2.19,2.24,2.27-6.78-3.27-9.87-10.71-11.36-17.69-.6-2.39-.48-4.93-1.24-7.28-.29-1-1.32-3.2-2.15-1.61a13.84,13.84,0,0,0-1.56,6.43,36.55,36.55,0,0,0,0,6c.09,1.33.3,2.66.48,4a33.21,33.21,0,0,0,.89,5.15,39.76,39.76,0,0,0,1.26,4,40.2,40.2,0,0,0,1.44,4c.75,1.85,1.41,3.74,2.29,5.53a31.55,31.55,0,0,0,9.59,11.81,114.44,114.44,0,0,0,16.79,12.21,159.66,159.66,0,0,0,15.07,8.56c3.72,1.94,7.45,3.89,11.25,5.68,3.12,1.47,6.43,2.52,9.67,3.72,2.17.91,4.45,1.55,6.69,2.26,3.48,1.23,7.06,2.12,10.62,3,1.84.48,3.73.8,5.6,1.11,1.4.27,2.81.62,4.22.8,3.21.25,6.44.57,9.66.61a48.16,48.16,0,0,0,7.39-.82,21.88,21.88,0,0,0,8-2.79C263.13,183.74,266.79,180.33,266.66,176.12Z"/><path class="cls-4" d="M111.24,170.77c-1,0-2-.4-3-.38-1.91,0-3.82.25-5.72.42-1.58.19-3.16.38-4.73.62-.89.18-1.75.5-2.62.75-2.91.66-6,.8-8.64,2.43-.89.51-1.66,1.19-2.55,1.7-2.27,1.21-4.2,3.08-4,5.85-.06,2.22,2.26,3.08,3.83,4.14,1.1.65,2.16,1.38,3.29,2,.82.46,1.78.7,2.57,1.19,0,0,0,.05,0,.06a3.88,3.88,0,0,1,2.57-.84c1.59.21,3.08.87,4.65,1.2H97l.13,0h.08c3.39.62,9.08,0,11.33-2.93a7.66,7.66,0,0,0,1.34-2.58c.23-.89.21-1.82.38-2.71s.44-2.07.53-3.12c.12-1.23.06-2.48.1-3.72h0C111,173.51,111.09,172.13,111.24,170.77Zm110.21,82c-4.93,0-9.74-1.27-14.57-2.09-3-.53-6-.89-9-1.52A104.75,104.75,0,0,1,187,246.34a57.51,57.51,0,0,1-11.36-5.7c-1.89-1.19-3.47-2.78-5.25-4.11-4.26-3.36-8.94-6.15-13.19-9.52a38.91,38.91,0,0,1-6-6.43l-.32-.43,0-.06c-.68-.92-1.29-1.9-1.9-2.87a8.8,8.8,0,0,0-1.14-1.56,3.91,3.91,0,0,0-1.19-.68,5.72,5.72,0,0,0-2-.46c-1.16.09-2.31.35-3.45.55A63.34,63.34,0,0,1,134,216.2c-1.73.19-3.47.34-5.21.4-1.55.05-3.1,0-4.65,0-2.55,0-5.11.13-7.66.12-2.93-.05-5.87.07-8.8-.2-3.37-.47-6.74-1.06-10.08-1.73-2.78-.68-5.64-1-8.38-1.89-2.32-.81-4.49-2-6.75-3h0c-.13,0-.2-.16,0-.19.13-.22,0-.53,0-.78h0l0-.07v0c0,.23-.27,0-.39,0l-.84-.21a15.68,15.68,0,0,1-3.26-1.18c-2.84-1.69-5.78-3.44-8-6a38.44,38.44,0,0,1-3.56-6,23.3,23.3,0,0,1-2.6-5.36c-.34-1.25-.29-2.58-.54-3.85-.2-1-.42-2.09-.61-3.13a24.49,24.49,0,0,1-.48-3.07,18.81,18.81,0,0,1,.23-3.35c.13-1.41.3-2.81.55-4.2a17.74,17.74,0,0,1,.82-3c.47-1,1-2,1.56-3h0a22.55,22.55,0,0,1,3.38-4.75A23.8,23.8,0,0,1,74.05,157a40.24,40.24,0,0,1,6.39-3.84,54.73,54.73,0,0,1,8.26-3.35c1.65-.64,3.29-1.29,5-1.89a10.73,10.73,0,0,1,3-.92c1.43,0,2.86.05,4.3.07a15.72,15.72,0,0,0,2.06,0,19.39,19.39,0,0,0,2.72-.49c1.11-.23,2.23-.39,3.34-.58a25.62,25.62,0,0,1,8.38-.09h0l.05.07a37.65,37.65,0,0,1,2.83-4.83,10.51,10.51,0,0,1,1.2-1.53,7.43,7.43,0,0,1,1.66-1.17c.89-.37,2.08-.9,3-.28a7.35,7.35,0,0,1,1.36,2.07c.65,1.15,1.27,2.32,1.89,3.49a23.32,23.32,0,0,0,1.87,3.15c.87,1.17,1.88,2.23,2.79,3.37,1.5,1.83,2.6,4,4.15,5.73a34.93,34.93,0,0,0,4.61,4.15c.59.59,1.22,1.15,1.84,1.71,1,.91,1.85,1.9,2.75,2.86,2.58,2.64,4.74,5.67,7.52,8.1,2.15,1.74,4.56,3.11,6.8,4.72,2.78,2,5.44,4.23,8.18,6.32a55.06,55.06,0,0,0,10,6.08c3.11,1.53,6.22,3.09,9.46,4.35,9,3.49,18.63,5.13,28.14,6.73,5.09.81,10.21,1.46,15.32,2.07A122.06,122.06,0,0,0,247,204.37a81.47,81.47,0,0,0,14.77-1.49,133.06,133.06,0,0,0,13.41-2.82c7-1.83,13.74-4.62,20.59-7a64.47,64.47,0,0,0,11.11-5c2.05-1.15,4.14-2.23,6.1-3.53a106.09,106.09,0,0,0,16.94-14.65c3.87-4.43,6.28-9.88,9.11-15,1.47-2.68,2.91-5.38,4.51-8A13.14,13.14,0,0,1,345,145l.24-.24.06-.06s1.17-2.91,1.31-2.61a24.86,24.86,0,0,1-.32,5.9,46.85,46.85,0,0,1-.68,4.71,33.2,33.2,0,0,1-.64,3.42c-.55,2-1.14,3.93-1.85,5.85-1,2.49-2,5-2.82,7.51a62.75,62.75,0,0,1-2.23,6.3c-1.33,2.66-2.59,5.35-3.92,8-1.16,2.26-2.18,4.6-3.43,6.82-1,1.73-2.12,3.33-3.18,5a45.66,45.66,0,0,1-3.68,4.07c-.91,1-1.72,2.13-2.6,3.17a20.24,20.24,0,0,0-2.73,3.59c-1.11,2.11-2.33,4.16-3.52,6.22a16,16,0,0,1-3,4.26c-1,.84-2,1.58-3,2.48a45.65,45.65,0,0,1-3.34,3.19c-1.38,1.1-3,1.9-4.44,2.86a36.81,36.81,0,0,0-3.15,2.54c-1.55,1.32-3.31,2.34-4.9,3.6-1.19.86-2.31,1.81-3.46,2.73l-3.51,2.46a33.91,33.91,0,0,1-3.81,2.35c-1.26.76-2.54,1.5-3.82,2.23-1,.55-2,1-2.95,1.55a30.74,30.74,0,0,1-4.55,2.12.11.11,0,0,1,0-.12c-.37-.17-1.06.07-1.47.12-.71.14-1.41.31-2.11.47-1.28.33-2.59.62-3.84,1.06a51.75,51.75,0,0,1-7.12,2.17,89.73,89.73,0,0,1-10.3,1.77c-2.2.24-4.36.75-6.54,1.13a69.45,69.45,0,0,1-9.88.85C227,252.67,224.25,252.8,221.45,252.8Z"/><path class="cls-5" d="M312,139.53A68.52,68.52,0,0,0,314,116.44a36.36,36.36,0,0,0-1.79-11.39A27.85,27.85,0,0,0,309,98.71c-.43-2.14-.93-4.32-1.43-6.47a45.37,45.37,0,0,0-2-7,29.47,29.47,0,0,0-6.53-8.82,10.5,10.5,0,0,0-3.13-2,11,11,0,0,0-3.81-1.26,3.21,3.21,0,0,0-1.74.07c-1.37.76-1.6,2.57-1.43,4,.44,3.61,1.88,7,3.24,10.31.79,2,1.47,4.13,2.22,6.18s1.61,4.26,2.21,6.44a59.13,59.13,0,0,1,1.39,11.1,53.77,53.77,0,0,1,.31,8.22,73.87,73.87,0,0,1-1.34,9c-.68,3.28-1.71,6.47-2.71,9.66-.71,2.19-1.26,4.43-2,6.6a33.22,33.22,0,0,1-3.45,6.47A78.1,78.1,0,0,1,284,157.5c-1,1.25-2,2.56-3.19,3.72-1.77,1.79-3.92,3.37-4.88,5.78a3.81,3.81,0,0,0-.44,2.31,4,4,0,0,0,2,2.15c5,2.14,10,.87,14.36-2,2.06-1.39,4.32-2.57,6-4.42s3.06-3.57,4.47-5.43a49,49,0,0,0,3.53-4.74C308.72,150.12,310.37,144.78,312,139.53Z"/><path class="cls-5" d="M335.8,126.18c0-4.26,0-8.6-1.14-12.74-.49-1.76-1.21-3.47-1.83-5.19a30.37,30.37,0,0,0-3.45-7.42c-.91-1.43-2-2.76-2.94-4.16-1.23-1.83-2.34-3.78-3.73-5.49-1.54-1.9-3.37-3.58-5.07-5.33-1.62-1.59-3.15-3.29-4.81-4.83a6.75,6.75,0,0,0-3.73-1.91c-1.85,0-1.94,1.48-1.52,3,.9,3.83,3.27,7.06,5.14,10.46,2.44,4.56,3.77,9.61,5.07,14.59.77,3.31,2.06,6.54,2.43,9.94a47.66,47.66,0,0,1-.34,9.17c-.58,3.56-1.14,7.12-1.88,10.64a52.29,52.29,0,0,1-2.75,10.6c-1,2.84-2.84,5.42-3.22,8.46-.11,1.13-1,5.08,1.19,3.62a19.87,19.87,0,0,0,2.73-1.81c1.22-1,2.32-2.23,3.63-3.17,1.47-1.08,3.09-2,4.47-3.18a30.65,30.65,0,0,0,4.64-5.57,21.67,21.67,0,0,0,3.05-5c.53-1.17.72-2.49,1.35-3.62s1.88-3.08,2.14-4.29A32.92,32.92,0,0,0,335.8,126.18Z"/></g><g id="レイヤー_5" data-name="レイヤー 5"><path class="cls-6" d="M329.82,147.91c.33-.08.49-.41.69-.65a14.64,14.64,0,0,0,.94-1.51c.9-1.63,1.7-3.32,2.46-5a53.74,53.74,0,0,0,2.37-7.62,65,65,0,0,0,1.15-8,78.38,78.38,0,0,0-.46-14c-.11-1-.19-1.94-.26-2.91,0-.53-.09-1.07-.15-1.59.1-2.53-6.33-10.74-3.89-12l0-.08C331,90.68,328,87.61,325,84.74a114.63,114.63,0,0,0-10.19-9c-6.06-4.6-12.07-9.36-19.08-12.45-2.38-1.13-4.83-2.13-7.25-3.18s-5.11-2.27-7.72-3.27a132.85,132.85,0,0,0-12.94-3.91c-3-.73-6.13-1.2-9.21-1.65a33.77,33.77,0,0,0-3.63-.34,4.7,4.7,0,0,0-2,.25c-.31.25.5.49.65.56a16.66,16.66,0,0,0,1.95.56c2,.5,4,.94,6.06,1.4,4.14,1,8.34,1.77,12.44,3a90.89,90.89,0,0,1,16.3,7.15l.09,0h0l0-.09-.05-.05h0a1.48,1.48,0,0,1-.13-.21v-.07a2.61,2.61,0,0,1,.66.53l.09,0V64a10.63,10.63,0,0,0,2.77,2.12c1,.61,2,1.21,2.93,1.88a24.49,24.49,0,0,1,2.09,2.11c.72.76,1.49,1.46,2.25,2.17,3.09,2.66,6.56,4.87,9.41,7.81.93.94,1.9,1.86,2.82,2.82s1.83,2.15,2.77,3.19a63.34,63.34,0,0,1,7.05,8.71c1.75,2.7,3.58,5.36,5.24,8.13,2.17,3.42,4,7.22,4.22,11.33a119.48,119.48,0,0,1-1.1,21.88c-.41,2.48-.94,4.95-1.48,7.41C329.94,144.55,328.63,147.8,329.82,147.91Z"/><path class="cls-7" d="M157.43,183.64c-.75-.48-2.32-1.3-2.68,0A13.68,13.68,0,0,0,155,187a17.24,17.24,0,0,1,.16,3.52c0,.41,0,.85-.07,1.27,0,.2,0,.49-.2.62h0c-.26-.26-.25-.7-.37-1-.18-.68-.36-1.37-.53-2.05a52.66,52.66,0,0,0-2.17-7.82,17.67,17.67,0,0,0-3.29-4.95c-1.51-1.68-3.13-3.26-4.68-4.9-.7-.71-1.35-1.48-2.08-2.15-1.57-1.25.62,2.65.8,3a20.12,20.12,0,0,0,2.12,3,14.57,14.57,0,0,1,2.79,3.41h0c2.37,4,2.15,7.72,1.91,12.19a56.72,56.72,0,0,0,.7,11.71,15.27,15.27,0,0,0,1.5,5,15.07,15.07,0,0,0,4,5.39c1,.86,3.74,3.11,4.8,1.42a2.12,2.12,0,0,0-.36-1.39c-.33-.6-.73-1.17-1.1-1.75a28.2,28.2,0,0,1-2.41-3.88,58.43,58.43,0,0,1-3-8.43c-.17-.82-.88-3.67-.17-4.19.38.24.41.81.59,1.19a22.23,22.23,0,0,0,1.17,2.92c.34.63,2.23,3.8,3,2.57a2,2,0,0,0,0-.88c-.05-.44-.11-.89-.15-1.33-.26-2.56-.72-5.23,0-7.76.41-1.3,1.18-3,2.71-3.15l0-.09Z"/><path class="cls-7" d="M123.12,134.18c-.47-1-1.14-4.34-2.66-3.67a2.86,2.86,0,0,0-.79,1.78c-.12.75-.21,1.52-.33,2.28a17.31,17.31,0,0,1-2.38,6.91c-.67,1-1.55,2.21-2.92,2.15-1.12,0-2.24-.11-3.36-.08-2.3.07-4.61.13-6.91.3-3,.35-6,.34-8.92.78A33.59,33.59,0,0,0,90,145.8a27.81,27.81,0,0,0-4.15,1.51,39,39,0,0,0-4.18,2.24A42.75,42.75,0,0,0,77.2,153c-2.24,1.92-4.65,3.66-6.76,5.74a26.2,26.2,0,0,0-4,5.15,31.32,31.32,0,0,0-2,3.65c-.16.52-.48,1.12-.24,1.57.3,0,.49-.36.69-.55.33-.39.68-.77,1-1.15a34.26,34.26,0,0,1,3.72-3.51c2-1.57,4.21-2.8,6.31-4.19a33.29,33.29,0,0,1,7.31-3.46c6.73-2.54,13.59-5,20.77-5.9,1.79-.26,3.61-.39,5.39-.78,2.37-.6,4.79-1.4,7.26-1.14a8.91,8.91,0,0,1,2.58.66,6.39,6.39,0,0,0,2.26.74c.7,0,.69-.88.76-1.4s.16-1.31.25-1.95a17.93,17.93,0,0,1,2-6.64C124.49,139.74,123.18,134.28,123.12,134.18Z"/><path class="cls-8" d="M263.26,69.82a4.71,4.71,0,0,0,1.43,2.8,7.34,7.34,0,0,0,2.48,1.25A28.69,28.69,0,0,0,276,75.46c3.75.24,7.52,0,11.27.2,2.39.09,4.92.1,7,1.38,0-.35,1.63,6.72,1.7,5,.07-.48.12-1,.15-1.46.3-3.71-2.08-6.89-4.31-9.62a28.31,28.31,0,0,0-7.58-7.1c-2.85-1.66-7.94-3.58-11.23-3s-7,2.6-8.69,5.5A6.41,6.41,0,0,0,263.26,69.82Z"/><path class="cls-8" d="M250.2,175.48c-3-.33-5.91-1-8.88-1.41-1.21-.18-2.43-.26-3.63-.51-1.56-.3-3.11-.74-4.69-1a69.74,69.74,0,0,1-12-2.27c-2.18-.62-4.43-1.09-6.59-1.79-3.11-1.06-6.27-2-9.34-3.16a72.18,72.18,0,0,1-8-3.4,53.3,53.3,0,0,1-9-5.11,34.81,34.81,0,0,1-11.43-13.61c-2.41-4.79-3.69-10.05-6-14.88a33.81,33.81,0,0,0-3.71-6.31c-1.43-1.44-1.53.19-1.36,1.41a20.37,20.37,0,0,0,.62,3.64c.61,2.69,2.93,6.58,1.67,9.23-.48.88-1.51.7-2.24.26a13.77,13.77,0,0,1-1.88-1.13,27.88,27.88,0,0,1-6.95-7.61c-4.26-7.06-6.1-15.89-4.11-24a35.7,35.7,0,0,1,6.8-13.37,57.72,57.72,0,0,1,5.9-6.88c2.11-2.16,5.12-3.52,6.67-6.18.94-1.86-.72-2.48-2.37-2.07-3.09.56-5.94,2.06-8.76,3.39a60.27,60.27,0,0,0-6.81,4.39,38.19,38.19,0,0,0-5.9,4.78,28.57,28.57,0,0,0-6.57,10.3,36.7,36.7,0,0,0-1.66,15.88c1.14,8.49,4.93,16.45,9.7,23.49a71.34,71.34,0,0,0,5.21,7.44A123,123,0,0,0,167,156.36c5.06,4,10.85,7.07,16.64,9.91,3,1.45,5.93,2.94,9,4.16s6.22,2.24,9.28,3.46c3.74,1.44,7.45,3,11.22,4.4a48.74,48.74,0,0,0,8.2,1.88,52,52,0,0,0,6.23.63c2.37,0,4.74-.36,7.1-.61a26.12,26.12,0,0,0,5.35-1c1.86-.54,3.63-1.32,5.46-1.91s3.44-.9,5.1-1.52a8.84,8.84,0,0,1,.88-.25C252.49,175.23,250.26,175.49,250.2,175.48Z"/><path class="cls-8" d="M317.15,130.8a122.65,122.65,0,0,0-.82-13.41,71.69,71.69,0,0,0-4.75-16.89C310,97,308.87,93.12,306.49,90h-.11c-.54,1.57-2.3,5.14-2.25,6.75-.23,5.92,2,11.5,3.17,17.22,2.22,12,3.22,29.18-3.53,39.82-.35.66-4.44,6.35-4.19,3.38.86-3.65,2.18-7.19,3-10.85a34.53,34.53,0,0,0,.16-15.37c-.59-1.86-1.38-4.87-3.2-5.83-.86-.32-1.5.5-1.72,1.24a22.46,22.46,0,0,0-.64,4.84c-.29,9.18-1.63,18.64-6.36,26.67-2.21,3.74-4.78,7.54-8.6,9.79-3.38,2.07-7.46,1.48-11.22,2-1.35.2-4.36.63-4.32,2.35a3.29,3.29,0,0,0,1,1.46,3.76,3.76,0,0,0,1.28.6,26.44,26.44,0,0,0,4.88,1.08c1.51.25,3,.59,4.56.7a77.41,77.41,0,0,0,8.75-.07A28.84,28.84,0,0,0,298,173.14a25.86,25.86,0,0,0,5.68-4.36c5-4.71,8-11.13,10-17.59a78.21,78.21,0,0,0,2.56-11.32A38.46,38.46,0,0,0,317.15,130.8Z"/><path class="cls-8" d="M267.3,135.37c3.52-.35,6.88-1.56,10.36-2.15a26.71,26.71,0,0,0,7.91-2.86c1.48-.78,3.12-1.41,4.23-2.7.57-.71,1.35-1.64,1-2.61a4.62,4.62,0,0,0-2.07-.91,5.45,5.45,0,0,1-2.36-1.06l-.09,0c-.38-2,3.27-3.2,4.67-4a7.67,7.67,0,0,0,4-5.85,7.51,7.51,0,0,0-.82-5.09c-1.57-2.54-4-4.45-6.19-6.38a32.06,32.06,0,0,0-7-4.13,76,76,0,0,0-10.23-3.15c-1.67-.37-3.38-.56-5.06-.85-1.85-.32-4.93-1.08-6.76-1.59,2.65-2-.28-8.53-1.5-10.93A32.3,32.3,0,0,0,255,77a26.92,26.92,0,0,0-6.4-6,29.28,29.28,0,0,0-11.67-4.45c-2.32-.25-4.71-.74-7-.15a5,5,0,0,0-3.29,2.19,8.33,8.33,0,0,0-1,8.08c.35,1,1,2,1.43,3-.39,0-.74-.4-1.09-.59a14.83,14.83,0,0,1-2.2-1.77c-1.52-1.55-2.82-3.42-4.83-4.4a9.3,9.3,0,0,0-5-1.07,13.1,13.1,0,0,0-4.27,1.58,15.68,15.68,0,0,0-3.77,3.1c-1.73,2.08-3.14,4.77-2.77,7.54,1.83,8.66,8.65,9.44,15.43,12.73,1.91.84,3.66,2,5.49,3a80.06,80.06,0,0,1,7.42,4.12c1.26.75,2.54,1.49,3.78,2.26a6.52,6.52,0,0,1,1.65,1.23h0a.32.32,0,0,0,0,.08l-.06.06a4.64,4.64,0,0,1-1.68-.46c-1-.39-2-.79-3.06-1.08-3.78-1-7.75-.77-11.61-.38-2.12.27-4.29.22-6.4.59a36.24,36.24,0,0,0-4,1.28c-2.39.88-4.75,1.86-7,3-1.58.75-3.23,1.32-4.84,2a17.89,17.89,0,0,0-3.32,1.38,12.55,12.55,0,0,0-3.22,2.54,9.86,9.86,0,0,0-2.29,3.28,11.91,11.91,0,0,0-.79,5c.41,2.49,2,4.63,3.49,6.59,3,3.76,7.56,5.6,12,7.19a48,48,0,0,0,6.85,2.1c3.5.59,7,1.12,10.59,1.36,3.25.27,6.53.15,9.77.54a20.67,20.67,0,0,1,6.78,1.78c1.18.53,2.32,1.15,3.54,1.59a4.84,4.84,0,0,0,2.16.28,3.42,3.42,0,0,0,2.54-1.77c.8-1.46,1-3.24,2.26-4.44,1.79-1.77,4.33-2.58,6.74-3.12a40,40,0,0,1,7.4-.78C264.13,135.83,265.72,135.55,267.3,135.37Z"/><path class="cls-9" d="M144.62,160.83l0,0Z"/><path class="cls-9" d="M346.1,133c1.45-5.33-.93-12.07-2.56-17.42a1.14,1.14,0,0,0,.27-.78,0,0,0,0,0,0,0,7,7,0,0,0-.79-2.07c.9-2.59-2.46-5.29-3.23-7.81-2.21-3-3.33-9.69-7.13-10.38h0c-1.71,1.23.51,3.62.95,5.11,2.19,4.44,4.07,9,6.38,13.39h0l.06.13a.59.59,0,0,0,0-.08,38.39,38.39,0,0,1,1.67,4,.25.25,0,0,1,0-.07.24.24,0,0,0,0,.08h0c.12.34.23.69.34,1,.45,6.56,2.44,13.32,1.84,20.06-2.61,6.65-3.69,15.09-8.11,21.34-2.46-.82-2.42,5-4.66,6.22l.07-.08-.09.11v0A166.65,166.65,0,0,1,318.62,179c-5.57,2.9-10.71,6.8-16.48,9.45h0l-.13.07h0c-1.86.91-3.71,1.85-5.59,2.71-1.68-.18-12,1.25-11.66,3.23-14.6,5.15-30,5.79-45.39,5.72-4.07-2.49-10.36-.25-15.06-2-.51-1.24-6.48-1.19-7.45-.53-10.72-1-21.19-5.85-31.09-8.2-11.56-5.6-23.45-11.73-33.07-20.18l.09.11a68.06,68.06,0,0,0-9.26-9.33c-6.56-8.67-14.09-17.8-18.11-28.37.3-2.87-.63-6.74-2.65-8.77-.39-4.78,1.31-9.71.6-14.53,1.08-3.15,1.19-6.79,2.28-10,.62-1.19.81-2.61,1.34-3.86v0c.41-1.76,1.76-3.62,1.39-5.42.26-1.23,1.23-2.4,1.11-3.65a25.87,25.87,0,0,0,1.3-2.71c1.22-.79,1.7-2.4,2.82-3.34,1.35-.13,1.58-2,2.46-2.76,1.86,1,2.64-2.16,3.65-3.21,3.35-3.21,8.76-5.55,10.82-9.68.66-.69,1.72-1.25,1.89-2.24.74-.35,1.4-.84,2.11-1.24,5.8-1.86,11.1-6.17,17.14-8.15a1.25,1.25,0,0,0,1.6-.78c1.31-.32,3.11-2,1.18-2.82-2.7.48-5.19,2.28-7.93,2.88-1-.56-2.27.3-3.21.75-3.83,2.51-8.57,3.27-12,6.42-1.94,1.23-4.6,3.09-5.73,5.11-1.54,1.53-3.17,3-4.68,4.54-1-.59-2,.41-2.7,1.16-4.72,5.65-11.12,12.18-12.88,19.39-.3,1.55-2.62,4-.87,5.17,0,.15-.09.3-.14.44-2,1.27-3.8,5.75-3.48,8-.1,2.6-5.58,15-1.75,14.88a1.13,1.13,0,0,0,.35.43c.13,1.87-.22,4,.66,5.72a3.34,3.34,0,0,0,.15,1.69,10.08,10.08,0,0,0,.22,2.83c-2.93-.56-1,5.58,1,3.22a1.13,1.13,0,0,0,.92-.29c.37.66.75,1.32,1.09,2a.47.47,0,0,1-.05-.1c.79,1.41,1,3,1.67,4.44-.22,1.36,1,2.54,1.48,3.75a1.13,1.13,0,0,0-.06.41c-1.94,2.27,2.87,5,3.39,7.34a.25.25,0,0,0,0-.07l.09.17c.71,3.18,4.64,5.61,6.87,8,5.45,8.1,13.23,14.58,19.66,22l-.11-.09.92.81-.07-.07a56.94,56.94,0,0,0,5.9,4.45c1.11,2.3,4.75,4.82,7.34,4.31,5.18,2.08,10.31,7.22,16,6.87,2.52.69,4.83,2.66,7.43,2.71,3.12.5,6.71,3.23,9.71,2.18,23.34,5.63,48,8.39,71.54,3.08,4.3,1.87,10.28-2.1,14.54-3.74h0l.14-.07-.05,0,1.21-.6-.05,0,.24-.12-.08.05.13-.07h0c1.6-1.05,3.67-1.39,5.09-2.63,2.37-1.27,4.75-2.53,7.1-3.84,4.44-1.09,8.09-4.85,11.91-7.36,2.49-1.3,4.62-3.47,6.95-5.11,1.63.73,10.44-6.9,9.19-8.53,3.62-4.37,6.15-9.55,8.7-14.58.67-.41.9-1.25,1.31-1.89,2.85-.89,2.91-5.86,4-8.4C347.65,142.75,345.79,137.12,346.1,133Z"/><path class="cls-9" d="M130,84.51h0Z"/><path class="cls-9" d="M130.52,150.39l-.09-.1Z"/></g><g id="レイヤー_4" data-name="レイヤー 4"><path class="cls-10" d="M280.26,110.07a10.77,10.77,0,0,0-8.36-7.41,5.71,5.71,0,0,0-3.67.56,4.8,4.8,0,0,0-2.05,2.58,2.41,2.41,0,0,0,.34,1.43l.08,0v.08a4.64,4.64,0,0,0,1.64,1.23c1.79.93,3.89.9,5.86,1l1.41,0c.54-.13,4.18.68,4.76.71A.7.7,0,0,0,280.26,110.07Z"/><path class="cls-10" d="M235.63,77a12.28,12.28,0,0,0,2.24,6.55,16.85,16.85,0,0,0,4.49,5.2,13.7,13.7,0,0,1,3.55,4.07c.23.32.71-3.6.79-3.59.13-.6.27-1.2.38-1.8a11.3,11.3,0,0,0-.86-7.72,10.84,10.84,0,0,0-3.73-3.39c-1.72-1-6-2.88-6.84,0A3.45,3.45,0,0,0,235.63,77Z"/><path class="cls-10" d="M214.53,82a4.55,4.55,0,0,0,2.39,3.09,41.58,41.58,0,0,0,4.27,2.52c3.59,2.09,7.53,3.65,10.81,6.24a12.15,12.15,0,0,1,1.73,1.71,1.66,1.66,0,0,1,.46,1.11l-.09,0c.15.1,2.65,2.75,2.75,2.66s-.06-.15-.08-.21l-.25-.39-.77-1.18c-.9-1.38-1.81-2.77-2.67-4.17-2.77-4.85-5.66-10.14-10.77-12.87a8.65,8.65,0,0,0-4.1-1C216.68,79.45,214.28,80,214.53,82Z"/><path class="cls-10" d="M251.51,122.27c-1.81-1-3.53-2.2-5.29-3.31-1.52-1-3.11-1.84-4.65-2.77-4.24-2.74-8.79-5.2-13.84-6a23.34,23.34,0,0,0-7,.07,36.71,36.71,0,0,0-4.79.75,16.79,16.79,0,0,0-6.68,3.48,10.52,10.52,0,0,0-3.58,5.27,7.73,7.73,0,0,0,3.46,8.2,8.62,8.62,0,0,0,2.71,1.09c1.93.54,2.46-1.07,2.33-2.67-.17-2.23-1-4.41-.84-6.67.46-7.59,8.88-8,14.68-6.72,4.8,1.12,9.3,3.29,13.76,5.37,3.37,1.45,6.78,2.84,10.17,4.28l.1,0C252,122.47,251.62,122.37,251.51,122.27Z"/><path class="cls-10" d="M234.05,126.8a17,17,0,0,0-7.46-1,5.79,5.79,0,0,0-3.16,1.24c-3.68,3.21-2,7.34,1.48,9.88a15.4,15.4,0,0,0,5.53,2.35c1.61.19-1-2.94-1.29-3.38a6.34,6.34,0,0,1-1.13-2,5.67,5.67,0,0,1,0-3.77,6.63,6.63,0,0,1,2.39-3.06C230.3,127,235.33,127.18,234.05,126.8Z"/></g><g id="レイヤー_3" data-name="レイヤー 3"><path d="M348.11,136.62c-.11-1.77-.2-3.54-.32-5.3s-.23-3.39-.44-5.07q-.09-.73-.21-1.47c0-.25-.47-3-.61-3.75a49.12,49.12,0,0,0-1.16-4.79c-.47-1.65-1.16-3.22-1.78-4.83-.3-.8-.61-1.61-.93-2.41s-.67-1.54-1-2.3c-.69-1.54-1.43-3-2.2-4.55s-1.64-3-2.47-4.42-1.56-3-2.43-4.37a48.35,48.35,0,0,0-2.76-4.16c-1-1.35-2.1-2.62-3.2-3.9-.58-.68-1.16-1.36-1.76-2s-1.08-1.16-1.62-1.75c-.84-.91-1.66-1.83-2.53-2.71-.44-.45-.89-.89-1.37-1.3a15.25,15.25,0,0,0-1.45-1.09c-.91-.62-4.39-4-5-4.46s-1-.86-1.54-1.3l-1.55-1.32c-.49-.41-1-.82-1.47-1.24l-1-.88c-.39-.33-.79-.64-1.19-.94-.92-.7-1.86-1.36-2.83-2s-1.82-1.15-2.75-1.7-2-1.12-3.07-1.64l.13.06c-.56-.29-1.12-.59-1.66-.91s-1-.64-1.56-.94c-1.07-.62-2.19-1.13-3.3-1.68h0l-.12-.06.06,0c-1.13-.58-2.26-1.17-3.4-1.73s-2.23-1-3.36-1.55-2.21-1.06-3.35-1.54-2.35-.91-3.54-1.31l-.71-.25.06,0c-1.21-.42-2.41-.88-3.63-1.28s-2.41-.74-3.62-1.09-2.37-.69-3.57-1-2.46-.58-3.69-.87c-2.12-.48-4.23-1-6.36-1.38s-4.29-.79-6.43-1.22l-3-.65c-1-.2-2-.36-2.95-.56-.21,0-.44-.11-.66-.13l-.33-.07-.93-.16c-.62-.1-1.24-.17-1.87-.23-1.19-.12-2.38-.22-3.57-.31s-2.44-.21-3.65-.36c-2.51-.31-5-.59-7.53-.81-1.26-.12-2.52-.19-3.79-.2s-2.63,0-3.95,0c-1,0-2.05,0-3.07.08S214,41,213,41.1c-1.21.07-2.43.09-3.64.13s-2.51.1-3.77.19c-2.5.19-16.27,2.61-17.24,2.84s-2.21.55-3.32.78h0l-3.82.79c-1.11.22-2.22.4-3.31.67s-2.11.59-3.17.88-2.1.57-3.15.85-2.18.65-3.25,1-2.32.75-3.47,1.15a30.84,30.84,0,0,0-3.18,1.38l-.8.41-.2.09-.38.2-.42.22c-.51.29-1,.6-1.5.9-1,.61-2,1.18-3,1.79s-2,1.28-3,2c-1.87,1.29-3.61,2.75-5.46,4.06-1,.69-1.93,1.36-2.88,2.06s-1.85,1.32-2.75,2a30,30,0,0,0-2.73,2.43c-.84.84-1.66,1.69-2.47,2.56a56.35,56.35,0,0,0-4.64,5.37,66.89,66.89,0,0,0-4,6c-.6,1-1.14,2-1.66,3.11s-1,2.06-1.43,3.1-1,2.16-1.48,3.25-.86,2.1-1.3,3.14-1,2.26-1.39,3.43-.63,2.22-.91,3.34-.63,2.38-.86,3.59a26.39,26.39,0,0,0-.37,3.31c-.05,1.13-.1,2.26-.13,3.38s0,2.39,0,3.58c0,2.35,0,4.7,0,7.05,0,2.09,0,4.17,0,6.26,0,1.92,0,3.84-.13,5.75,0,.65-.11,1.29-.19,1.94s-.12,1.22-.23,1.83a10.52,10.52,0,0,1-.3,1.1,10.86,10.86,0,0,1-.45,1.06c-.34.65-1.36,2.67-1.92,2.94a18.8,18.8,0,0,1-3.71.36h0c-1.28.08-5.38.07-6.15.08-1.9,0-3.8.08-5.7.2-1,.06-2.08.15-3.12.29s-2.06.4-3.08.64-2,.48-3,.73-2,.52-3,.85-2.08.73-3.09,1.16l-1.3.54a14.06,14.06,0,0,0-1.59.82c-.94.55-1.86,1.15-2.75,1.78s-1.62,1.17-2.44,1.74c-.36.23-.71.44-1.08.65-.53.3-1,.65-1.55,1l0,0a11.93,11.93,0,0,0-1,.72c-.4.34-.79.69-1.17,1.06a30,30,0,0,0-2.47,2.58c-.36.43-.69.87-1,1.3s-.6.74-.88,1.13-.58.82-.87,1.23-.65.89-.93,1.37-.36.68-.53,1-.45.85-.65,1.28-.42.88-.6,1.33a12.34,12.34,0,0,0-.47,1.33c-.24.8-.53,1.59-.78,2.39a10.89,10.89,0,0,0-.43,2.53.41.41,0,0,1,0,.11c0,.31,0,2.21-.13,2.84a11.89,11.89,0,0,0-.06,2.15c0,.77.08,1.53.14,2.3l.12,1.93c0,.49.05,1,.1,1.46s.13,1,.2,1.53.15,1.19.28,1.78.24,1,.34,1.46.19,1,.32,1.55.24.89.37,1.33c.28,1,.58,2,.88,3a20.88,20.88,0,0,0,1.16,2.86,17.83,17.83,0,0,0,1.74,2.82,16.56,16.56,0,0,0,2.11,2.32,27.81,27.81,0,0,0,2.49,2.09c1.8,1.32,3.66,2.56,5.55,3.74.94.59,1.87,1.2,2.86,1.73s2,1,3.06,1.47,2.13.8,3.19,1.21,2.26.87,3.41,1.25,2.15.73,3.25,1,2.24.52,3.36.79,2.34.55,3.52.77,2.26.37,3.39.54c1.82.27,3.66.5,5.51.62h.12a5.09,5.09,0,0,0,.55,0l.56,0h0l.31,0h0l.28,0h.16l.47,0h.11l.32,0h-.05c2.32.16,4.64.3,7,.32h1l2.55,0c1.15,0,2.3,0,3.45-.07s2.23-.14,3.35-.24,2-.2,3-.27h.12l.36,0,.61,0c.71,0,1.43-.06,2.15-.11l2.31-.18,2.58-.15c.85,0,1.69-.12,2.54-.19s1.71-.16,2.56-.26a29.1,29.1,0,0,0,3.39-.42c.07.13,1,1.91,1.55,2.7.3.48.62.95,1,1.41s.64.82,1,1.22c.73.89,1.41,1.81,2.22,2.63s1.68,1.56,2.52,2.33,1.64,1.52,2.44,2.3,1.69,1.55,2.54,2.31,1.72,1.52,2.6,2.26,1.69,1.41,2.58,2.06a33.74,33.74,0,0,0,3,1.84c1,.61,2.06,1.23,3.06,1.89s1.76,1.27,2.69,1.82,2,1.09,3,1.6l-.06,0,.37.18h0l.14.07,0,0,.12.06h0c1,.5,2,1,3.06,1.46s2.07,1,3.13,1.36,2.06.85,3.08,1.3a20.71,20.71,0,0,0,3.27,1.13c1.16.29,2.32.56,3.48.83s2.32.6,3.47.92a60.13,60.13,0,0,0,6.91,1.45c2.32.35,4.64.75,7,1s4.61.43,6.91.73c1.14.15,2.28.28,3.42.4s2.32.26,3.48.34c.66.05,1.33.07,2,.07,1.73,0,3.46-.13,5.18-.26l1.05-.07h0l.46,0c1.16-.07,2.32-.09,3.47-.18s2.36-.28,3.54-.39c.57,0,1.14-.1,1.7-.19s1.19-.21,1.78-.32c1.09-.19,2.2-.32,3.29-.48a30.83,30.83,0,0,0,4.39-.8l5.15-1.55L260,249l2-.55,4.64-1.24c.86-.23,1.7-.49,2.54-.76s1.49-.46,2.23-.72,1.42-.6,2.12-.93,1.56-.71,2.32-1.11,1.23-.7,1.86-1,1.54-.73,2.3-1.11,1.47-.71,2.2-1.08a39.11,39.11,0,0,0,4-2.28c1.4-.91,2.78-1.86,4.16-2.82s2.9-2,4.34-3.07c.86-.62,1.75-1.2,2.59-1.85s1.44-1.18,2.15-1.77,1.45-1.16,2.14-1.79,1.51-1.42,2.29-2.1l-.11.09c1.21-1.06,2.44-2.1,3.65-3.16.62-.55,1.23-1.12,1.82-1.71s1.17-1.13,1.73-1.72,1.19-1.3,1.78-1.95,1.11-1.15,1.65-1.74c1.18-1.3,2.29-2.65,3.41-4s2.21-2.59,3.27-3.94c.5-.63,1-1.28,1.43-1.93s1-1.36,1.47-2.07c.89-1.34,1.78-2.68,2.64-4.05s1.67-2.75,2.55-4.1c.19-.28.37-.56.56-.83l-.09.12c1-1.45,2-2.84,2.91-4.34s1.67-2.93,2.42-4.43,1.47-3,2.2-4.57,1.42-3,2.08-4.53,1.4-3.07,2-4.64,1.19-3.27,1.75-4.91,1.06-3.21,1.6-4.82,1-3.15,1.48-4.74.84-3.41,1.2-5.13.54-3.23.72-4.87a41.16,41.16,0,0,0,.32-5C348.32,140.13,348.21,138.37,348.11,136.62ZM215.43,43.19c1.61-.09,3.22-.11,4.84-.13s3.33,0,5,.08h0c2.44.17,4.87.44,7.3.73,1.23.15,2.46.32,3.7.43s2.42.18,3.63.29l2.29.22c.71.08,1.41.21,2.12.35l.29.05c1.23.26,2.47.47,3.7.72,1.51.31,3,.65,4.52.92s3.16.58,4.73.9c2.44.5,4.86,1,7.28,1.61s5,1.25,7.4,2c1,.28,2,.58,2.92.91,1.32.46,2.63.94,4,1.4.82.29,1.64.58,2.45.91s1.71.76,2.56,1.16c1.61.77,3.27,1.45,4.87,2.25.76.38,1.51.77,2.26,1.16s1.7.85,2.55,1.26l0,0,.06,0,.07,0,0,0c.88.45,1.72,1,2.57,1.47s1.86,1,2.81,1.52l-.05,0,.12.07h0a57.52,57.52,0,0,1,5.6,3.35l0,0,0,0,.1.07-.09-.06a34.43,34.43,0,0,1,3.26,2.47c1.08.95,2.17,1.87,3.26,2.8l1.73,1.46c.29.25,3.81,4.08,4.06,4.29l-.06,0,.06.06,0,0,0,0A22.83,22.83,0,0,1,319,79.69l-.1-.11c.92,1,1.81,2.12,2.73,3.16l0,0c.09.1.17.2.26.29l.08.09s0,0-.05,0A49,49,0,0,1,324.87,87c.56.83,1.09,1.68,1.66,2.5s1.08,1.45,1.59,2.2c.59.91,1.16,1.83,1.69,2.76s1,2,1.53,3l0,0c.74,1.5,1.43,3,2.19,4.51.44.9.86,1.81,1.31,2.71s.89,1.84,1.31,2.78c.8,1.8,1.67,3.57,2.32,5.43.43,1.28.84,2.57,1.27,3.85a34.88,34.88,0,0,1,1.13,4c.14.76.27,1.52.38,2.29s.17,1.62.22,2.44v.1c.05.94.07,1.88.09,2.83s.09,2,.15,3.07.08,1.9.08,2.86,0,1.9,0,2.86c-.06.75-.16,1.5-.27,2.25s-.24,1.53-.4,2.29a39.9,39.9,0,0,1-1.25,4.26c-.46,1.28-1,2.53-1.52,3.77s-1.13,2.56-1.75,3.82c-.47.94-1,1.87-1.44,2.81a26.93,26.93,0,0,1-1.45,2.63c-.57.83-1.15,1.65-1.71,2.47a28,28,0,0,1-1.83,2.49l-2.61,3,0,0c-1,1.19-2,2.41-3.08,3.6-.83.92-1.68,1.84-2.52,2.76-.38.4-.75.82-1.15,1.21s-.74.69-1.12,1h0l0,0-.09.08,0,0c-.36.31-.72.62-1.1.9l-1.21.88c-1,.74-1.91,1.55-2.87,2.34s-1.76,1.39-2.65,2.08-1.59,1.24-2.42,1.82-1.67,1-2.5,1.54c-.27.09-.52.2-.78.31-.65.29-1.32.56-2,.84-.39.17-.77.35-1.17.51s-.88.32-1.32.48c-.87.32-1.73.69-2.61,1-.55.19-1.12.34-1.69.51l-1.47.46-1.18.34c-.53.15-1.06.26-1.59.4a33.86,33.86,0,0,0-3.2,1.14c-1.08.42-2.15.89-3.24,1.29-.52.18-1.06.31-1.6.44s-1.22.32-1.82.5c-1.2.36-2.39.76-3.61,1s-2.37.5-3.56.76-2.36.54-3.54.79-2.46.38-3.69.59-2.53.41-3.8.6c-2.53.37-5.05.81-7.6,1l-3.31.19c-1.16.08-2.32.16-3.48.21s-2.24,0-3.35,0-2.29,0-3.42,0c-.65,0-1.3-.1-1.94-.18s-1.28-.2-1.91-.31c-1.47-.26-3-.45-4.44-.6l-2-.21-2.08-.24c-1.53-.17-3.08-.23-4.62-.32-1.28-.09-2.56-.27-3.84-.41s-2.67-.27-4-.44-2.49-.37-3.72-.6-2.48-.42-3.71-.67c-.87-.19-1.73-.44-2.6-.61s-1.8-.32-2.69-.5a44.93,44.93,0,0,1-5.32-1.55l.14.05c-.83-.29-1.65-.6-2.49-.87l-2.75-.83c-.84-.25-1.68-.54-2.52-.78s-1.68-.43-2.51-.69l-1.88-.71-2.33-.91c-1.43-.58-2.9-1-4.36-1.49l-2.16-.77c-.65-.23-1.31-.47-2-.74s-1.28-.59-1.92-.89-1.38-.64-2.07-1l.06,0c-.78-.39-1.57-.75-2.35-1.14a55.22,55.22,0,0,1-5.51-3.11c-.18-.13-.36-.26-.53-.41-.37-.34-.7-.72-1.06-1.07a9.62,9.62,0,0,0-1.22-1c-.93-.66-1.9-1.28-2.8-2s-1.75-1.42-2.63-2.12c-.42-.34-.84-.68-1.27-1s-.93-.68-1.36-1.06c-.27-.24-.52-.51-.78-.76a11,11,0,0,0-1-.85c-.48-.4-1-.75-1.47-1.16s-1-.95-1.51-1.46a1,1,0,0,0-.58-.29s0-.08,0-.11a3.38,3.38,0,0,0-.63-.73c-.12-.1-.26-.18-.38-.27s-.36-.28-.53-.43c-.75-.69-1.45-1.44-2.18-2.16s-1.61-1.48-2.34-2.29a44.1,44.1,0,0,1-3.13-4.05c-1.26-1.88-2.49-3.78-3.78-5.64s-2.51-3.62-3.74-5.43c-.57-.87-1.07-1.78-1.57-2.69s-1-1.83-1.52-2.77l0,0-.06-.1v0h0c-.55-1.1-1.06-2.23-1.58-3.35a38.74,38.74,0,0,1-1.6-3.75.58.58,0,0,0,.05.14l-.11-.3v0a34.76,34.76,0,0,1-.92-3.47c-.17-.85-.33-1.69-.47-2.55s-.29-1.84-.39-2.76-.15-1.85-.24-2.78-.18-1.75-.25-2.63v0a.76.76,0,0,0,0-.15h0c0-.06,0-.11,0-.17v-.1c0-.46,0-.91-.06-1.36,0-.84,0-1.67,0-2.51s0-1.74,0-2.61.19-1.9.3-2.85.27-2.06.47-3.08.41-1.84.66-2.74.54-1.73.82-2.59c.59-1.84,1.19-3.69,1.82-5.52l0,.15a40.34,40.34,0,0,1,1.6-4.12c.35-.73.68-1.46,1-2.19s.68-1.42,1-2.12.83-1.58,1.26-2.37.92-1.63,1.44-2.41a10.84,10.84,0,0,1,.79-1l.86-.95a1.26,1.26,0,0,0,.29-.32l.2-.22a1,1,0,0,0,.11-.17c.33-.38.67-.76,1-1.16s.86-1.08,1.31-1.6,1.14-1.13,1.73-1.66l.36-.3c.16-.14.35-.28.49-.43l0,0,.4-.35h0l0,0,.09-.08,0,0c.79-.69,1.58-1.38,2.4-2,.39-.32.78-.66,1.19-1s.79-.57,1.2-.85c.78-.53,1.49-1.15,2.23-1.74l2.6-2c.51-.4,1-.77,1.54-1.13s1.11-.7,1.69-1,1.31-.73,1.95-1.13c1.23-.77,2.44-1.56,3.73-2.22.68-.34,1.35-.66,2-1s1.35-.75,2-1.1c1-.5,2-.95,3.06-1.44s2-.94,3-1.32,2.11-.9,3.17-1.34l1.59-.63,1.59-.64c.67-.27,1.35-.54,2-.78,1.76-.58,3.6-.88,5.38-1.35,1-.25,1.93-.55,2.9-.79s1.91-.47,2.87-.68,12-2.7,13-2.92,2.4-.41,3.62-.55l1.86-.2c.75-.09,3.24-.42,3.51-.44C213.75,43.34,214.59,43.25,215.43,43.19Zm93.9,140.31h0ZM124.77,116.76v0h0Zm-4.59-3.12c0-2,.06-4,.18-6.07a21.93,21.93,0,0,1,.31-2.42c.25-1.18.56-2.35.85-3.52s.55-2.2.91-3.28.89-2.18,1.35-3.26.82-2,1.27-3.07,1-2.09,1.44-3.14.88-2,1.36-3l0,0,0-.08,0,0v0c.56-1.09,1.13-2.17,1.76-3.22s1.37-2.2,2.09-3.27a49.12,49.12,0,0,1,3.51-4.61c1-1.11,2-2.2,3-3.27s2.09-2.18,3.2-3.2c.87-.76,1.81-1.43,2.75-2.11s1.86-1.38,2.8-2.05,1.87-1.31,2.78-2,1.79-1.38,2.7-2c.62-.45,1.25-.9,1.9-1.34h0c.78-.51,1.57-1,2.37-1.51s1.8-1.06,2.69-1.6l1.25-.77.66-.36.23-.12.19-.1a38.88,38.88,0,0,1,4-1.77c2.19-.74,4.37-1.49,6.6-2.1,1.05-.28,2.11-.55,3.15-.85l.06,0-.66.27c-.52.21-1.05.4-1.57.62s-1,.46-1.55.69c-.87.37-1.77.68-2.64,1.06s-1.75.82-2.63,1.23-1.79.81-2.66,1.26-1.62.91-2.45,1.34h0l-.11.06.08,0c-1,.49-2,1-2.92,1.54s-1.93,1.26-2.94,1.84c-.51.29-1,.56-1.55.85s-1,.6-1.45.92c-.9.61-1.75,1.29-2.61,2s-1.54,1.2-2.29,1.82c-.35.28-.69.57-1,.83s-.79.53-1.17.81c-.8.56-1.55,1.22-2.31,1.85s-1.61,1.38-2.4,2.08l0,.05,0,0,0,0c-.18.14-.35.29-.52.44-.35.3-.69.62-1,.93s-.6.55-.88.85-.56.64-.82,1c-.5.64-1,1.27-1.55,1.88a7.56,7.56,0,0,0-.59.68l-.66.73c-.35.38-.69.77-1,1.17a14.15,14.15,0,0,0-.91,1.37c-.27.46-.54.92-.8,1.38-1.08,1.92-2.07,3.89-3,5.89-.44,1-.92,1.91-1.3,2.91s-.77,2.07-1.12,3.12c-.7,2.06-1.37,4.13-2,6.21a36.74,36.74,0,0,0-1.51,6.48c-.15,1.12-.28,2.23-.39,3.35a33.88,33.88,0,0,0-.08,3.49c0,1.14,0,2.28.08,3.42l0,.61a.71.71,0,0,0,0,.14c0,.06,0,.13,0,.2v0a.28.28,0,0,1,0,.09c0,.31,0,.62.08.94,0,.57.11,1.14.17,1.72.12,1.16.17,2.34.32,3.5.18,1.4.41,2.79.68,4.17a34.23,34.23,0,0,0,1.11,4.35h0v0l0,.1,0,0c.75,2.12,1.75,4.15,2.7,6.18s2.13,4.14,3.31,6.15c.4.69.86,1.34,1.31,2l1.33,2c.94,1.36,1.9,2.71,2.83,4.08h0c1.25,1.86,2.43,3.78,3.79,5.57.73,1,1.48,1.94,2.3,2.85s1.55,1.53,2.33,2.28c.61.59,1.18,1.21,1.79,1.8a12.39,12.39,0,0,0,.94.83c.18.15.38.28.57.43l0,0,.09.12.09.12a1,1,0,0,0,.66.39,1.17,1.17,0,0,0,.17.26,22.28,22.28,0,0,0,1.79,1.71c.59.51,1.24.95,1.83,1.46.32.3.62.62.94.93a16.72,16.72,0,0,0,1.39,1.13c.88.66,1.73,1.35,2.58,2.05s1.78,1.45,2.73,2.1l1.35.94c.42.3.84.59,1.24.92a24.65,24.65,0,0,0,1.82,1.71,26.33,26.33,0,0,0,2.47,1.56c.89.51,1.81,1,2.72,1.45s1.94.95,2.91,1.43l-.13-.06c1,.5,2,1,3.06,1.46s1.76.82,2.67,1.14,2.05.75,3.08,1.1,1.94.61,2.91.94c.59.21,1.18.45,1.77.69s1.18.46,1.78.68l1.55.59c.6.22,1.2.41,1.81.57s1.22.32,1.82.5,1.12.35,1.67.52c1.26.4,2.52.76,3.77,1.16.76.26,1.51.55,2.27.8s1.75.57,2.63.83c1.79.51,3.63.78,5.46,1.15.73.16,1.45.38,2.19.53s1.35.24,2,.36c1.39.24,2.77.53,4.16.74s3,.38,4.48.54,2.92.34,4.39.47c1,.09,2,.11,3,.17,1.46.11,2.92.31,4.39.46s2.79.29,4.18.48,2.76.49,4.16.64a36.62,36.62,0,0,0,4.19.2h.27c1.45,0,2.91,0,4.37-.07s3.05-.18,4.58-.28,3-.16,4.44-.33,3.08-.45,4.62-.68,3-.44,4.47-.7,3-.41,4.48-.74,3-.68,4.49-1l2.07-.43c.71-.17,1.42-.37,2.11-.58.91-.28,1.82-.57,2.73-.82s1.76-.41,2.61-.72c1.7-.62,3.34-1.38,5-2,1.13-.39,2.31-.63,3.45-1l1.78-.54c.74-.23,1.48-.43,2.2-.69s1.23-.46,1.84-.71,1.16-.44,1.74-.64,1.08-.47,1.63-.7l1.3-.54c.11-.05,3.29-1.71,3.86-2.1.89-.58,1.73-1.21,2.56-1.87s1.74-1.33,2.59-2,1.89-1.61,2.87-2.36c.8-.63,1.65-1.19,2.43-1.85a26.05,26.05,0,0,0,2.17-2c1.52-1.64,3-3.28,4.47-5l1.3-1.53c.52-.58,1-1.18,1.55-1.77l0,0,.08-.1h0l1-1.17a16,16,0,0,0,1.13-1.32c.69-.91,1.32-1.87,2-2.82s1.3-1.83,1.85-2.81,1.07-2.08,1.6-3.12,1.08-2.12,1.58-3.21.88-2,1.32-3A47,47,0,0,0,343,143.2a29.6,29.6,0,0,0,.66-3.35,27.83,27.83,0,0,0,.34-3.28c.07-2.19,0-4.38-.14-6.58-.07-1.16-.06-2.33-.1-3.5s-.14-2.31-.26-3.46a33.26,33.26,0,0,0-1.53-6.76c-.36-1.08-.73-2.16-1.08-3.24a34.51,34.51,0,0,0-1.26-3.39c-.45-1-.94-2.07-1.41-3.11s-.95-2.06-1.45-3.07-1.12-2.31-1.69-3.46c-1-2.07-1.95-4.2-3.07-6.23-.17-.3-.34-.59-.52-.88.44.67.87,1.33,1.28,2,.6,1,1.13,2.06,1.69,3.09s1.27,2.24,1.91,3.36c.55,1,1.06,1.94,1.56,2.93.9,1.82,1.76,3.67,2.55,5.54.4.94.74,1.89,1.1,2.83s.77,1.92,1.13,2.88.53,1.71.76,2.57.45,1.72.64,2.59.29,1.75.43,2.63l.27,1.72c0,1.52,0,3,.06,4.56,0,2.22-.09,4.43-.22,6.64,0,.14,0,.29,0,.43-.1,1.36-.23,2.71-.41,4.06s-.37,2.61-.61,3.9c-.23,1.06-.49,2.11-.73,3.17a29.1,29.1,0,0,1-.86,3.17c-.34,1-.78,1.88-1.18,2.81s-.75,1.87-1.19,2.77q-1,1.94-2.07,3.84c-.34.62-.7,1.23-1.06,1.84s-.83,1.31-1.26,1.95h0l0,0a3.15,3.15,0,0,0-.22.33,4.86,4.86,0,0,0-.35.53c-.81,1.23-1.56,2.5-2.38,3.73a42.4,42.4,0,0,1-2.75,3.39l0,0,0,.05-.05.06,0,0c-.88,1-1.78,2-2.73,2.9s-1.86,1.76-2.82,2.61h0l-.09.09,0,0c-1.09.95-2.21,1.88-3.36,2.76s-2.43,1.76-3.68,2.6q-1.52,1-3.09,2c-1,.61-2.09,1.21-3.11,1.84s-2,1.26-3,1.85-2.06,1.17-3.12,1.72l-1.14.58,0,0-.29.15,0,0-.3.15-.74.37-1.45.75c-2,1.05-3.92,2.25-5.93,3.28-1.3.63-2.63,1.17-4,1.68l-2,.76c-.64.26-1.28.53-1.93.76s-2.83,1.33-3,1.38a13.41,13.41,0,0,1-1.66.41c-.68.14-1.37.25-2,.39s-1.27.3-1.9.44c-.91.17-1.82.31-2.73.47s-1.7.38-2.55.59-2,.44-2.93.69c-.64.17-1.28.4-1.92.54-.83.14-1.68.16-2.52.22h-.12l-2.12.13a7.89,7.89,0,0,0-1.09.11l-.61.13c-.33.06-.67.08-1,.11l-1.46.11c-2.24.13-4.48.14-6.72.32-.6,0-1.21,0-1.81,0h-2.86c-1.47,0-3,0-4.42-.11s-2.92-.31-4.39-.41c-.66,0-1.32-.09-2-.09l-1.3,0c-2.67,0-5.35,0-8-.13-.78-.06-1.56-.14-2.34-.26s-1.52-.22-2.28-.35-1.44-.29-2.16-.43-1.67-.3-2.51-.47h0l-2.1-.43c-.63-.12-1.27-.21-1.91-.33-1.39-.29-2.76-.67-4.14-1.05s-3-.78-4.49-1.1l-2.25-.48-.15,0a3.69,3.69,0,0,0-.56-.11l-.48-.1-1-.19c-1-.2-1.9-.46-2.84-.71-1.12-.29-2.25-.57-3.37-.87s-2-.56-2.94-.86-1.9-.53-2.84-.85l-.24-.08.14,0c-.76-.26-1.5-.55-2.25-.82l-2-.68-2.46-.9c-.82-.3-1.65-.58-2.47-.92s-1.55-.68-2.32-1-1.54-.72-2.31-1.1-1.56-.83-2.35-1.25-1.6-.85-2.37-1.33-1.47-.93-2.2-1.4-1.54-1-2.3-1.51l0,0c-1.05-.71-2.09-1.43-3.09-2.21s-2-1.66-3-2.49-1.74-1.38-2.59-2.11-2-1.59-2.9-2.42-1.9-1.72-2.81-2.61-1.78-1.83-2.7-2.72-1.94-1.9-2.89-2.87-1.88-1.9-2.77-2.9c-.44-.51-.86-1-1.28-1.55s-.89-1.06-1.35-1.58c-.94-1.08-1.86-2.18-2.73-3.31s-1.7-2.26-2.55-3.4-1.61-2.2-2.38-3.32c-.31-.46-.6-.93-.88-1.4s-.65-1-1-1.52c-.62-1-1.22-2-1.79-3.08-1.07-2-2.13-4-3.14-6-.64-1.3-1.22-2.64-1.77-4-.24-.58-.46-1.15-.72-1.71s-.5-1.12-.71-1.7c-.13-.37-.24-.75-.36-1.12a44.21,44.21,0,0,1-1.86-5,31,31,0,0,1-.82-6.05C120.16,117.7,120.18,115.67,120.18,113.64Zm224.94,37.25c-.3,1.43-.59,2.86-1,4.27s-.78,2.79-1.22,4.18-.9,2.71-1.34,4.07-.92,2.77-1.4,4.14-1,2.86-1.63,4.26-1.25,2.77-1.85,4.16-1.28,2.76-1.93,4.14-1.27,2.66-1.92,4a56.25,56.25,0,0,1-3.34,5.85l.06-.09c-1.36,2-2.73,3.94-4,6s-2.46,3.93-3.75,5.86h0c-.65,1-1.35,1.88-2,2.8s-1.43,1.84-2.17,2.73c-1.48,1.75-2.95,3.52-4.46,5.26-.54.62-1.1,1.22-1.67,1.81s-1.24,1.36-1.87,2-1.2,1.22-1.8,1.82-1.24,1.22-1.88,1.79c-1.05.92-2.11,1.82-3.16,2.73s-2,1.86-3,2.77-2,1.67-3,2.51-2.31,1.73-3.49,2.57-2.56,1.83-3.85,2.73l-3.66,2.5,0,0a40.91,40.91,0,0,1-4.29,2.53c-1.15.58-2.31,1.15-3.48,1.7-.7.33-1.4.66-2.08,1s-1.12.63-1.69.92-1.37.65-2.06,1a18.29,18.29,0,0,1-1.88.8c-1.09.37-2.2.72-3.3,1s-2.22.61-3.33.91-2.28.59-3.41.91-7,1.93-8,2.28a12.9,12.9,0,0,1-1.48.39c-1,.19-2.09.32-3.14.47s-2.24.31-3.36.51c-.58.1-1.15.22-1.73.3s-1.17.13-1.75.18c-1.17.11-2.33.29-3.5.38h0c-1.15.07-2.3.11-3.44.18h0l-2.58.19h-.08a44.62,44.62,0,0,1-5,.09c-1.09-.08-2.18-.2-3.26-.32s-2.35-.25-3.52-.4c-2.3-.29-4.6-.53-6.91-.74-1.79-.16-3.55-.44-5.33-.71s-3.66-.57-5.48-.93-3.8-1-5.7-1.47c-.91-.23-1.83-.44-2.75-.66s-1.88-.43-2.8-.73-1.79-.72-2.67-1.1-1.77-.72-2.66-1.09-1.9-.83-2.85-1.27-1.74-.82-2.6-1.25h0l-.15-.07.05,0-.08,0-.05,0h0l-.17-.09.13.07c-.19-.1-.38-.2-.58-.29h0a33.73,33.73,0,0,1-3.42-1.93c-.59-.41-1.16-.83-1.76-1.23s-1.27-.82-1.92-1.21c-1.19-.72-2.42-1.38-3.59-2.14-.77-.53-1.48-1.13-2.21-1.72s-1.56-1.28-2.32-1.95-1.48-1.31-2.21-2-1.5-1.42-2.25-2.14c-1.47-1.4-3.07-2.68-4.44-4.18-.5-.58-1-1.19-1.44-1.79s-.91-1.12-1.32-1.71a27.69,27.69,0,0,1-1.75-2.91l0,.05L150,215l-.06-.11a1.5,1.5,0,0,0-1.08-.67,7.71,7.71,0,0,0-1.88-.08c-.76,0-1.51.15-2.26.24s-1.46.18-2.2.25-1.51.13-2.26.18h0c-.84.06-1.69.11-2.53.15-1,.06-2.08.15-3.13.23l-2.79.15a2.6,2.6,0,0,0-.4,0h-.16l-.76.06-1.42.14c-1,.09-1.93.17-2.89.24-2.21.13-4.41.14-6.62.15s-4.39-.07-6.58-.2l-1.61-.11-.33,0h-.07l-.37,0h0l-.27,0H110l-1.27-.08h.15l-.27,0h0c-1.58-.11-3.16-.31-4.73-.52s-3.25-.48-4.85-.79-3.24-.75-4.86-1.12-3.16-.9-4.72-1.42l.05,0-.08,0-.06,0,0,0c-1.3-.46-2.58-1-3.88-1.45a38,38,0,0,1-3.67-1.55c-.6-.3-1.19-.61-1.77-1s-1.16-.72-1.74-1.08c-1.18-.74-2.34-1.49-3.49-2.26-.7-.48-1.39-1-2.08-1.48s-1.31-1-1.95-1.59l0,0-.07-.06,0,0,0,0a20.81,20.81,0,0,1-1.5-1.47A17,17,0,0,1,68,198.15a18,18,0,0,1-1-1.59,23,23,0,0,1-1-2.4c-.29-.87-.55-1.75-.8-2.63s-.49-1.64-.66-2.47c-.09-.44-.17-.88-.27-1.31s-.2-.85-.29-1.28-.16-1.13-.25-1.68-.15-1.11-.19-1.66-.07-1.15-.11-1.72l-.15-2.18a22.56,22.56,0,0,1,0-2.6c.06-.63.31-4.55.33-4.64a18.21,18.21,0,0,1,.57-1.91c.23-.66.42-1.34.65-2,.13-.35.29-.69.44-1s.33-.73.51-1.09c.35-.68.69-1.38,1.11-2l0,.06,0-.06,0-.06,0,0c.54-.79,1.09-1.59,1.67-2.34l.9-1.12c.34-.43.68-.87,1-1.29l0,0,0-.05,0-.06,0,0c.44-.49.91-.95,1.39-1.41s.82-.81,1.25-1.19c.26-.22.52-.44.81-.64l.81-.56-.12.09c.46-.31.93-.58,1.41-.85s.87-.55,1.29-.85c1-.68,1.93-1.39,2.91-2.06l0,0a29.1,29.1,0,0,1,2.57-1.54c.59-.28,1.2-.52,1.8-.77s1.45-.59,2.18-.85c1.38-.47,2.79-.86,4.21-1.2s2.82-.68,4.23-1a30.51,30.51,0,0,1,3.57-.43c1.87-.12,3.75-.16,5.63-.2.85,0,1.71,0,2.56,0,1.25,0,2.51,0,3.76-.07.65,0,1.3-.1,1.94-.18s1.27-.14,1.89-.23a6.77,6.77,0,0,0,2.12-.69h0a19.94,19.94,0,0,0,1.28-2.41,14.71,14.71,0,0,0,1.25-2.74,14.86,14.86,0,0,0,.51-2.88c.11-1.09.21-2.18.26-3.28s.06-2,.07-3v-.29l.42,1.24c.24.69.44,1.4.71,2.09.2.53.45,1.05.68,1.57s.48,1.16.72,1.74.58,1.32.86,2c.58,1.32,1.25,2.58,1.9,3.87s1.37,2.59,2.07,3.87,1.48,2.65,2.29,3.92c.41.64.79,1.29,1.2,1.92s.92,1.35,1.39,2c.76,1.08,1.56,2.14,2.35,3.2s1.77,2.38,2.72,3.52,1.87,2.16,2.79,3.27c.44.54.87,1.09,1.34,1.63s1,1.13,1.54,1.67c1.15,1.19,2.29,2.38,3.47,3.53.55.54,1.11,1.06,1.65,1.6s1,1,1.52,1.56c1.13,1.12,2.28,2.22,3.49,3.26.6.52,1.22,1,1.83,1.52s1.21,1,1.81,1.53,1.06.84,1.59,1.27,1.26,1.05,1.9,1.58c1.24,1,2.49,2,3.81,2.89s2.68,1.78,4,2.63c.6.39,1.19.79,1.81,1.16s1.3.72,2,1.07,1.38.75,2.08,1.11,1.31.64,2,1l2.17,1c.67.3,1.35.57,2,.83q2.9,1.07,5.82,2.07h0l.06,0,.08,0,0,0,2.41.87c.72.25,1.44.45,2.16.66s1.6.48,2.4.72c1.63.5,3.3.87,5,1.31.8.22,1.6.43,2.41.61s1.42.28,2.13.42h.06l.07,0,.14,0c2.42.51,4.84,1,7.22,1.71,1.16.34,2.34.63,3.52.89.57.13,1.15.22,1.73.31s1.24.24,1.86.36l-.09,0c1.54.32,3.08.59,4.63.9,1.39.28,2.81.49,4.23.67a40.14,40.14,0,0,0,4.65.26c1.44,0,2.89,0,4.33,0l1.79,0c.71,0,1.43,0,2.14.09,1.46.11,2.9.32,4.36.41,1.17.08,2.34.11,3.51.12h5.07c.5,0,1,0,1.51-.08h0c.81-.05,1.62-.06,2.44-.1l2.59-.12c.88,0,1.75-.11,2.62-.17.28,0,.55,0,.83-.09a5.59,5.59,0,0,0,.71-.15q.42-.06.84-.09h.1c1.05-.07,2.11-.13,3.16-.21a11.64,11.64,0,0,0,2.42-.32c1-.29,2.08-.6,3.14-.83l1.78-.41,1.47-.36c.86-.16,1.71-.3,2.57-.44s1.76-.4,2.65-.59c1.39-.27,7.31-2.38,7.8-2.58,1-.4,2-.8,3-1.18s2-.77,3-1.21,2.13-1,3.16-1.61,2.19-1.26,3.3-1.87,2.12-1.12,3.2-1.66h0l.05,0,.08,0-.05,0,.22-.11c.21-.08.4-.21.6-.31l.7-.35c.52-.27,1-.55,1.55-.84,1.08-.59,2.13-1.21,3.17-1.85s2-1.27,3.06-1.88,2.09-1.21,3.11-1.86,2.06-1.36,3.09-2.05a56.68,56.68,0,0,0,5.54-4.35c.9-.79,1.8-1.6,2.68-2.42s1.7-1.7,2.5-2.58,1.63-1.84,2.42-2.77a24.9,24.9,0,0,0,2.09-2.91c.67-1.08,1.34-2.15,2.05-3.21l0,0h0l0,0h0l0,0h0l0,0,0,0c.07-.09.13-.19.19-.28s.23-.35.34-.51l.54-.81c.31-.5.61-1,.91-1.51.57-1,1.12-2,1.65-3s1.17-2.14,1.65-3.27.86-2.09,1.31-3.12a17.25,17.25,0,0,0,.68-1.73c.18-.52.34-1.06.48-1.6.29-1.13.52-2.28.79-3.42.11-.47.22-1,.32-1.43-.07.82-.16,1.64-.26,2.45C345.49,148.64,345.34,149.77,345.12,150.89Z"/><path d="M108.92,172.18Z"/><path d="M112,172.63c-.08-.31-.17-.63-.28-.93l0,.06-.05-.12h0l-.21-.62v0a1.18,1.18,0,0,0-.5-.62,2.26,2.26,0,0,0-.9-.39,8.63,8.63,0,0,0-1.46-.12c-.6,0-1.22,0-1.82,0h-1.07c-1.14,0-2.28.07-3.42.09l-3.34,0a24.42,24.42,0,0,0-3.09.2,24.11,24.11,0,0,0-2.8.49,22.81,22.81,0,0,0-2.93,1,30.59,30.59,0,0,0-3,1.33,25.12,25.12,0,0,0-2.81,1.6,4,4,0,0,0-.34.23l0,0-.06,0,0,0c-.46.31-.92.6-1.37.93s-.87.69-1.29,1.06a10.27,10.27,0,0,0-2.12,2.65,7,7,0,0,0-.87,3.33,3.28,3.28,0,0,0,1,2.14,6.7,6.7,0,0,0,1.39,1.15c.94.62,2,1.13,2.94,1.66A28.63,28.63,0,0,0,87,189.27a30.94,30.94,0,0,0,3.38,1.09,24.66,24.66,0,0,0,3.51.66c.79.1,1.58.18,2.37.23h0c1.09.08,2.18.12,3.26.12a21.68,21.68,0,0,0,3.22-.21,17,17,0,0,0,3.16-.78,11.62,11.62,0,0,0,2.66-1.39,6.36,6.36,0,0,0,1.18-1,7.74,7.74,0,0,0,1-1.4,6.94,6.94,0,0,0,.65-1.57c.12-.53.18-1.08.25-1.61s.11-1.09.19-1.63.18-1,.25-1.56a25.35,25.35,0,0,0,.18-3.26c0-1,0-2,0-3A6.75,6.75,0,0,0,112,172.63Zm-2.19,6.27c-.07.93-.24,1.84-.38,2.76s-.18,1.83-.35,2.74c0,.12-.06.24-.1.36a3.76,3.76,0,0,1-.2.46c-.12.23-.24.45-.38.67s-.28.39-.44.58l-.18.18c-.21.17-.43.33-.66.49l0,0,0,0q-.57.38-1.17.69a8.09,8.09,0,0,1-1,.42,20.94,20.94,0,0,1-2.2.58c-.54.09-1.07.15-1.61.19a32.9,32.9,0,0,1-4.55,0h-.18c-1.4-.11-2.8-.27-4.19-.52a31.55,31.55,0,0,1-3.69-1,29.46,29.46,0,0,1-2.77-1.17c-.65-.33-1.29-.68-1.93-1s-1.28-.7-1.89-1.09c-.22-.16-.44-.32-.65-.49l-.22-.24a2.43,2.43,0,0,1-.2-.25l-.16-.26v-.08a.6.6,0,0,1,0-.19c0-.22,0-.44.08-.67s.15-.55.24-.83c0-.1.08-.2.13-.3a9,9,0,0,1,.47-.78,9.9,9.9,0,0,1,.69-.91q.31-.34.66-.66a19.83,19.83,0,0,1,1.64-1.26l.69-.46,0,0,.11-.07h0l.27-.18h0l0,0,.09-.06-.08.06.1-.07a26.94,26.94,0,0,1,3-1.65,29,29,0,0,1,3.15-1.3,21.48,21.48,0,0,1,2.25-.65,28.93,28.93,0,0,1,3.47-.47c.87,0,1.75,0,2.62,0s2,0,3.06-.05,1.91-.06,2.87-.07H107c.65,0,1.29,0,1.93,0h0c.21,0,.65.11.7.24a7.84,7.84,0,0,1,.23.83,1.07,1.07,0,0,1,0,.25c0,.82,0,1.64,0,2.45C109.9,176.93,109.91,177.92,109.85,178.9Z"/><path d="M84.41,174.63h0l.12-.08A.36.36,0,0,0,84.41,174.63Z"/><path d="M108.51,189h0l0,0Z"/><path d="M150.09,164.68l0,0h0Z"/><path d="M150.11,164.71a0,0,0,0,1,0,0l0,.06Z"/></g></svg>