<svg xmlns="http://www.w3.org/2000/svg" viewBox="0 0 1000 1000"><defs><style>.cls-1{opacity:0.2;}.cls-2{fill:#e6cfbb;}.cls-3{fill:#ffffe9;}.cls-4{fill:#b7a292;}.cls-5{fill:#fff;}.cls-6{fill:#f4d3a1;}.cls-7{fill:#fff6c4;}.cls-8{fill:#ebbca2;}.cls-9{fill:#f9ddb7;}.cls-10{fill:#8c7056;}.cls-11{fill:#ffa;}.cls-12{fill:#ffddb4;}.cls-13{fill:#ffc092;}.cls-14{fill:#151411;}.cls-15{fill:#e4c195;}.cls-16{fill:#ffe2c9;}.cls-17{fill:#fffff7;}.cls-18{fill:#fffb63;}.cls-19{fill:#ffa747;}.cls-20{fill:#231815;}</style></defs><g id="レイヤー_1" data-name="レイヤー 1"><path class="cls-1" d="M848.91,734.06c0,7.42-.55,15.42-3.61,22.27a65.68,65.68,0,0,1-7.94,11.61,103.46,103.46,0,0,1-16.3,16,221.25,221.25,0,0,1-25.94,18c-6.5,3.88-13.64,6.74-20.62,9.63-14.41,6.16-29.31,11.26-44.2,16.15-7.66,2.44-15.62,4.43-23.26,7-14.33,5.06-28.69,10.27-43.32,14.41-9.25,2.85-18.93,4.41-28.13,7.4-7.25,2.36-14.23,5.78-21.58,7.8-4.33,1.19-8.88,2-13.26,2.87-5.49,1.14-11.09,2.45-16.65,3.22a104.65,104.65,0,0,1-16.22.72c-5.2,0-10.49.06-15.69.17-6.86.17-13.83.46-20.66,1.17s-13.65,1.56-20.47,1.12c-10.76-.81-21.17-4-31.22-7.74-4.43-1.54-9-3-13.3-4.79-6.81-3-13.53-6.29-20.3-9.34-8.38-3.79-16.09-9.15-24.85-12.09-7.13-2.44-14.64-4-21.75-6.49a191.8,191.8,0,0,1-28-12.48c-5.16-3-10.15-6.55-15-10A122.28,122.28,0,0,1,343.4,800c-4.38-4.19-9.07-8.35-12.25-13.57-2.56-4.29-3.44-9.4-4.17-14.27-.94-6.56-1.56-13.42-2.07-20,3.25-2.61,18.14-13.14,20.16-16.17,1.57-1.43,3.2-2.84,4.85-4.16a61.4,61.4,0,0,1,7.4-4.72,134.17,134.17,0,0,1,12-6.52c10.1-4.55,20.68-8.34,31.13-12,12.09-4,24.73-7.11,37.09-10.17,28.59-7.27,57.76-13.39,86.94-17.81,35.58-5.82,71.46-11.3,107.11-16.6,25.23-4.13,50.57-9.53,76.14-11.08,21.61-1.62,43.83-2.77,65,2.86,12.74,3.43,26,6,37.69,12.47a64.4,64.4,0,0,1,24.52,22.3,81.22,81.22,0,0,1,14,43.57Z"/></g><g id="レイヤー_9" data-name="レイヤー 9"><path class="cls-2" d="M434.63,315.54c.54,14.89-9.24,27.54-19.49,37.33a91.58,91.58,0,0,1-20.25,15.05,183.55,183.55,0,0,1-26.39,13c-13.63,6.16-27.46,12-41.28,17.72-3.84,1.74-7.67,3.67-11.36,5.71a48,48,0,0,1-13.69,5.77c-4.84,1.16-9.84,2.22-14.82,1.34a35.83,35.83,0,0,1-9.41-2.32,23.53,23.53,0,0,1-10.67-9.49c-1.32-2.25-2.46-4.68-3.71-7a36.51,36.51,0,0,1-3.61-8.37,29,29,0,0,1-1.31-8.11,26.88,26.88,0,0,1,.74-8.76,17.94,17.94,0,0,1,3.52-6.06,80,80,0,0,1,8.21-8.67c2.48-2.32,4.84-4.76,7.19-7.21,1.94-1.89,4.07-3.6,6.11-5.39,3.61-3.08,7.44-5.9,11.28-8.68,2.72-1.87,5.51-3.65,8.24-5.5,2.45-1.63,4.75-3.5,7.22-5.1,3.5-2.21,7-4.42,10.68-6.34a31,31,0,0,1,5.87-2.19c1.83-.41,3.71-.63,5.56-.94,2.32-.34,4.63-.78,6.94-1.16a44.89,44.89,0,0,0,5.29-.88c3.87-1.24,7.41-3.32,11.07-5.05a92.17,92.17,0,0,1,9.07-3.63c3.34-1.36,6.76-2.52,10-4a60.33,60.33,0,0,1,9.56-2.62,28.61,28.61,0,0,1,11.62.19c.91.41,11.37,0,12.55,0a42.88,42.88,0,0,1,15.14,5.49C429.94,303.17,434.35,308.94,434.63,315.54Z"/></g><g id="レイヤー_8" data-name="レイヤー 8"><path class="cls-3" d="M767.92,591.28a26.52,26.52,0,0,1-.75,5.87c-.36,2-.68,4-.93,6-.16,2.3-.29,4.62-.3,6.92a48.15,48.15,0,0,1-.08,6.9c-.29,2.15-1.29,4.12-1.87,6.19-.59,1.89-1,3.82-1.58,5.71-.82,2.68-1.79,5.31-2.78,7.93a35.7,35.7,0,0,0-1.65,6.1c-.29,1.55-.28,3.18-.66,4.71A39.79,39.79,0,0,1,751.08,660c-1.93,2.89-3.56,6-5.36,9-1.23,2.67-2.75,5.25-3.57,8.09a52.14,52.14,0,0,1-7.6,15.59c-2.92,4.45-7.07,7.88-10.46,11.93-2.87,3.78-5.35,7.9-8.24,11.67a82.94,82.94,0,0,1-5.86,7.85c-3,3.67-6.22,7.29-9.08,11.1-3,4.25-5.14,9.11-8.62,13-2.46,2.84-5.13,5.59-7.63,8.39a83.19,83.19,0,0,1-7.22,7.56,106.31,106.31,0,0,1-9,7.52,112.41,112.41,0,0,1-11.94,8.74c-6,3.78-11.45,8.49-17.48,12.23-8.4,5.2-17.34,9.52-26,14.26a106.71,106.71,0,0,0-19.5,12.95c-22.2,16.86-24.25,20.34-52.39,26.26A57.78,57.78,0,0,1,526,847.3c-6.37.09-12.82-.45-19.19.1-6.66.85-12.94,3.75-19.65,4.41a81.21,81.21,0,0,1-16.35.23,149.3,149.3,0,0,1-16.35-1.74c-19.11-4-37.43-11.22-56.32-16a115.23,115.23,0,0,1-23.5-8.52,98.91,98.91,0,0,1-20.8-13c-4.09-3.75-7.76-8-11.91-11.67-2.72-2.33-5.23-4.89-7.87-7.31a74.58,74.58,0,0,1-6.33-5.72c-3.35-3.86-5.94-8.3-8.91-12.45a57.55,57.55,0,0,0-7-8.38c-2.66-2.75-5.77-5.1-7.95-8.27-2.58-4-4.77-8.24-7-12.45-2.08-3.74-4-7.56-6.12-11.29-.93-1.67-1.82-3.38-2.79-5s-2.1-3.27-3.12-4.92c-1.9-3.26-4-6.38-5.86-9.69a32,32,0,0,1-1.58-3.66c-.8-2.1-1.64-4.21-2.42-6.32a62.16,62.16,0,0,1-2.56-10.76c-1.09-6-3.54-11.56-5.11-17.39-2-6.72-4.88-13.19-6.11-20.13-.49-2.72-.85-5.48-1.41-8.19-.74-3.77-1.68-7.51-2.54-11.25-1.67-7.21-3-14.5-4.67-21.71-1.22-5.31-1.64-10.79-2.52-16.16-1.22-7.13-2.48-14.19-2.56-21.45-.36-5.92-.56-11.88-1.28-17.76-.87-4.85-1.92-9.69-2.08-14.63-.16-5.37.09-10.75,0-16.13,0-4.52-.48-9-.69-13.55-.12-3.83.28-7.66.47-11.49.13-3.31.17-6.63.37-9.94.21-9,.3-18.1.49-27.15,0-4.73-.07-9.46.2-14.18.2-3.67,1-7.26,1.41-10.9.26-2.47.48-5,.69-7.42a36.19,36.19,0,0,0,.27-5.4c0-4.61-.73-9.19-.67-13.8-.1-4.51.84-8.95,1.2-13.43.08-2.06,0-4.13.24-6.18a22.46,22.46,0,0,1,1.81-7.26,10.28,10.28,0,0,1,1.58-2.84,6.57,6.57,0,0,1,4.51-2.09,14.74,14.74,0,0,1,4.26,1,42.58,42.58,0,0,1,14.66,9.51,20.23,20.23,0,0,0,6.77,4.58c4.88,1.67,10.2,1.51,15.28,1.22,2.22-.18,4.47-.36,6.66-.75a63.09,63.09,0,0,0,7.65-2.08c7.22-2.37,14.19-5.47,21.27-8.23a122.12,122.12,0,0,1,14.13-5.11c6.88-1.79,13.86-3.34,20.82-4.77a235.87,235.87,0,0,1,28.14-3.62c15.52-1.89,31.14-3,46.74-4.07,4.87-.31,9.81-.64,14.65-1.28,5.48-.7,11-1.69,16.48-2.09,7.71-.52,15.49-.92,23.21-.8,6.4.14,12.82,1,19.2,1.32A221.41,221.41,0,0,0,562.87,365c11.39-2.47,22.52-6.43,33.88-9a150.44,150.44,0,0,1,17.78-2.8,82.44,82.44,0,0,1,19.48-.3l10.86-5H646c4.75.19,9.49,1.24,14.24,1.33a69.21,69.21,0,0,1,11.41,1,33.59,33.59,0,0,1,12.19,5.08c3.48,2.44,5.67,6.24,7.43,10s3.54,8.08,5.48,12c1.68,3.35,3.57,6.72,4.61,10.34,2.92,10.51,3.26,21.58,3.16,32.43.07,10.79-.21,21.65.29,32.44.6,8.11,1.08,16.4,3.14,24.29a59,59,0,0,0,7.09,15c1.7,2.46,3.76,4.71,5.67,7,3.27,3.86,6.37,8.06,10.42,11.15,2.14,1.64,4.57,3,6.74,4.58,2.44,1.76,4.81,3.67,7.29,5.38s4.71,3.43,6.93,5.31c1.58,1.52,3.26,3,4.69,4.67,2.88,3.75,5.34,8,6.21,12.69.53,2.54,1.1,5.1,1.75,7.62a45.63,45.63,0,0,1,1.16,5.28c.29,3.74,0,7.51.11,11.26a123.13,123.13,0,0,0,1.09,12.27c.18,2.23.22,4.48.42,6.71C767.66,587.48,767.94,589.37,767.92,591.28Z"/></g><g id="レイヤー_7" data-name="レイヤー 7"><path class="cls-4" d="M344.6,546.47a44.4,44.4,0,0,0,5,1.83c3.46,1.3,6.95,2.59,10.27,4.2a166,166,0,0,1,14.4,8.72,35.1,35.1,0,0,1,3.31,2.51,8.25,8.25,0,0,1,1.83,3.33,5.17,5.17,0,0,0,2.11,2.61,11,11,0,0,0,3.38,1.25c1.33.22,2.7.29,4,.63,4.21,1.27,8.31,2.94,12.63,3.83a27.27,27.27,0,0,0,4,.63c1.95-.59-6.51-4.7-7.1-5.27-2.77-1.75-5.39-3.79-8.23-5.42a73.41,73.41,0,0,1-8.42-4.91c-.9-.66-1.67-2.19-.46-2.94a6.86,6.86,0,0,1,3.37-.5,74,74,0,0,1,8.92.59c2.2.31,4.42.59,6.63.76,1.51.06,3.85.49,4.42-1.35.42-2.92-4.71-6.38-6.56-8.45a105.44,105.44,0,0,1-8.19-9.1c-1.45-1.68-.48-2.68,1-3.75.95-.82.3-2.19-.33-3-2.66-3.49-6.9-5.14-10.74-6.95a42.8,42.8,0,0,1-7.73-4.8c-2.33-1.72-4.57-3.59-6.72-5.53-2.31-2.15-4.5-4.43-6.87-6.52a36.67,36.67,0,0,0-6.15-4.19c-2.11-1.05-4.29-2-6.43-2.92-4.78-2.44-13.69-4.13-18.89-5.44a63.71,63.71,0,0,0,7.67,13.88c1.93,2.67,4.29,5,6.38,7.53,1.38,1.63,2.62,3.41,4,5.08,3,3.61,6.05,7.2,9,10.89,1.49,2,3.1,3.88,4.51,5.91,2.64,3.35,1,3.92-2.53,4.14-3.05.1-6.12,0-9.17.08-.81.08-3.76-.21-4,.73C343,545.44,343.92,546,344.6,546.47Z"/><path class="cls-4" d="M490.26,754.93a10.08,10.08,0,0,0-.67-2.4c-.35-.94-.67-1.91-1.09-2.82-.86-1.87-2.09-3.55-3.06-5.36-.75-1.37-1.37-2.82-2.09-4.2-1.21-2-2.34-4-3.54-6-2.34-3.44-4.86-6.78-7.3-10.16-1.39-1.9-2.69-3.87-4-5.84a37.33,37.33,0,0,1-2.92-5.1c-.49-1.09-1.1-2.12-1.64-3.18s-1.08-2.45-1.76-3.59c-1.64-2.62-3-5.45-4.84-7.92-3.84-5.07-8.68-9.32-12.39-14.51-2.44-3.15-4.43-6.62-6.72-9.88-1.25-1.92-2.61-3.77-3.95-5.62-.89-1.41-1.74-2.85-2.71-4.21-1.51-2.29-2.61-4.83-4.21-7.07a90,90,0,0,1-5.73-9.71c-2.36-4.13-4.72-8.26-7.24-12.29-1.07-1.88-1.87-3.92-2.91-5.81a44,44,0,0,1-2.44-5.09,70.11,70.11,0,0,0-4-9.39c-1.21-2.28-2.48-4.56-3.88-6.73-1.73-2.61-3.6-5.16-5.14-7.9-2.73-4.84-4.58-10.11-6.8-15.19-1.13-2.6-2.1-5.28-3.18-7.89-.33-.8-.75-1.61-1.14-2.38a3.1,3.1,0,0,0-1.69-1.72c-1.11-.25-2.27-.3-3.4-.5A36.08,36.08,0,0,1,372,570.2c-1.49-.61-2.9-1.43-4.35-2.12-2.62-1.13-5.16-2.47-7.79-3.58-4.41-1.92-11-3.29-15.56-4.73a84.19,84.19,0,0,0,7.09,18.49,57.28,57.28,0,0,0,4.51,5.91c1.71,2,3.73,4.05,6.3,4.87,1.12,2,1.52,4.48,2.38,6.64a75.12,75.12,0,0,0,4.22,10.21c.79,1.33,1.93,2.42,2.63,3.81.45,1,.95,1.9,1.46,2.83a32.62,32.62,0,0,0,2.79,4.87c2.43,3.43,5.49,6.39,7.72,10,2,3,3.77,6.1,5.52,9.22,1.9,3.28,4,6.47,6.13,9.59,3.74,5.87,8.69,10.89,12.29,16.85,1.63,2.59,3.14,5.27,4.61,8,1.74,3,3.45,6,5.13,9s3.12,6.31,5,9.26c5.89,8.18,12.06,16.18,17.38,24.74a165.45,165.45,0,0,0,9.07,14.33c1.55,2.43,2.88,5,4.59,7.33,2.25,3.41,4.93,6.51,7.3,9.83a51.42,51.42,0,0,0,3,4.27c1.74,1.88,3.37,3.86,5.06,5.78a52.47,52.47,0,0,0,7.91,7.5,5.31,5.31,0,0,0,3.95.77,13.73,13.73,0,0,0,2.81-1c.59-.42,1.25-.73,1.83-1.16s1-1.14,1.55-1.63a14.6,14.6,0,0,0,2.53-2.5A3.32,3.32,0,0,0,490.26,754.93Z"/><path class="cls-5" d="M871.83,568.59c0,.69-.47,11.22-.47,11.82-4.35-1.1-8.72-2.22-13-3.61-3-1-5.89-2.18-8.93-3a81,81,0,0,1-8.36-2.34,9.8,9.8,0,0,1-4-2.35c-2.5-3.36-3.61-7.52-5.29-11.31-3.35-7.8-6.74-15.66-11.24-22.88a174,174,0,0,0-18-22.14c-6.7-6.86-14.17-13-21.31-19.36a178.77,178.77,0,0,0-16-12c-4.18-2.95-8.3-6.17-12.68-8.83-12.68-7.3-26.29-13.05-40-18.18a113,113,0,0,0-30.48-6.3c-12.89-1.21-25.41.58-36.63,7.34a100.93,100.93,0,0,0-12.72,8.69,54.73,54.73,0,0,0-7,6c-1.06,1.17-2,2.46-3,3.7-2.81,3.77-6.09,7.38-7.39,12a23.42,23.42,0,0,0-.71,2.83,18.61,18.61,0,0,1-.37,2.11,6.66,6.66,0,0,1-2.88,3.6c-1.43,1-2.94,1.88-4.45,2.74a44.88,44.88,0,0,1-6.22,3,79,79,0,0,1-9.35,2.5,5,5,0,0,1-2.5.09A6.9,6.9,0,0,1,586,500a54.5,54.5,0,0,1-3.76-8.18c-2.25-6.1-2.87-12.64-4.42-18.93a93.09,93.09,0,0,1-2.05-10.6,111,111,0,0,1-.57-11.24c0-9.49,1.59-19.27,6.83-27.36,5.16-8.44,14.93-11.79,23.54-15.57,7.18-3,14.36-6.4,22.1-7.59,9-1.49,17.94.65,26.75,2.18,7.3,1.06,14.68,1.93,21.93,3.31,6,1.3,11.91,3.18,17.88,4.63a121.26,121.26,0,0,1,13,4.06c4.71,1.58,9.47,3.17,14.16,4.79,4.9,1.66,10,3,14.87,4.66a131.79,131.79,0,0,1,12.56,5.14c11.25,5.34,21.86,11.94,32.26,18.75,6.52,4.18,13.36,8,18.91,13.52,4,4,7.68,8.34,12,12,3.53,3,7.36,5.7,11,8.58s7.44,6,11.18,8.95a65.82,65.82,0,0,1,6.81,6.11c1.82,2,3.44,4.14,5.06,6.28s2.9,4.48,4.32,6.73,3,4.38,4.43,6.57c2.8,4.39,6.23,8.4,8.65,13a68.12,68.12,0,0,1,6,18.15A107.75,107.75,0,0,1,871.83,568.59Z"/><path class="cls-6" d="M742.62,529.12a21.74,21.74,0,0,1-7.43,15.82,17,17,0,0,1-4.65,1.87c-3.59,1.13-7.25,2.17-10.87,3.22-4.8,1.41-9.75,2.4-14.57,3.71-7.12,2-14.39,3.48-21.59,5.19-5.14,1.27-10.42,2.21-15.6,3.33-6.12,1.48-12.29,3.14-18.24,5.22a79,79,0,0,0-18.35,9.69c-6.05,4.64-12.09,9.4-18.35,13.76-5.25,3.51-10.75,7.11-17,8.61-7,1.64-14.45.42-21.27-1.67-8.52-2.54-16.21-7.06-24-11.29a146.24,146.24,0,0,0-28.33-10.94c-6.35-1.48-13-1.24-19.47-1.44-7.09-.13-14.31-.43-21.35.7-7.66,1.17-18.15,5.57-25.52,2.31-5.05-2.5-3.85-8.24-2-12.53a23,23,0,0,1,5.1-7.16c2.26-2.39,4.58-4.8,7.05-7a55.09,55.09,0,0,1,14.19-8.91,94,94,0,0,1,18.81-7A74.2,74.2,0,0,1,512,532c8.21-.39,16.4.91,24.46,2.33a130.8,130.8,0,0,1,17.12,3.36c3.18.89,6.42,1.71,9.55,2.74,2.83.94,5.63,2.11,8.43,3.12a61.38,61.38,0,0,1,6.65,2.65c2.6,1.26,5.09,2.79,7.74,3.94a60.94,60.94,0,0,0,14.54,4.36,47.21,47.21,0,0,0,18.12.13,32.23,32.23,0,0,0,7.34-2.71A46.1,46.1,0,0,0,635.4,546a29.06,29.06,0,0,0,9.07-10.53,48.17,48.17,0,0,0,2.85-8.86c.89-3.76,1.51-7.74,3.78-11a32.07,32.07,0,0,1,7-7.06c.29.06,12.91-2.07,13-2.15a28.21,28.21,0,0,1,6.48-.63c7.17,0,13.59,3.69,20.46,5.2,6,1.44,12.24,1.74,18.3,2.81C725.09,515.57,741.81,518.17,742.62,529.12Z"/><path class="cls-7" d="M737.45,719a49,49,0,0,1-1.22,10.86,53.87,53.87,0,0,1-6.07,13.73c-3.18,4.83-7.29,9-11.26,13.15-3.77,4.24-7.53,8.54-11.68,12.42-3.29,3-6.93,5.66-10.25,8.64-2.75,2.38-5.14,5.17-7.73,7.72-3.6,3.42-7.37,6.72-10.94,10.17-4.56,4.15-9.42,8-14.33,11.74-2.81,2-5.89,3.74-8.66,5.82-2.42,1.78-4.72,3.82-7.11,5.63-3.8,2.77-7.72,5.49-11.76,7.91-5.15,2.9-10.78,5-16.09,7.56l13.85-4.66a21,21,0,0,1-6.05,2.8,63.27,63.27,0,0,0-6.92,1.92c-2.88,1-5.7,2.11-8.5,3.29-3.3,1.33-6.69,2.57-9.88,4.15a48.62,48.62,0,0,1-15.34,5.25,78.77,78.77,0,0,1-13.17,1.29c-7.06-.59-14.12-1.79-21.21-2.14-6.73-.49-13.47-1.47-20.16-2.39a82.48,82.48,0,0,1-10.7-1.83,65.26,65.26,0,0,1-9.55-3.56c-7-3.65-14.56-6.28-21.88-9.31a88.51,88.51,0,0,1-12.32-6.44c-5.81-3.45-11.72-6.85-17.25-10.76-5.3-4-10.88-10-9.83-17.16.38-2.4,1.14-7.57,3.54-8.75,2.2-.78,4.65-.53,6.93-.9a112.63,112.63,0,0,0,14.14-3.25c5.38-1.39,11.42-2.84,14.68-7.79,4.94-6.67,7.29-12.21,3.69-20.21a39.48,39.48,0,0,0-5.5-9c-2.2-2.55-4.59-5-6.61-7.67s-2.28-6.28-2-9.57a6.77,6.77,0,0,1,2.11-4.54,13.72,13.72,0,0,1,3-.93c4.21-1.14,8.58-1.49,12.88-2.11a33.72,33.72,0,0,0,6.45-1.32,74.17,74.17,0,0,0,6.77-3.15c5.12-2.55,10.48-4.66,15.61-7.21,3.48-1.71,6.09-4.63,9-7.13a59.55,59.55,0,0,1,6.48-4.68,32.35,32.35,0,0,1,8.52-4.15c5.68-1.5,11.64-.68,17.44-.78a38.53,38.53,0,0,0,14.07-3.15,25.82,25.82,0,0,0,6.48-3.49,24.92,24.92,0,0,0,5.52-6.9,61.35,61.35,0,0,0,2.69-6.37c2.58-6.41,4.68-13,7.36-19.39.82-2,3.46-8.22,4.07-4.41.09.76.17,1.57.25,2.33.37,3.79.56,7.62.62,11.43a109.15,109.15,0,0,0,.85,12.9c.67,4.88,2.73,9.43,7.88,10.72a30.48,30.48,0,0,0,18.39.63c9-2.72,15.16-10.53,23.54-14.41,8-3.74,13-1.86,20.63,1.68a21.63,21.63,0,0,1,10.38,8.65c1.78,3.6,2.2,7.73,2.77,11.66.51,4.83,0,9.86,1.62,14.53.62,1.88,1.87,3,3.92,2.48s3.94-1,5.88-1.5c3.38-1,6.85-1.81,10.26-2.67,2.52-.6,5.11-1.44,7.73-1.44C731.37,705.18,737.34,710.93,737.45,719Z"/><path class="cls-8" d="M545.91,506.18c0,.31-.27.53-.5.69a9.7,9.7,0,0,1-1.52.74c-1.54.66-3.15,1.27-4.74,1.8a66.75,66.75,0,0,1-17.3,3.4c-5.63.63-11.29,1.34-17,1.55-4.36.3-8.75.16-13.12.31-3.59.06-7.18.52-10.77.69a69.58,69.58,0,0,1-10.39-.69c-5.28-.71-10.55-1.73-15.88-2-3.94-.07-7.86.6-11.8.61a15,15,0,0,1-4.89-.74,25,25,0,0,0-3.32-1.14c-4.49-.89-9.06-1.26-13.59-1.91a47.35,47.35,0,0,1-6-1.25c-2.31-.74-4.62-1.54-7-2.17a48.73,48.73,0,0,0-5.86-1.21c-1.81-.31-3.62-.75-5.42-1.13a75.62,75.62,0,0,1-7.39-2.06c-1.6-.42-7.23-2.28-3.93-3.76a15.08,15.08,0,0,1,6.58-.47,53.66,53.66,0,0,1,8.54,1.36c4.06.93,7.85,2.78,11.93,3.59a36.15,36.15,0,0,0,6.72.7c2.17.11,4.36.27,6.52.41,3.6.26,7.17.9,10.78.91,3.44,0,6.88-.2,10.31-.1,3.22.06,6.43.4,9.62.76,3.47.28,7,.23,10.44.2,5,0,10-.09,14.94.08,3,.08,5.93.55,8.9.81,3.68.32,7.38.31,11.07.34,3.38.08,6.77,0,10.14.27,1.51.13,12.4-.83,13.82-.89,4.93-.46,9.9-1.18,14.87-.82a26.76,26.76,0,0,1,3.89.43C545.09,505.6,545.74,505.68,545.91,506.18Z"/><path class="cls-9" d="M666.1,365.63c.17,2.76-2,4.62-3.83,6.31a44.07,44.07,0,0,1-17.64,9.52c-5.16,1.07-10.34-.83-15.36-1.87-1.15-.24-2.31-.47-3.47-.69a7.83,7.83,0,0,0-3-.16,39.83,39.83,0,0,0-12.54,5.73c-2.63,1.78-5.26,3.63-7.73,5.64-2.89,2.39-5.7,4.94-8.8,7.07a59,59,0,0,1-12.14,6.18,49.33,49.33,0,0,1-11.56,3.4c-5.86.94-11.5-1.58-17.32-1.58-6.14-.1-12.32,1.75-18.39.2-7.21-1.88-13.32-7.07-20.86-7.77a71.35,71.35,0,0,0-10.44.21,135.23,135.23,0,0,0-18.22,2.91c-4.94,1-10,1.76-14.82,3-7.12,1.63-13.86,4.49-20.48,7.5-5.21,2.31-10.45,4.61-15.58,7.09-6.15,3-12.55,5.45-18.64,8.55-4.82,2.52-9.2,5.8-13.81,8.67A190.13,190.13,0,0,0,383,448.85c-6.23,4.66-12.52,9.26-18.78,13.89-1.08.85-2.19,1.71-3.23,2.6a25.12,25.12,0,0,1-2.47,2,57.53,57.53,0,0,1-10,5.95,29.34,29.34,0,0,1-6.44,1.8,10.44,10.44,0,0,1-4.75-.08,13.1,13.1,0,0,1-3.94-2,13.46,13.46,0,0,1-3.62-2.6,55.48,55.48,0,0,1-3.84-6.48c-2.36-4.25-4.87-8.43-7.63-12.43-2.69,2.21-5.86,4.07-9.41,4.26a34.78,34.78,0,0,1-8.15-.5,33.94,33.94,0,0,1-6-1.3c-4.58-1.47-8.21-4.77-12.26-7.24-2-1.28-4-2.59-5.9-4.06a23.51,23.51,0,0,1-6.18-6.28c-1.31-2.16-2-4.62-3.07-6.91-1.35-3.25-3.64-6-5.14-9.16a14.72,14.72,0,0,1-1.51-7.54,17.76,17.76,0,0,1,1.9-5.54,12,12,0,0,1,4.47-3.68,30,30,0,0,1,6.48-1.71c2.65-.59,5.3-1.22,8-1.68,3.15-.59,6.35-1,9.46-1.82a7.59,7.59,0,0,1,2.1-2c1.41-1,3-1.71,4.45-2.62,5.28-3.68,10.38-7.64,15.37-11.7,1.68-1.4,3.14-3,4.71-4.53,3.35-3.13,6.61-6.38,10.13-9.33a82.14,82.14,0,0,1,8-5.83,53,53,0,0,1,6.36-3.68,16.51,16.51,0,0,1,5.8-1.53,14.56,14.56,0,0,1,3.71.51c4.76,1.12,8.12,3.62,13.22,2.14,4.26-1.12,7.69-4,11.37-6.32a42.51,42.51,0,0,1,3.89-2.07,30.7,30.7,0,0,0,3.55-1.74c2.28-1.31,4.4-2.88,6.61-4.3,1.89-1.24,3.86-2.36,5.81-3.53,4.93-3,9.32-6.77,14.2-9.83a60.29,60.29,0,0,1,7.2-3.69c2.15-1,4.26-2.14,6.41-3.15a38.69,38.69,0,0,1,6.38-2.44c1.44-.4,2.91-.74,4.34-1.17,6.1-1.72,12.23-3.38,18.31-5.15,4.61-1.3,9.14-3,13.82-4A67.77,67.77,0,0,1,483,311.29c3.38.14,6.8.38,10.16.85,4.14.58,8.29,1.38,12.47,1.65,5.13.35,10.27.83,15.4,1.16,5.78.47,11.63.78,17.29,2.07a98.65,98.65,0,0,1,19.45,7.29c3,1.49,6,3.26,9.08,4.54a37.81,37.81,0,0,0,11,2.5,146.19,146.19,0,0,0,21.32-1.21c5.22-.58,10.05-2.83,14.68-5.19,3.43-1.83,6.85-3.76,10.31-5.53l.28-.14,11.47-.44a20.75,20.75,0,0,1,7.9,4.56,64.27,64.27,0,0,1,5,6.08,109,109,0,0,1,7.44,11.34,71,71,0,0,1,6.38,13.62C664,358.06,665.82,361.68,666.1,365.63Z"/></g><g id="レイヤー_6" data-name="レイヤー 6"><path class="cls-10" d="M738.35,367.08c.08,1.54-1.71,1.56-2.84,1.52-1.29,0-2.59-.19-3.88-.28-4-.19-8.08-1.19-12.15-.77-1.64.19-3.23.68-4.87.86a55.74,55.74,0,0,0-6.57.75,53.28,53.28,0,0,1-8.63,1.06c-2.84.07-5.69-.13-8.53-.18a23.42,23.42,0,0,0-8.15,1.41c-2.44.95-4.77-.44-6.72-1.84-1.48-1.05-3-2-4.57-3a54.26,54.26,0,0,0-6.17-3.26,29.24,29.24,0,0,0-6.34-1.35,15.92,15.92,0,0,1-6.65-2.79,29.58,29.58,0,0,1-3-2.1c-1.14-1-2.18-2.08-3.22-3.16-.76-.83-1.59-1.61-2.3-2.48a18.58,18.58,0,0,1-1.82-3.55,21.73,21.73,0,0,1-1.92-6,20.45,20.45,0,0,1,.15-4.69,13.07,13.07,0,0,0,.28-3.63c-.28-3.38-3.46-5.3-5.5-7.64-1.12-1.29-2.23-2.6-3.31-3.93a14.71,14.71,0,0,0-4.23-3.94c-2.09,1.37-4.33,2.49-6.5,3.72-1.7.93-3.29,2.06-5,3.05-2.65,1.56-5.57,2.62-8.12,4.36-4.68,2.91-8.92,6.46-13.6,9.35-2.87,1.7-6.07,3.18-9.47,3-5.54-.13-11.08-.24-16.62-.26h-5.9a32.54,32.54,0,0,1-4.63-.18c-3.48-.59-6.74-2.05-10.06-3.18-2.84-1.1-6-1.68-8.47-3.49a6.73,6.73,0,0,1-3.15-.86c-1.54-.72-3-1.56-4.62-2.2A96.65,96.65,0,0,0,515,326.58c-3.78-1-7.57-1.93-11.39-2.68a102.32,102.32,0,0,0-10.34-1.07c-2-.1-4-.14-6-.17-2.2.73-4.44,1.41-6.66,2.07a98.72,98.72,0,0,0-15.28,6.58c-5.46,2.79-8.16,4.7-14.62,4.48-2.93,0-5.86.31-8.79.47-2.24.14-4.49.12-6.72.38-1.85.2-3.67.66-5.5,1-2.3.49-4.64.93-6.93,1.48-3.39.79-6.86,1.32-10.07,2.7a37.82,37.82,0,0,1-5.66,2,27.91,27.91,0,0,1-8.26-.21,23.6,23.6,0,0,1-5.11-1.27,22.39,22.39,0,0,1-6.18-4c-2.53-2.53-4.31-5.7-6.16-8.73-1.65-2.62-2.58-5.66-4.49-8.12s-4.38-2.8-7.34-2.61a68.73,68.73,0,0,0-10,1.33,23.39,23.39,0,0,0-5.31,1.73c-3.7,1.5-7.29,3.26-10.82,5.11-6.8,3.38-14,5.8-20.82,9.21C317.32,339,312,341.53,307,344.44c-2.07,1.27-4.14,2.56-6.15,3.93a20.16,20.16,0,0,1-5.36,2.94,4.92,4.92,0,0,1-1.42.24,1.15,1.15,0,0,1-1.27-.75,7.24,7.24,0,0,1,.35-2.35,29.18,29.18,0,0,1,1.4-4.17,51.93,51.93,0,0,1,3.4-6.43,72.82,72.82,0,0,1,7.25-10.29,54.21,54.21,0,0,1,9.5-8.32,100.85,100.85,0,0,1,12-7.33c2.67-1.48,5.66-2.16,8.5-3.19,4-1.38,7.94-2.85,11.93-4.22a106,106,0,0,1,16-5.22c1.78-.07,8.37-4.95,10.12-5.22,3-.86,6-1.85,9-2.7,2.82-.69,5.66-1.36,8.52-1.79,3.09-.4,6.21-.59,9.26-1.21,4.5-.84,8.94-2.05,13.48-2.67a199.33,199.33,0,0,1,24.29-1.84c1.56,0,3.16,0,4.71,0a14,14,0,0,0,2.75-.06c4-.83,8-1.93,12.11-2.15s8.2.18,12.3.1a49.6,49.6,0,0,0,9.7-1.28,50.72,50.72,0,0,1,15.19-1.06c5.77.52,11.52,1.39,17.32,1.61a94.71,94.71,0,0,0,12.38,0c6.29-.65,12.67-1.54,19-.5a60.7,60.7,0,0,0,7.56,1.11,92.19,92.19,0,0,1,10.1-.91,27.88,27.88,0,0,1,7,.25c1.54.26,3.05.68,4.57,1a30.93,30.93,0,0,0,4.29.58c1.76.13,3.54.14,5.3.24s3.25.3,4.87.37a77.39,77.39,0,0,1,9.74.82,59.18,59.18,0,0,0,7.59,1.15c4.28.53,8.58.9,12.82,1.67a54.68,54.68,0,0,1,8.32,2.34,15.44,15.44,0,0,1,1.9,1l.29.2.28.19.12.08.62.13c2.1.49,4.1,1.34,6.19,1.89,1.57.53,3.09,1.25,4.71,1.65,2.47.82,5.08,1.14,7.55,2,2,.58,3.87,1.73,5.87,2.46,1.73.67,3.43,1.46,5.21,2,1.46.5,2.85,1.18,4.3,1.72,1.73.67,3.38,1.54,5.08,2.29s3.42,1.37,5.14,2c2.85,1,5.68,2.13,8.47,3.3,1.25.48,2.53.89,3.74,1.47,2.41,1.2,4.64,2.72,7.11,3.81,2.83,1.27,5.73,2.39,8.51,3.78a52.6,52.6,0,0,1,4.85,3.12c2.28,1.59,4.64,3.07,6.77,4.85,1.77,1.44,3.19,3.25,4.88,4.79,2.81,2.62,5.68,5.19,8.31,8a32.35,32.35,0,0,1,5.55,7,62,62,0,0,1,3.56,7.45c.51,1.44,1,2.91,1.52,4.34A38.69,38.69,0,0,1,738.35,367.08Z"/><path class="cls-11" d="M836.61,556.79c-.09,2.8-.38,7.49-3.18,8.82-1.48.43-3-.32-4.35-.75a55.06,55.06,0,0,0-5.61-1.73c-4.71-1.18-9.11-3.29-13.64-5a30.89,30.89,0,0,0-7.32-1.48c-3.13-.35-6.29-.53-9.41-1-3.35-.53-6.65-1.34-10-2.12-3.16-.76-6.35-1.46-9.44-2.51s-5.8-2.35-8.67-3.59a39.41,39.41,0,0,0-9.07-2.81,84.61,84.61,0,0,1-11.67-3,69,69,0,0,1-8.24-4,44.69,44.69,0,0,0-9.24-3c-3.3-.92-6.62-1.74-9.9-2.72-1.87-.51-3.83-.61-5.69-1.13a20.76,20.76,0,0,1-2.4-1,19.46,19.46,0,0,0-5.15-.78,22.79,22.79,0,0,1-6.24-1.16,49.3,49.3,0,0,1-7.47-3.12,41.12,41.12,0,0,0-10.75-4.73c-6.3-1.69-12.91-1.72-19.23-3.3-2.29-.52-4.52-1.28-6.76-2-2.76-.83-5.56-1.59-8.33-2.38-5.32-1.62-10.74-3-15.88-5.17a23.47,23.47,0,0,1-6.3-3.52,12.13,12.13,0,0,1-2.31-3.74,8.93,8.93,0,0,0-2.42-3.47,14.88,14.88,0,0,0-2.86-1.54c-1.39-.66-2.85-1.16-4.27-1.75-3-1.14-3.25-3.92-3.6-6.77a25.69,25.69,0,0,0-1.88-7.1c-.45-1.2-1.39-2.14-1.9-3.32A26.54,26.54,0,0,1,601.11,460c.9-8.15,2.18-12.72,8.79-18.06a8.36,8.36,0,0,1,6.7-1.94c2,0,4,0,6,0,1.58-.14,7.26.28,6.9-2.31a19.84,19.84,0,0,0-.69-2.73,13.74,13.74,0,0,1-.67-2.33,8.33,8.33,0,0,1,.3-3.33,6.11,6.11,0,0,1,5.26-5,26.33,26.33,0,0,1,5-1,51.25,51.25,0,0,1,5.68,0c2.34,0,4.69-.16,7-.36,1.29-.09,2.58-.3,3.86-.37h.24l7.1-1.54c1.86-.17,3.74-.3,5.61-.34,12.25-.39,21,2.3,32.1,7.09A79.41,79.41,0,0,0,712.44,432a84.82,84.82,0,0,1,17.35,5.86A98,98,0,0,1,740,443.13c8.85,5.52,16.33,12.9,24.83,18.91,3.91,2.73,7.74,5.6,11.42,8.63,1.92,1.62,3.71,3.41,5.66,5,2.26,1.86,4.66,3.53,6.88,5.43a105.78,105.78,0,0,1,10.35,9.84,59.62,59.62,0,0,0,6.51,6.69c2.1,1.87,4.36,3.55,6.47,5.41a40.08,40.08,0,0,1,8,9.62c1.74,2.9,3.43,5.85,5.27,8.69,1.68,2.63,3.55,5.14,5.16,7.81a15.05,15.05,0,0,1,2,6.4,66.15,66.15,0,0,0,.86,6.58c.46,1.94,1.2,3.81,1.66,5.75A43.6,43.6,0,0,1,836.61,556.79Z"/><path class="cls-5" d="M686.5,540.61l1.11-.9-3.49-11.24a8.89,8.89,0,0,1-1.35,2.85,12.51,12.51,0,0,1-4.59,4.26c-5.13,3.27-10.33-1.81-13.66-5.41-2.73-3-4.82-6.78-8.47-8.75-5-2.69-8.19,2.81-8.41,7.23-.25,4.65,1,9.21,1.46,13.81.11,4.22-.73,7.29-3.88,10.23-2.13,2.23-5,3.37-7.7,4.79a49.79,49.79,0,0,1-9.09,4,19.57,19.57,0,0,1-6.29.46c-8-.8-12.35-4.1-20,1.07-4.9,3-7.76,8.08-11.09,12.55a32.06,32.06,0,0,1-5.37,5.55c-3,2.75,4,.67,4.93.47a83.19,83.19,0,0,0,9.46-3.14,94.53,94.53,0,0,0,12.75-6.72,40,40,0,0,1,5.47-2.86c2.56-1.21,5.15-2.39,7.74-3.54,3.39-1.5,6.91-2.73,10.34-4.13a97.82,97.82,0,0,1,9.44-2.89c9.14-2.36,18.51-4.25,27.06-8.38A71.92,71.92,0,0,0,686.5,540.61Z"/><path class="cls-5" d="M671.75,691.77c-.94-1.66-3.56.44-4.74,1-1.43.92-2.56,1.42-2.94-.76-.47-3.19.21-6.46-.15-9.65-.3-1.18-1.64-1.36-2.6-1.76-1.55-1-.78-3.11-.46-4.54.45-1.69,1-3.4,1.52-5.08a32.89,32.89,0,0,0,1.28-7.09,21.48,21.48,0,0,0-.19-6.93c-.82-3.46-3.68-6-4.86-9.3a34.54,34.54,0,0,1-1.5-6.68,69.77,69.77,0,0,1-.93-7.34c.16-1-2.24-12.53-2.44-13.79a29.83,29.83,0,0,0-10.06-3.77c-6.43-1.31-3.26,8.63-2,11.76,2.68,6.59,6.7,13.15,6.09,20.54-.9,7.79-3.43,15.46-3.24,23.35.17,3.47,1.24,6.81,1.7,10.23.19,2.25.59,7.08-3,5.9-1.39-.39-2.71-1.25-4.19-1.25a6.77,6.77,0,0,0-6.12,5.75c-.45,2.76.44,5.51,1,8.2.64,2.88,1.21,5.89.66,8.83a30.63,30.63,0,0,0-1.28,5c.19,4.45,4.25,7.44,5.57,11.52,1.84,4.65,1.61,9.76.85,14.63-.24,1.77-.54,3.56-.76,5.34-.06.5-.14,1.06-.18,1.57,0,.29-.08.73.18.93H639a10.88,10.88,0,0,0,2-2.78c1.25-2.12,2.63-4.39,4-6.44,5.11-7.27,10.22-14.62,15.18-22,1.75-2.57,3.76-5,5.37-7.69a59.7,59.7,0,0,0,4.19-9.21c.61-1.65,1.17-3.39,1.63-5.08C671.59,694.11,672.1,692.91,671.75,691.77Z"/><path class="cls-5" d="M762,641.61c-.06-2.67-1-6.66-4.54-5.67-2.59.94-4.3,3.43-5.89,5.56-1.44,2.19-5.66,11.72-7,13.81-2.19,4-4.56,7.9-6.91,11.79-1.86,2.74-3.24,6.56-6.64,7.69-2.78.91-5.79-.48-7.58-2.65-2.46-3-3.49-6.91-5.18-10.36-1-1.81-3.22,1-4.27,1.58-4.13,3.33-5.52-5.46-6.35-8a23.37,23.37,0,0,0-1.85-5.37c-1.76-1.71-3.81,3.42-4.35,4.61a88.11,88.11,0,0,0-3.07,10.57c-1.31,4.88-2.46,9.83-3.54,14.77-.81,3.69-1.66,7.4-2.66,11-.93,3.39-2,6.76-2.69,10.2-.55,2.74-.69,5.53-1,8.3a74.37,74.37,0,0,1-1.67,7.53c-.5,2.24-1.3,4.52-.91,6.83a42.71,42.71,0,0,0,1.61,6.44c.7,2.22,1.88,4.21,4.5,4.14a14.81,14.81,0,0,0,6-1.92c2-1,4-2.13,5.94-3.21,1.76-.89,3.62-2.42,5.71-1.68a25.57,25.57,0,0,1,2.55,1c2,.68,4.08,0,6.09-.14,5.09.24,1.23,9.15.28,11.86-1.86,4.31-4,8.48-6,12.73-.57,1.24-1.17,2.5-1.72,3.75-.39.85-1.35,2.87.82,2.06,2-.92,3.34-2.69,4.82-4.2,2.24-2.44,4.39-5,6.7-7.38A100.93,100.93,0,0,0,733.33,735a57.92,57.92,0,0,0,7.75-13.81,171.72,171.72,0,0,0,6-17.58c2.47-7.86,4.42-15.87,6.46-23.84.63-2.72,1.21-5.46,1.91-8.16s1.68-5.54,2.51-8.3a112.12,112.12,0,0,0,3-12.5A46.45,46.45,0,0,0,762,641.61Z"/><path class="cls-12" d="M297.46,690.64a11.57,11.57,0,0,0-2.58-6.17,16.51,16.51,0,0,1-3-5.52c-1-4-.53-8.14-.83-12.19-.22-5.83-1.39-11.92-4.76-16.79-2.11-2.88-5.13-4.92-7.68-7.36-4.27-4.16-6.09-11.79-8-17.38-2.65-9.08-3.36-18.63-4.48-28-1.47-12.45-1.92-25.21.84-37.52,2.42-11,3.78-16.94,0-28.13-2.69-8-7.73-14.88-12.11-22a65,65,0,0,1-8.3-24.26c-.71-5.75-.43-11.64-.45-17.42-.1,1.46-2.21,12.42-2,13.44-.11,2.17-.32,4.37-.63,6.52a89.54,89.54,0,0,0-1.39,13.47c0,9,0,18,.85,26.93.54,6.05.8,12.14,1.62,18.16.5,3.86.8,7.75,1.12,11.62.16,4.4.25,8.81.82,13.18.71,7.88.61,15.81,1.24,23.7.24,2.86.85,5.69,1.18,8.54a94.91,94.91,0,0,0,1.66,10.75c1.72,8,3.42,16,5,24.06.89,5.49,1.81,11,2.6,16.48,1.29,7.58,4,14.83,5.85,22.28,1.15,4.64,2.79,9.14,4.27,13.68a71,71,0,0,0,3,8.26,38.83,38.83,0,0,0,4.83,7.28c1.86,2.25,4.3,3.93,6.39,6,1.76,1.49,7.28,8.15,9.05,6.43A3.53,3.53,0,0,0,292,717c0-.7.05-1.43.08-2.12a47.75,47.75,0,0,1,3.7-17.52C296.57,695.19,297.62,693,297.46,690.64Z"/><path class="cls-12" d="M708,769.06c-.32-4.68-6.21-1.07-8.53-.07s-4.67,2-7,3.14-4.74,2.26-7.15,3.29a25.4,25.4,0,0,0-4.13,2.48c-2.61,1.7-5.25,3.39-7.78,5.21a35.41,35.41,0,0,0-3.74,3.4c-1.48,1.46-3,2.87-4.64,4.18-4,3.25-8.49,5.71-12.65,8.68-3.47,2.29-6.4,5.3-9.84,7.64a107.54,107.54,0,0,1-10.54,5.63c-3.55,1.78-7.07,3.7-10.7,5.34A39.88,39.88,0,0,1,612,820.9a70.7,70.7,0,0,1-9.71,1.59c-15.38,1.69-15.3-4.16-27.47-3.94-5.3.25-10.54,1.5-15.83,1.86a53.61,53.61,0,0,1-11-.59c-1.89-.52-3.89-1.73-5.76-2.36-6-2.34-12.43-3.81-18.68-5.34-10.52-2.82-21.46-3.66-32.15-5.47-5.5-1-11-2.51-16.41-4.06a66.85,66.85,0,0,1-17.86-7.68c-.12,0-9.71-8.92-10-8.17-5.17-1.52-10.26-3.38-15.3-5.28-5.36-1.84-11.08-3.56-16.78-2.35-3.55.7-7,1.88-10.64,2.3-8.26,1.26-13.44-.92-20.67-4.52-6.78-3.21-13.14-7.45-20.47-9.31-14.86-3.44-30.44-2.79-41.64-15.08a89,89,0,0,1-5.83-6.73c-.53-.67-1.11-1.37-1.65-2a3.55,3.55,0,0,0-1.7-1.29c-2.44-.53-2.34,6.95-2.34,7.44a18.48,18.48,0,0,0,1.22,5.76,37.39,37.39,0,0,0,6.84,12.1c3.35,4.11,7,8,10.64,11.84a64.54,64.54,0,0,1,9.22,11.8c1.38,2.44,2.49,5.06,4,7.44a69.11,69.11,0,0,0,4.93,6.73c1.3,1.46,2.8,2.77,4.21,4.12,3.37,3.07,6.39,6.53,9.95,9.4s7.29,5,10.9,7.48c3.81,2.74,7.44,5.77,11.42,8.28,2.76,1.54,5.78,2.62,8.52,4.21,7.23,4.28,14,9.38,21.27,13.55a33.28,33.28,0,0,0,7.7,2.91c2.44.78,5,1.28,7.44,2a52.26,52.26,0,0,1,8.49,3.1c4.69,2.15,9.51,4,14.26,6,2.42.92,4.86,1.78,7.35,2.48,2.11.59,4.27,1,6.4,1.51a59.1,59.1,0,0,0,6.73,1.27c2.91.36,5.85.51,8.75.87,4.55.52,9.07,1.48,13.67,1.39a75.44,75.44,0,0,0,10.06-.86,95.3,95.3,0,0,1,10.94-.65,79.88,79.88,0,0,0,17-1.46,32.66,32.66,0,0,0,6.94-2,35.51,35.51,0,0,0,7.38-4.67,144,144,0,0,0,16.46-1.64q9-1.64,17.84-3.88c3.31-.8,6.66-1.47,9.94-2.42,7.65-2.12,15.32-4.22,22.85-6.72,3.28-1.27,6.51-2.7,9.72-4.15a66.23,66.23,0,0,0,7.37-3.5c3.12-1.73,6.13-3.66,9.09-5.64,2.35-1.69,4.64-3.48,7-5.19,4.44-3.46,9.22-6.54,13.34-10.39,2.86-2.63,5.31-5.68,8-8.53,2.14-2.25,4.56-4.24,6.88-6.31,7-6.23,14.08-12.38,20.67-19.05a70.67,70.67,0,0,0,8.59-9.54C705.89,775,708,772.31,708,769.06Z"/><path class="cls-13" d="M379.15,461.79c3.28,4.06,9.39-1,12.51-3.11a22.48,22.48,0,0,1,6.16-2.82,41.29,41.29,0,0,1,7.85-2.07c3.21-.44,6.51-.27,9.7-.89,1.72-.29,3.46-.68,5.19-.95s3.39-.46,5.05-.85a36.87,36.87,0,0,0,8.38-2.74c1.19-.57,0-1.92-.53-2.55a17.31,17.31,0,0,0-2.48-1.95,10,10,0,0,0-1.58-.92l-.51-.2c-.11-.05-.32-.07-.32-.22a67.32,67.32,0,0,1,13.13-6.12c3.26-.93,6.69-1,10-1.52a30.6,30.6,0,0,0,7.46-1.51c1-.42,2.31-.73,2.72-1.83.39-2.61-6.28-2.12-8-2.22a40.57,40.57,0,0,0-8.16.6c-4.83,1.1-9.42,3.11-14.23,4.26a46.32,46.32,0,0,1-5,.65,13.36,13.36,0,0,0-4.63,1.79c-1.71.89-3.41,2.25-5.44,2.06-.58-.09-.83-.74-.86-1.27-.09-1.59,1.13-2.86,2.22-3.87a29.74,29.74,0,0,1,9.25-5.43c2.28-.8,4.7-1.25,7.05-1.83,4.34-1.14,8.85-1.19,13.27-1.74,2.48-.33,5-.34,7.51-.57a34,34,0,0,0,6.33-1.6,31.55,31.55,0,0,0,11-5.53c2.07-1.95,2.12-4.31-.69-5.57a11.77,11.77,0,0,0-5.56-.53c-.31-.4-6.66,3.1-7.07,3.28a33.14,33.14,0,0,0-12.32.15,55.69,55.69,0,0,0-7.88,1.54c-2.31.73-4.5,1.84-6.8,2.59-2.61.87-5.28,1.57-7.85,2.56a8.44,8.44,0,0,0-5.12,5c-.45,1.4-2,1.91-3.17,2.47a38.55,38.55,0,0,0-4.28,2.22c-.57.36-1.15.74-1.7,1.14s-1,.77-1.58.61a29.7,29.7,0,0,1-2.85-1.21c-2.05-.8-4.64-1.54-6.53,0-1.54,1.24-.86,3.48-1.12,5.2a8.07,8.07,0,0,1-1.95,4.45c-.93.89-2.29.91-3.41,1.41a17.26,17.26,0,0,0-4.74,3.59,26.06,26.06,0,0,0-2.82,3.93,69.12,69.12,0,0,0-4.33,7.38c-.41.78-.82,1.58-1.2,2.38a5.36,5.36,0,0,0-.41,1.07A2,2,0,0,0,379.15,461.79Z"/><path class="cls-13" d="M478.42,339.76a2.1,2.1,0,0,0,1.61,1.47c2.3.6,4.56-.61,6.71-1.29a44.77,44.77,0,0,1,6.43-1.7,9,9,0,0,1,3.1-.06c1.68.37,3.31,1,5,1.32a10.77,10.77,0,0,0,4.7.48c1.4-.3,2.76-.81,4.19-1,1.69-.27,3.43-.18,5.13-.47,1-.09,1.81-.89,1-1.84-1.5-1.5-3.73-2-5.57-2.93-1.6-1.28-7.15-.08-9-.76-2.76-.47-5.59-.7-8.37-1-3.61-.47-6.73-.44-9.92,1.55C481.67,334.72,478.16,337.43,478.42,339.76Z"/><path class="cls-13" d="M616.45,374.22c2.09-.16,4.27-.05,6.28-.69,1.67-.59,3.41-1.73,3.94-3.5.62-3.21-1.29-6.25-1.58-9.41-.33-1.7-.09-3.54-.69-5.18-1.11-2.28-3.95-.89-5.32.39-1,.8-1.78,1.86-2.81,2.62-2.65,1.63-6-1-8.49-2.05a14.85,14.85,0,0,0-5.84-2c-4.05-.09-3,.7-6.67-1.68-1.8-1.08-4-1.95-5-3.87a10.48,10.48,0,0,1-.6-2.53c-.62-4.92-14.43-3.61-18.27-3.95-2.32-.1-4.56-.92-6.88-1-3.31,0-6.69.23-9.87-.9-1.72-.6-3.53-.95-5.23-1.62-.7-.26-1.38-.64-2.06-.94-1.61-.58-3.26-1.06-4.86-1.66a19.34,19.34,0,0,1-2.28-1,7.9,7.9,0,0,0-1.22-.71,5.44,5.44,0,0,1-2.11-.46c-2.3-1-4.48-2.28-6.85-3.14a99.81,99.81,0,0,0-12.46-3.75c-2.76-.55-5.47-1.38-8.22-2l-2.46-.59c-.3.08-.81.14-1.12.22s-.94.16-1.36.29c-.18.08-.51.16-.53.4.21.28.73.28,1,.36.85.11,1.76.19,2.61.29,6.91.64,9.49,3.18,14.74,7.05a29.8,29.8,0,0,0,7.84,4.2c1.39.47,2.87.7,4.25,1.21s2.77,1.34,4.17,2a29.67,29.67,0,0,0,4.42,1.45c1.23.35,2.45.85,3.67,1.25,2.51.94,5.41.69,7.82,1.87.9,1.08-3.91,1.65-4.59,2a50.94,50.94,0,0,0-5.48,1.94c-.86.45-2.93,1-2.3,2.27,2.35,2.63,10.21,1.6,13.51,1.17a81,81,0,0,1,9.2-.82,79.49,79.49,0,0,1,11.94.7c2.18-.19,4.32-1.24,6.54-.66a5.78,5.78,0,0,1,3.36,2c1.26,1.22.81,1.89-.7,2.46-1.72.61-3.58,1-5.34,1.43-9.5,2-11.95,5-15,14-1.08,3.54-2.23,8,.85,10.92,1.45,1.42,3.21,2.53,4.75,3.84,3.85,3.24,6.07,6.64,11.58,3.9,3.1-1.51,4.95-4.5,7.06-7.07a28,28,0,0,1,5.56-4.5c1.23-.74,2.6-1.22,3.89-1.83,1.12-.52,2.21-1.1,3.38-1.51a14.54,14.54,0,0,1,3.35-.6C609.44,374.6,613,374.37,616.45,374.22Z"/><path class="cls-13" d="M543.13,386.77a6.27,6.27,0,0,1,2-3.14c1.09-1.09,2.3-2.16,3.43-3.21a82.36,82.36,0,0,1,6.29-5.36,24.17,24.17,0,0,0,4.89-4.36c3.08-3.72-.25-2.89-2.76-1.74a53,53,0,0,0-6.08,3.47,37.68,37.68,0,0,1-4.28,2.1c-.17.4-6.54.27-7,.33-3.28-4.47-6.48-5.69-11.51-2.92-2.64,1.1-1.61,3.7-.65,5.68.89,1.69,2.22,3.12,3.25,4.73a15.76,15.76,0,0,1,2.25,5,4.22,4.22,0,0,1-1.34,3.48c-.58.64-1.24,1.25-1.83,1.88a3,3,0,0,0-1,1.67c0,1.12.83,2,1.23,3,1.31,2.83,0,5.12-2.19,7-.4.48-1.72,1-1.06,1.75a3.07,3.07,0,0,0,1.88.43,24.48,24.48,0,0,0,3.4-.42c3.79-.76,7.71-.6,11.51-1.31a6.55,6.55,0,0,0,2.91-1.08c1.65-1.63,1.3-4.31.64-6.33-.78-2.28-2-4.4-3-6.6C543.69,389.52,542.91,388.19,543.13,386.77Z"/><path class="cls-13" d="M615.23,387.25c-5.22-4.71-11.53-4.24-16.56.47-3.33,3.36-5.47,7.7-8.58,11.25-1.34,1.47-3,3-5.07,3.17a22.14,22.14,0,0,0-5.54.92,40.67,40.67,0,0,1-5.81,1.51c-1.62.22-3.29.27-4.89.62a15.29,15.29,0,0,0-5.64,2.41c-2.43,1.56-3.69,4.22-5.45,6.4a21.5,21.5,0,0,1-6.45,5.23,13.67,13.67,0,0,0-2.7,1.61,27.24,27.24,0,0,0-3.75,4.06,13.25,13.25,0,0,1-1.94,2,16.46,16.46,0,0,1-5.67,2.18c-1.95.44-3.82,1.16-5.74,1.66a43.56,43.56,0,0,1-5.23.57,12.9,12.9,0,0,0-4,1.08,15,15,0,0,0-3.72,2.34c-1.17,1.22-2.17,2.62-3.41,3.78a15,15,0,0,1-1.52,1.35,10.7,10.7,0,0,1-3.32,1.26c-2.88.69-5.88.38-8.74,1a27,27,0,0,0-3,1.47c-1.94.82-4.1.46-6.09,0s-3.8-.77-5.67-1.18a23.61,23.61,0,0,0-13.32.52,61.53,61.53,0,0,0-9.12,4.18,6.31,6.31,0,0,0-2.11,2.33,3,3,0,0,0-.48,1.43,2.15,2.15,0,0,0,.51,1.3,5.11,5.11,0,0,0,3,1.61,27.7,27.7,0,0,0,4.89.52,54.74,54.74,0,0,1,12.43,1.49l2.15.55a2.09,2.09,0,0,1,1.69,1.09c.69,1.31.58,2.87,1.14,4.22,1.26,2.86,6.33,3.8,8.95,5.22,3.53,2,7.23,2.17,11.18,2a65,65,0,0,0,9.76-.52c5.77-.67,10.63-4.1,16-5.91,4.44-1.43,9.27-.59,13.66.63,3.36.95,6.6,2.43,10.12,2.74a33.71,33.71,0,0,0,4.49.26c1.35,0,2.7-.25,4-.35.86-.06,1.73-.15,2.59-.27a3.55,3.55,0,0,0,1.84-.62,11.65,11.65,0,0,0,1.7-1.81,5.17,5.17,0,0,0,1.07-1.93,9.12,9.12,0,0,0-.28-4c-.36-1.46-.8-2.91-1.17-4.37-.42-1.66-1.14-3.23-1.68-4.85a10.73,10.73,0,0,0-.44-1.24c-.82-1.16-2.5-1.17-3.79-1.15-3.53.19-7.2,1.27-10.64,0-1.14-.48-2.47-1.34-2.71-2.65,0-2.26,4.4-4.34,6.22-5.27a23.65,23.65,0,0,1,5.5-1.54,38.4,38.4,0,0,1,6.63-1.35c1.67-.32,2.39-2.16,3.27-3.41a44.81,44.81,0,0,1,7.88-9.79c1.36-1.31,2.78-2.57,4.11-3.9.9-.9,1.73-1.87,2.66-2.73s2.07-2,3.18-2.89a58.47,58.47,0,0,0,5.11-3.72c3.39-3,6.76-6.06,10.26-8.94,1.32-1,2.61-2,3.9-3.06s2.62-1.74,3.87-2.67l.61-6.17Z"/><path class="cls-13" d="M439.64,479.43c.05-3.46.47-7.68-2.65-10-3.57-2.88-6.6,1.11-8.86,3.61-.73.78-1.62,1.9-2.82,1.54s-2.22-1.39-3.53-1.55a9.51,9.51,0,0,0-4.69,1.08c-1.88.81-3.74,1.73-5.58,2.6a11.75,11.75,0,0,1-4.32,1.41c-2.89,0-5.4-1.75-8-2.72a33.73,33.73,0,0,0-7-1.76c-.72-.13-1.46-.26-2.18-.37a3,3,0,0,0-1.37,0c-1.71.88-2.52,2.89-3.3,4.55a7.13,7.13,0,0,0,.07,7c1,1.76,1.8,3.7,3.35,5,4.2,3.64,10.73,2,15.83,2,3,0,6,.3,9,.51,2.11.19,4.18.67,6.28.91a154.32,154.32,0,0,0,15.78,1.23,19,19,0,0,0,8.18-1.2,44.82,44.82,0,0,0,9.4-5.82c3.6-2.91,6-7.13,8.19-11.12a21,21,0,0,0,2-5.41,6.26,6.26,0,0,0,.1-1.43l0-.28-2.79-5.54c-5.39,3.82-7.2,10.2-10.92,15.33a25.23,25.23,0,0,1-6.8,6.59c-.59.37-1.17,1-1.91,1C439.22,486,439.74,481.11,439.64,479.43Z"/><path class="cls-13" d="M527.18,576.9c-.27-2.71-2.06-5-4-6.81.47-1-12.2-3.22-12.62-3.44a97.69,97.69,0,0,0-14.34-2c-7-.27-14.05.21-21.06.34-5.67,0-11.34-.33-17-.42-6.14,0-12.29-.14-18.42-.46-4.27-.19-8.57,0-12.84-.25-6-.57-11.9-2-17.86-2.89-4.28-.87-8.67-1.14-13-2-1.91-.38-3.75-1-5.63-1.51a45.59,45.59,0,0,0-7.7-1.24c-.68-.06-1.39-.13-2.08-.17s-1.3-.06-1.56.53c-.29,1.73,3.09,3.26,4.4,3.88,5.62,2.26,11.64,3.36,17.41,5.2a52.81,52.81,0,0,0,13.75,3.09c5.88.49,11.84-.08,17.71.54,7.09.8,14.12,2.28,21.26,2.63,3.21.35,9.22.71,11.5,3,2.75,3,.43,6-2.86,7.07s-6.83.4-10.21.18c-6.6-.72-13.22.08-19.79.73a131.74,131.74,0,0,1-13.32.46,93,93,0,0,1-20.8-2.9,32.81,32.81,0,0,0-6.69-.75,6.35,6.35,0,0,0-2.22.31c-2,1.29,0,5,.87,6.57a61.76,61.76,0,0,0,4.82,5.78,24.44,24.44,0,0,0,10.12,7.12,28.32,28.32,0,0,0,7.41,2.19c5.56.48,11.19-.52,16.61-1.72,8.52-2.22,10.57-1.15,18.81.63a42.49,42.49,0,0,0,12.35,1.14c5.42-.59,10.87-1.32,16.27-2.08,4.53-.71,9-1.84,13.54-2.61a106.94,106.94,0,0,1,14.37-1.73c3.62-.23,7.35.07,10.9-.83a16.39,16.39,0,0,0,7.12-4,16.8,16.8,0,0,0,3.12-3.56,13.74,13.74,0,0,0,1.3-4.59A28.46,28.46,0,0,0,527.18,576.9Z"/><path class="cls-13" d="M696.22,552.08a14,14,0,0,0-3.29,1.4c-1.91,1-3.91,1.88-5.89,2.69-5.12,2-10.08,4.73-15.61,5.36a82.87,82.87,0,0,1-9.57.67,74.81,74.81,0,0,0-9.7.3c-3,.26-5.93,1.4-8.87,2.14a41.72,41.72,0,0,0-7.4,2.19c-2.24,1.32-3.69,3.61-5.08,5.73-.74,1.31-1.17,2.79-1.91,4.1a11.26,11.26,0,0,1-4.33,4.22c-1.61,1.08-3.26,2.14-4.84,3.26a9.31,9.31,0,0,0-2.67,3.08c-.6,1.13-1.94,2.79-.63,3.88a4.16,4.16,0,0,0,2.94.44,25.91,25.91,0,0,0,3.47-.77c1.17-.32,2.42-.89,3.62-.37s1.51,1.83,1.8,2.91c.59,2.92.28,6.71,4.48,6.18,4.75-1,11-5.63,12.08-10.57a11.16,11.16,0,0,0,0-5c-.89-3-.42-4.36,2.29-6a9.24,9.24,0,0,1,8.11-.72c8.09,3.1,16.21,2.42,20.59-5.92a17.21,17.21,0,0,1,4-5.61,24.3,24.3,0,0,1,6.17-4.65c1.65-.23,9-7.94,10.26-9Z"/><path class="cls-14" d="M288.8,443.76c.68,1.53,1.47,3,2.26,4.49a7.87,7.87,0,0,0,2.76,3.31,25.36,25.36,0,0,1,3,2c2.48,2,4.63,4.31,7.25,6.09,2.7,1.58,5.06,3.69,7.77,5.25,2.23,1.26,4.56,2.35,6.87,3.45,1,.5,1.9,1.08,2.91,1.51,1.21.53,2.48,1,3.7,1.46,1.46.58,2.88,1.28,4.28,2a14.4,14.4,0,0,0,3.06,1.29.77.77,0,0,0,.8-.14,1.5,1.5,0,0,0,.33-1.14c-.32-2.37-1.91-4.35-3.16-6.32-5.87-8.38-12.41-16.3-18.05-24.84-5-7.61-8.84-15.87-13.62-23.58-1.9-3.12-4-6.1-6.11-9.09s-3.94-5.76-5.9-8.62a66,66,0,0,0-4.12-8,80.93,80.93,0,0,0-5-8c-1.65-2.4-3.28-4.82-5.12-7.08a106.34,106.34,0,0,1-6.13-8.75c-1.77-2.77-3.32-5.68-5-8.52-1.07-1.77-2.26-3.47-3.35-5.23-1.22-1.93-2.23-4-3.37-6s-2.29-3.74-3.48-5.57c-3.36-5-7.07-9.64-10.57-14.48-1.72-2.34-3.28-4.8-5-7.13a105.17,105.17,0,0,0-7.4-9.17,55.49,55.49,0,0,0-5.71-9.7c-2.49-3.28-5.38-6.28-7.58-9.78-2.88-4.32-6-8.5-8.8-12.88-2.31-3.33-4.74-6.61-6.87-10.07-4.44-7-8.27-14.43-13.34-21-2.38-3.33-5.06-6.44-7.45-9.75-2-2.91-3.64-6.08-5.67-9-2.89-4.21-5.67-8.53-8.58-12.72-1.17-1.72-2.52-3.51-3.66-5.25-.86-1.59-1.83-3.13-2.68-4.73a68.91,68.91,0,0,0-3.62-6.36c-1.19-1.74-2.54-3.38-3.81-5.07s-2.94-3.52-4.4-5.28c-1.17-1.46-2.22-3-3.28-4.58-2.24-3.29-4.48-6.59-6.92-9.74-1.77-3-3.6-5.93-5.55-8.79-1.15-1.62-2.22-3.3-3.27-5-.79-1.2-1.64-2.39-2.36-3.65a15.57,15.57,0,0,0-3.49-4.67,11.63,11.63,0,0,0-3.23-1.71c-.64-.28-1.28-.61-2-.86a2.93,2.93,0,0,0-1.39-.27,3.63,3.63,0,0,0-2,1.22l-.2-.11a41.09,41.09,0,0,0-7.22,5.43,6.55,6.55,0,0,0-2.26,3.62,15,15,0,0,0,.24,5.42,25.92,25.92,0,0,0,1.54,5.32,19.36,19.36,0,0,0,1.84,3.49c.85,1.21,1.86,2.31,2.79,3.46.81.95,1.6,1.92,2.36,2.91a48.37,48.37,0,0,0,2.19,7.94,35.1,35.1,0,0,0,2.9,4.46c2,2.95,4.11,5.8,6.32,8.58,1.82,2.38,3.62,4.86,5.53,7.16s3.82,4.41,5.49,6.77c3.1,4.24,5,9.19,7.55,13.77a99.14,99.14,0,0,0,10.75,15.09A32,32,0,0,1,157,252.8c.73,1.29,1.37,2.67,2.22,3.9a11.49,11.49,0,0,0,2.76,2.63h0a60.85,60.85,0,0,0,6.06,8.37c1.81,2.26,3.43,4.68,5,7.08s3,5,4.67,7.39,3.23,5,5,7.43c2.92,3.66,5.46,7.59,8.16,11.4,1.59,2.21,3.48,4.19,5.16,6.31a102.29,102.29,0,0,0,9.71,10.77,5.57,5.57,0,0,1,1.19,1.64c.52.88,1,1.81,1.51,2.72.82,1.62,1.88,3.13,2.82,4.69s1.59,2.91,2.45,4.31c1.3,2,2.53,4.07,4,6,2.38,3,4.89,5.91,7.21,9,3.09,4.06,5.1,8.78,7.49,13.25a60.37,60.37,0,0,0,8.54,11.91,88.77,88.77,0,0,1,9.21,11.34c3.94,5.65,8.61,10.75,12.54,16.42,3.83,5.32,6.93,11.13,10.72,16.48a38.52,38.52,0,0,0,4.28,5.07c1.24,2.49,2.32,5.07,3.5,7.59,1.34,2.9,3,5.66,4.45,8.49C286.77,439.17,287.74,441.49,288.8,443.76Z"/><path class="cls-14" d="M414,498.24a126.58,126.58,0,0,0,12.77-1.06h0a6.5,6.5,0,0,0-1.17-.2c-.73-.1-1.47-.23-2.19-.37a52.63,52.63,0,0,0-6.83-1.15c-3.66-.48-7.38-.15-11.06-.5-3.16-.36-6.32-.81-9.48-1.22a83.65,83.65,0,0,0-9.72-1.15c-1.69-.12-3.38-.22-5.06-.44-1.08-.15-2.16-.38-3.26-.45a27,27,0,0,0-7.45.51,13.4,13.4,0,0,1-6.45.08,37.46,37.46,0,0,1-4.7-1.77c-4-1.78-7.95-3.73-12.08-5.22-3-1.12-5.84-2.56-8.93-3.28-3.85-1.05-7.59-2.56-11.52-3.27-1.07-.18-5-.4-5,.93a3.16,3.16,0,0,0,.75,1l1.43,1.37c1.85,1.83,0,.95-1.14.68s-2.59-.58-3.87-.94c-2.44-.65-4.92-1.14-7.33-1.87a23,23,0,0,1-4.23-1.37,36.61,36.61,0,0,1-5.42-3.15,20.54,20.54,0,0,0-4.37-2.25,32.39,32.39,0,0,0-9-1.26c2.72,1.39,8.93,4.7,11.45,6.15a46.77,46.77,0,0,0,8.92,4.11c3.3,1.15,6.74,1.84,10.09,2.81s6.36,2,9.53,3c4.11,1.36,8.36,2.28,12.56,3.27s8.36,2.4,12.5,3.7c6.1,1.7,11.91,4.27,17.9,6.27,3.81,1.19,7.67,2.24,11.49,3.38,1.9.59,3.82,1.19,5.75,1.71a16.33,16.33,0,0,0,2.57.63v0a6.72,6.72,0,0,0-1.65-.83c-1.21-.5-2.45-1-3.67-1.46a57.68,57.68,0,0,1-8.85-4.62,5.48,5.48,0,0,1-2-2.28,1.47,1.47,0,0,1,.85-2,6.43,6.43,0,0,1,2.05.06c1.16.15,2.35.32,3.52.46,5.2.45,10.34,1.35,15.51,2C402.8,498.49,408.39,498.34,414,498.24Z"/><path class="cls-14" d="M359.75,514.43c-.91-3.55-3.42-6.38-5.55-9.26-.68-.83-1.41-1.64-2.12-2.44a6.34,6.34,0,0,0-3.1-2.15c-2.47-.74-5.05-1.08-7.47-2-6.48-2.44-14.09-5.51-20.69-7.8,2.71,3.6,5.43,7.23,8.09,10.87a35.69,35.69,0,0,0,2.77,3.47,3.43,3.43,0,0,0,2.6.67c1.16-.06,2.33-.27,3.49-.31,3.43-.18,6.51,1.6,9.29,3.41,1.28.8,2.55,1.65,3.87,2.39s2.83,1.52,4.19,2.39a35.42,35.42,0,0,1,3.14,2.2C359.38,516.68,360,515.47,359.75,514.43Z"/><path class="cls-14" d="M403.29,647.69c-.46-3.12-1.65-6.1-2.54-9.11a71.66,71.66,0,0,1-2.27-9.9c-.22-3.24.38-6.51.06-9.75a20.38,20.38,0,0,0-2.17-6.22,59.82,59.82,0,0,0-5.35-9.07,90.41,90.41,0,0,0-7.34-8.77c-3.06-3.11-10.52-8.2-14-10.94a66.41,66.41,0,0,0,.7,14.16c.39,1.93.7,4.36,2.72,5.26a9.47,9.47,0,0,0,3.72.78c1.35,0,2.8-.2,4,.54a10.07,10.07,0,0,1,4,3.77,24.61,24.61,0,0,1,1.57,3.88c.46,2,.67,4,1,6a42.12,42.12,0,0,0,2.77,9.82,80.16,80.16,0,0,0,6.58,14,46.5,46.5,0,0,0,4,5.26C401.67,648.54,403.7,651,403.29,647.69Z"/><path class="cls-14" d="M491,760.05a16.8,16.8,0,0,0-2.53-6.2,15.82,15.82,0,0,0-2-2.75c-.86-1-2.18-1.07-3.35-1.38-3.54-1-6.53-2.19-8.69-5.33a11,11,0,0,1-1-1.54c-.26-.6-.42-1.27-.65-1.89-.48-1.3-1-2.59-1.51-3.87a28.63,28.63,0,0,1-1.5-4c-.44-1.9-.68-3.85-1.29-5.71a20.07,20.07,0,0,0-2.06-3.85,28.55,28.55,0,0,0-5.63-6.8c-1.77-1.62-3.85-2.86-5.77-4.3a26.42,26.42,0,0,1-9.61-12.68,74.79,74.79,0,0,1-2.35-7.59c-.55-2.32-.92-4.69-1.52-7A41.48,41.48,0,0,0,439,678a38,38,0,0,0-6.21-10c-3.67-4.94-7.89-9.44-11.86-14.14-2.77-3.23-5.66-6.5-7.66-10.29l6.22,12c-.84,6.49-1.51,13.07-1.76,19.61-.35,5.31.84,3.77,3.86,1.3,3.25-3,6,1.11,7.79,3.59a21.63,21.63,0,0,1,2.83,6.9c.83,2.88,1.81,5.74,2.75,8.59a28,28,0,0,0,2,5.08,12.88,12.88,0,0,0,1.61,1.78c1.26,1.16,1.59,2.94,1.9,4.56.37,2.27.27,4.66,1.05,6.86a26.4,26.4,0,0,0,5.19,8.09,32.53,32.53,0,0,0,8.49,6.23c1.55.83,3.33,1.38,4.61,2.63.64.72.43,1.76.39,2.64-.08,1.27-.4,2.53-.44,3.8a10,10,0,0,0,.6,2.8,32.82,32.82,0,0,0,1.89,4.88,49.68,49.68,0,0,0,4.32,7.3c1.5,2.26,2.91,4.59,4.33,6.9.86,1.39,1.68,2.81,2.56,4.18a7.68,7.68,0,0,0,1.72,2,5.66,5.66,0,0,0,1.78.77,13.78,13.78,0,0,0,10.92-2.06C489.2,763,491.09,761.93,491,760.05Z"/></g><g id="レイヤー_5" data-name="レイヤー 5"><path class="cls-15" d="M697.66,521.41a82.33,82.33,0,0,1-4.32,10.14,23.21,23.21,0,0,1-1.68,2.75,20.49,20.49,0,0,1-2.76,2.75,76.38,76.38,0,0,1-10.31,6.49,49.43,49.43,0,0,1-12.22,5.4c-3.64.86-7.35,1.41-11,2.09-1.09.18-2.18.35-3.28.51-.57,0-1.34.26-1.85-.11-1.35-1.3-.21-5,0-6.72a7.05,7.05,0,0,0,.16-2.46,1.66,1.66,0,0,0-1.53-1.35c-2,.08-3.75,3.7-4.72,5.26-2.26,4-4.46,8.26-8,11.39-5.13,4.58-11.66,7.11-17.92,9.75-5.85,2.33-11.5,5.15-17.45,7.22-3.33,1.23-6.74,2.27-10,3.56-3.13,1.23-6.16,2.73-9.37,3.79a30.2,30.2,0,0,1-9,1.71,28,28,0,0,1-9.74-.83c-4.17-1.13-7.73-3.69-11.53-5.63-2.58-1.39-5.25-2.62-7.85-4a50.43,50.43,0,0,0-8-3.81,53.93,53.93,0,0,0-8.86-2.22,64.72,64.72,0,0,0-11.61-1.31,69.21,69.21,0,0,0-15.69.79c-5.39,1-10.66,2.56-16,3.62-2.87.6-5.78,1-8.66,1.6-3.27.63-6.51,1.45-9.76,2.14-3.51.77-7.05,1.44-10.57,2.18a66,66,0,0,1-10,1.62,77.16,77.16,0,0,1-13.93,0c-6.51-.81-13-2-19.43-3.2-2.76-.58-5.51-1.24-8.3-1.65-4.6-.69-9.24-1.15-13.81-2a79.58,79.58,0,0,1-9.28-2.17,52.25,52.25,0,0,0-6.1-1.08c-10.62-1.47-18.7-5.13-27.3-11.5-7.72-5.59-14.39-12.51-22.13-18.09-3.91-2.81-8-5.6-12.86-6.52-2.82-.62-6.26-.76-8.14,1.83-1.23,1.45-2.11,3.18-3.42,4.57-4.92,4.81-12.79,1.67-18.24-.61-7.33-3.27-12.72-9.54-17.76-15.58-2.82-3.35-5.89-6.51-8.8-9.77a9.3,9.3,0,0,0-2.3-2.13.77.77,0,0,0-.91.25,2.93,2.93,0,0,0-.43,1.56c-.15,3.93,2.88,6.87,5,9.82,2.64,3.35,5.32,6.69,7.84,10.12a68.87,68.87,0,0,0,9.82,10.65c4.8,3.76,10.36,7,16.48,7.85a27,27,0,0,0,13.49-1.78c1.63-.65,3.18-1.51,4.82-2.16a14.35,14.35,0,0,1,8.33-.48c7.48,1.79,13.19,7.29,19.07,11.91A106.93,106.93,0,0,0,348,565.5a126.57,126.57,0,0,0,12,6.71c6.27,2.83,12.94,4.64,19.48,6.74,7.46,2.34,14.78,5.25,22.45,6.85,7.4,1.26,15,1.05,22.45.51s14.81-.61,22.22-.62c8.23-.08,16.51.28,24.7-.7a231.29,231.29,0,0,0,28.95-5.41c4.53-1.16,9-2.6,13.52-3.74,6.65-1.55,13.71-2.81,20.46-1.11,2.69.64,5.33,1.51,8,2.31a83.68,83.68,0,0,1,9.33,3.24c4.14,1.71,8,4.13,12.18,5.65a49.36,49.36,0,0,0,9.86,2,42.66,42.66,0,0,0,9.84.38c5.28-.66,10.13-3.13,14.84-5.48a64,64,0,0,0,7.85-4.46c2.57-1.53,5.23-2.95,7.83-4.44q6.42-3.47,12.94-6.76c4-2,8-3.88,11.86-6a41.56,41.56,0,0,1,4.41-2.12,14.46,14.46,0,0,1,6.39-.74,33.14,33.14,0,0,0,13.61-1.63,54.46,54.46,0,0,0,10.85-4.5c4.91-2.75,9.13-6.54,13.6-9.93,1.45-1.1,2.84-2.3,4.21-3.49a20.11,20.11,0,0,0,3.74-3.86,12,12,0,0,0,1.43-2.7l.13-.34.68-10.7S697.67,521.4,697.66,521.41Z"/><path class="cls-15" d="M645.76,804.59c-.85-.72-2,.09-3,.31-1.89.66-3.79,1.4-5.62,2.24-3.95,2-8.11,3.54-12,5.7a46.28,46.28,0,0,1-9.72,4.55c-1.89.53-5.23,1-5-1.9a10.82,10.82,0,0,1,.77-3.17c.5-1.37,1.06-2.73,1.49-4.14a16.14,16.14,0,0,0,.89-6,12.94,12.94,0,0,0-1.26-3.46c-1.23-2.17-2.88-4.15-3.73-6.52-1.16-3.51.13-7.3,1.63-10.5a39.89,39.89,0,0,1,6.58-9.63c2.69-2.81,5.8-5.22,8.5-8S631,758,632,754c.19-.94.31-2.35-.8-2.75a9.1,9.1,0,0,0-2,0c-1.37.08-2.78.16-4.17.17-3.7.17-7.33-.83-9.6-3.94a28.07,28.07,0,0,0-6.29-6.44,17.77,17.77,0,0,0-5.55-3.07,36.76,36.76,0,0,0-12.34-1.6,88.76,88.76,0,0,0-15.61,1.41c-8.39,1.29-16.67,4.79-25.26,3.89-3.14-.41-6.06-1.76-9-2.86a68.61,68.61,0,0,0-8.79-2.46,40.82,40.82,0,0,0-10.82-.42c-4.13.29-8.54.62-12.15,2.85-1.86,1.09-2.64,3.16-3.63,5-.83,1.4-1.76,3.08-3.42,3.58-2.87.72-5.9.55-8.79,1.19-2.48.57-3.73.75-2.69,3.71.76,2.46,3.4,6.72,1.42,9a39.65,39.65,0,0,1-7.58,6.44c-2.53,1.65-5.05,3.8-8.08,4.38a39.85,39.85,0,0,1-5.35-.15c-6.64-.5-13.22-1.52-19.79-2.59-4.74-.64-9.52-1.52-14.33-1.2a18.52,18.52,0,0,0-8.73,3.15c-3.36,2.49-2.91,7.12-3,10.85a71.5,71.5,0,0,1-.49,7.46,16.86,16.86,0,0,1-1.64,6.08c-1.89,3.37-6.32,2.3-9.49,2-4.46-.47-9.16-.43-13.36,1.3-3.44,1.33-5.66,4.87-4.27,8.55a29,29,0,0,0,5.29,8.66c4.07,4.46,9.38,7.59,14.54,10.61,8.32,5,15.84,6.16,25.4,5.52,1,.69,8.31,10.51,9.45,10.47A82.19,82.19,0,0,0,465.25,850a65.39,65.39,0,0,0,24.13,5.58,157.36,157.36,0,0,0,17.77.77c6.27-.09,12.56,0,18.82-.37,6.7-.46,13.43-1.19,20.06-2.25,7.74-1.4,15.23-4,22.82-6,4.76-1.26,9.61-2.29,14.46-3.15,3.4-.53,6.86-.91,10.23-1.65,4-.83,8.21-1.21,12.05-2.76,4.77-1.8,9-4.63,13.42-7.21a60.28,60.28,0,0,0,14-10.45c1.25-1.34,2.3-2.86,3.49-4.23C638.32,815.86,646.82,806.91,645.76,804.59Z"/><path class="cls-15" d="M647.59,713.18a7.67,7.67,0,0,0-3.18-1.57c-2-.63-4.11-1.1-6.13-1.61-6.09-1.57-12.3-2.62-18.45-3.9a30.39,30.39,0,0,1-9.64-3.87c-1.89-1.22-3.67-2.64-5.62-3.77-3.26-1.87-6.94-2.78-10.52-3.81-2.15-.64-4.36-1.1-6.53-1.66-2.89-.78-5.77-1.7-8.6-2.7-6.06-2.15-12.3-3.81-18.47-5.63-3.22-.87-6.34-2.1-9.58-2.9a65.22,65.22,0,0,0-8.58-1.25c-8.24-1.61-5.94-21.35-6.53-27.77-.31,5.8-.32,11.65-.91,17.43a28.38,28.38,0,0,1-.93,5.08,4.23,4.23,0,0,1-2.79,2.61c-5.16,1.21-10.3-1-15.23-2.27-9-2-17.74-4.9-26.77-6.66-2.08-.37-4.22-.65-6.32-.88a5.87,5.87,0,0,0-3.17.14c-1.76,1.15-.85,2.8.7,3.65a18,18,0,0,0,4.83,1.45c2.38.5,4.76,1.14,7.15,1.61,2.9.57,5.85,1.06,8.71,1.83A113.14,113.14,0,0,1,516.67,682c5.46,2.23,7.28,6.19,7.81,11.78a55.76,55.76,0,0,1-.49,13c-.42,3.54-.76,7.13-1,10.69a22.18,22.18,0,0,0-.11,3.64c.76,1.91,2.78-.69,3.27-1.6a24.72,24.72,0,0,0,2.7-9.34c.32-2.84.34-5.75.41-8.6s-.08-7,3-8.34a15.5,15.5,0,0,1,5.91-.6,46.13,46.13,0,0,1,8.68.95c4.4.93,8.77,2.16,13.26,2.64,2.15.3,4.33,0,6.47.28a17,17,0,0,1,8,3.28c2.63,1.93,5,4.49,8.36,5.09,4.39.91,9-.09,13.35,1.32,4.78,1.17,3.73,7.79,3.55,11.53-.1,1.42-.21,2.88-.3,4.3a5.13,5.13,0,0,0,.11,2.21c1.25,1.23,3.25-2.49,3.78-3.34,1.41-2.22,2.88-4.63,5.13-6.09,4.66-2.22,10.09-1.52,15.1-1.52a91.62,91.62,0,0,1,12.5.9c2.38.27,4.75,1,7.16.81C645.25,714.72,648.28,714.62,647.59,713.18Z"/><path class="cls-15" d="M765.81,597.81c.15-9.85-1.31-21.73-1.94-31.64-3,9.69-3.27,16.59-2.37,26.57.49,6.58-.56,13.17-1.7,19.63a52,52,0,0,1-2.31,8.31,2.06,2.06,0,0,1-2.5,1c-2.15-1.61-2.49,3.34-2.73,4.59a120.71,120.71,0,0,1-4.53,22.24c-1.78,6.63-3.5,13.35-6.49,19.56-2.44,5.36-5.72,10.27-8.88,15.22-.78,1.28-1.59,2.62-2.34,3.92-.41.91-1.35,1.89-1,2.92l.13.08c2.75-.46,8-8.7,10-11.06,1.2-1.54,2.21.38,2.46,1.55a28.41,28.41,0,0,1,.6,7.81c-.09,2.5-.37,5-.63,7.51-.07.68-.17,1.41-.21,2.09,0,.26,0,.7.26.82s.68-.45.93-.71a15.17,15.17,0,0,0,1.46-2.38c2.48-4.9,3.17-10.45,4.35-15.75a123.64,123.64,0,0,1,3.75-14.17c.53-1.41,1-3.5,2.83-3.47.36,0,.71.17,1.07.17a2.68,2.68,0,0,0,2-1.39,38.27,38.27,0,0,0,2-7.24c1.06-4.69,2.31-9.36,3.17-14.1.7-5.16,1.19-10.37,1.41-15.57C765,615.46,765.94,606.65,765.81,597.81Z"/><path class="cls-15" d="M342.94,711.39c-1.16-3.57-5-5.26-8.36-6.21-2.4-.65-5-.81-7.21-1.95a34.94,34.94,0,0,1-5.56-3.51,22.73,22.73,0,0,0-4.43-2.91c-3.48-1.64-7.42-1.15-11.15-1.07-2.68,0-5.4.33-8.06-.07-5.34-1.36-9.34-5.82-12-10.46-3.4-6-5.67-12.66-8.92-18.78-2.33-4.37-4.54-8.86-6.58-13.38-1.2-1.09-2.55-13.59-2.93-15.19-1.07,9.73-2.15,20.41,3.17,29.16,2.09,3.51,4.9,6.56,7.05,10a25.33,25.33,0,0,1,4.07,10.72c1,7.69,2.7,15.6,7.06,22.15,2.57,3.62,5.57,7,8.14,10.58,1.07,1.45,2.16,3,3.24,4.4.51.58.94,1.61,1.72,1.74.65-.68-1-3.91-1.32-4.85a45.79,45.79,0,0,1-3-9c-.39-2.51-1.06-6.81,1.68-8.18,3.61-1.48,9.19.71,12.26,2.78a25,25,0,0,0,5.89,3.12c1.68.73,3.44,1.37,5,2.26a11.7,11.7,0,0,1,2.92,2.56c2.82,3.35,4.6,7.52,7.82,10.54.81.71,1.49,1.73,2.54,2.06.93,0,.22-2.14.23-2.71a14.69,14.69,0,0,1-.27-3.5,10.15,10.15,0,0,1,2.26-4.92A21.18,21.18,0,0,1,341.1,714C341.92,713.33,343.29,712.68,342.94,711.39Z"/><path class="cls-16" d="M308.56,330.26a45.39,45.39,0,0,1,6.72-4.52c3.14-2,6.39-3.81,9.7-5.5,2.06-1.1,4.1-2.25,6.23-3.22,2.28-1,4.62-1.94,7-2.86,3.28-1.21,6.47-2.66,9.79-3.75s6.39-2.3,9.51-3.62c2.42-1,4.93-1.79,7.42-2.59,2.88-.9,5.84-1.55,8.74-2.35,2.55-.67,5.05-1.5,7.61-2.11,2.93-.78,5.91-1.34,8.87-2s5.65-1.3,8.5-1.79q11.41-2.24,22.9-4.06c3.13-.4,6.29-.66,9.41-1.13,2.84-.43,5.67-1,8.51-1.31,2.55-.32,5.08-.82,7.61-1.26s4.84-.65,7.24-1.13c6.55-1.15,13.1-2.43,19.74-2.95,3.77-.24,7.56,0,11.32-.39a1.32,1.32,0,0,0,.65-.18c.16-.11.07-.33-.07-.42a6.48,6.48,0,0,0-3-.58c-1.53-.05-3.08-.06-4.62-.09a90,90,0,0,0-9.29.18c-6,.6-12,1.71-18.06,2.37-2.13.26-4.26.31-6.39.42a77,77,0,0,0-11.33,1.48c-4.32.92-8.69,1.61-13.07,2.19-3,.46-6,1-9,1.5-4,.69-8,1-12,1.53-3.51.6-6.9,1.71-10.38,2.43-5.71,1.22-11.45,2.29-17.07,3.89-5.73,1.78-11.51,3.42-17.1,5.58-5.28,1.77-10.38,4-15.51,6.12-5.53,2.35-11.23,4.31-16.72,6.76-4.66,2.3-9.11,5-13.55,7.76a82.44,82.44,0,0,0-10.12,7.75c-5.37,4.63-9.67,10.37-13.68,16.19a98.61,98.61,0,0,0-6.45,10,79.65,79.65,0,0,0-5.74,15.06A106.29,106.29,0,0,1,280.53,360c2.21-3,4.86-5.67,7.32-8.46,2.74-3.17,5.14-6.65,8.18-9.55C300.36,338.15,304.2,334,308.56,330.26Z"/><path class="cls-16" d="M716.38,352.28c-.88-2.16-2-4.19-3-6.3-1.82-4.31-6-6.71-9.5-9.44-1.82-1.36-3.55-2.85-5.35-4.24-2-1.54-4.11-3-6.24-4.39A85.57,85.57,0,0,0,682,322.47c-2.21-1.06-4.51-2-6.64-3.16a97.83,97.83,0,0,0-8.7-4.9,92.26,92.26,0,0,0-10.94-4.11c-3-1-5.91-2-8.89-2.95-3.93-1.17-7.78-2.6-11.7-3.79-5.87-1.79-11.67-3.82-17.57-5.52-6.49-1.92-13.2-3.18-19.5-5.69-4.68-2-9.8-2.17-14.8-2.36-4.55-.21-9.09-.71-13.65-.78-3.1-.14-6.2-.15-9.3-.29-4.25-.2-8.5-.57-12.76-.58s-8.61.39-12.92.56q-7.77.17-15.54.16c-1.38,0-2.76.08-4.14.14a21.58,21.58,0,0,0-2.88-.46c-2.71-.21-5.45-.08-8.17,0-9.8.37-19.54,1.56-29.31,2.44-6.81.73-13.58,1.8-20.39,2.59-4.76.54-9.53,1.12-14.31,1.56a134.07,134.07,0,0,0-14.09,2,178.19,178.19,0,0,0-21.26,4.62c-5.14,1.25-10.25,2.67-15.25,4.39-2.67.85-5.39,1.63-8,2.63-4.36,1.68-8.94,2.71-13.35,4.23-4,1.48-8.15,2.48-12,4.27s-7.7,3.62-11.62,5.23S336.73,326.16,333,328c-3.25,1.63-6.23,3.76-9.41,5.5a153.1,153.1,0,0,0-15.27,9.63c3.08-1.41,6.23-2.7,9.23-4.28,3.2-1.59,6.5-3,9.7-4.61,3.83-1.91,7.53-4.13,11.51-5.75,3.35-1.49,6.73-3,10.22-4.14s7.21-2.3,10.8-3.51c2.14-.61,4.29-1.24,6.38-2,2.33-.87,4.61-1.9,7-2.68,5.68-1.88,11.48-3.39,17.23-5,4.21-1.29,8.38-2.72,12.68-3.7,2.34-.56,4.69-1.2,7-1.69,2-.41,4-.66,6-1,5-.88,10-2.09,15.08-2.57,3.64-.44,7.26-1.07,10.86-1.79,2.33-.49,4.63-1.17,6.94-1.71s4.57-.89,6.88-1.18a163.88,163.88,0,0,1,22.16-.59c3.57.14,7.14.43,10.71.28,3.88-.09,7.74-.58,11.6-1,1.77-.18,3.56-.18,5.33-.34,1.61-.16,3.23-.38,4.81-.68.78-.05,1.6,0,2.38.05,1.91.12,3.84.2,5.75.31s3.65.39,5.48.53c2.6.21,5.21.08,7.81.11,3,0,6.08,0,9.12-.05,3.33-.08,6.67-.23,10-.12,1.21,0,2.41.16,3.61.13a20.32,20.32,0,0,1,3.31,0c8.72.71,17.49,1,26.2,2a149.67,149.67,0,0,1,19.15,3.29,206.72,206.72,0,0,1,28.61,8c4.57,1.39,9.07,3.08,13.71,4.22,3.33.8,6.76,1.24,10,2.37s6.66,2.66,10.09,3.69c4.34,1.47,8.79,2.59,13,4.34a41.68,41.68,0,0,1,13.63,8.91c2.65,2.65,5.61,4.95,8.43,7.41,2,1.65,3.75,3.56,5.82,5.12,1.89,1.47,4,2.57,6,3.93a35.81,35.81,0,0,1,2.77,2.32c.17.18.45.39.64.56a3.17,3.17,0,0,0,.27.21s.11.08.15,0A.34.34,0,0,0,716.38,352.28Z"/><path class="cls-16" d="M728.08,364.69a16.16,16.16,0,0,0-1.06-4.14,40.46,40.46,0,0,0-2.71-5.82,63.2,63.2,0,0,0-5.25-8.28c-1.65-2.43-3.29-4.88-5.06-7.24s-3.54-4.79-5.44-7.09a47,47,0,0,0-7.93-8.56c-2.31-1.86-4.8-3.51-7.07-5.43a58.51,58.51,0,0,0-9.37-6.91,60.35,60.35,0,0,0-6.42-3.37,44.09,44.09,0,0,0-5.16-1.62c-2.81-.75-5.57-1.63-8.32-2.56a60.67,60.67,0,0,1-8.67-3.45c-1.78-.84-3.5-1.84-5.31-2.61a56.4,56.4,0,0,0-6.73-2.35c-2.75-.85-5.5-1.73-8.31-2.4-3.14-.82-6.36-1.38-9.51-2.18-4.14-1.05-8.29-2.14-12.42-3.24a82.55,82.55,0,0,0-16-2.94,54.56,54.56,0,0,1-8.26-1.05c-1.69-.7-5.85-.08-7.48-.15,2.48.85,4.85,2,7.31,2.89.79.27,1.61.43,2.41.62s1.57.48,2.35.69c1.57.42,3.19.64,4.78,1,2.67.55,5.44.52,8.1,1.14a27.88,27.88,0,0,1,3.47,1.08c1,.32,2,.6,3,.89,3,1,6.14,1.34,9.2,2.06,2.56.66,5.09,1.44,7.63,2.16s5.28,1.44,7.9,2.26c2,.63,4.19,1,6.29,1.42,1.81.4,3.6.87,5.38,1.36a94.14,94.14,0,0,1,15.16,6.47c3.81,2.39,8,4,12,6.12,3,1.68,5.93,3.49,8.9,5.23,2.14,1.21,4.3,2.39,6.34,3.77,2.9,1.92,6,3.53,8.81,5.61a45.85,45.85,0,0,1,5.21,4.74,72.08,72.08,0,0,1,5.92,6.31,65.22,65.22,0,0,1,4.91,7.49c1.65,2.79,3.23,5.64,4.62,8.57,1.2,2.66,2.58,5.26,3.53,8,.31.9.6,1.81.93,2.71a4.21,4.21,0,0,0,.59,1.29C727.71,368.22,728.16,365.67,728.08,364.69Z"/><path class="cls-17" d="M331.79,415.49c4.9-4,9.63-8.15,14.81-11.74,2.67-2,5.72-3.39,8.55-5.11a25.33,25.33,0,0,0,9.41-10c.75-1.4,1.35-2.9,2-4.35a27,27,0,0,0,1.71-4.39,9.49,9.49,0,0,0,.26-3.82,20.29,20.29,0,0,0-1.65-4.44c-2.71-4.74-3.48-7.38-3.23-12.89-.71.84-4.88,6.13-5.61,6.69-1.12,1.12-2.35,2.17-3.37,3.39-1.47,1.82-2.84,3.95-5,5.08-2.39,1.23-6.55,1.1-7.78,3.89-.69,2.45-.45,5.09-1,7.58-.47,2.24-1.69,7.18-4.73,6.64-1.87-.52-3.23-2.19-5.11-2.64-1-.12-1.18,1.08-1.58,1.72-1.73,3.47-4.9,9-9.5,8.2-.71-.11-1.54-.62-2.22-.19a7.36,7.36,0,0,0-.8,1.36,17.49,17.49,0,0,1-2.29,3.36,35.24,35.24,0,0,1-12,7.58,21.86,21.86,0,0,1-4,.87c-1.62.21-3.79.66-2.64,2.79,1.75,4.17,4.78,7.58,7.44,11.18,1,1.38,2.12,2.69,3.2,4,.89,1,2.68,3.63,4.16,2.68a7.5,7.5,0,0,0,2-2,33,33,0,0,1,3.76-4.08q3.5-3,7.19-5.76A69.91,69.91,0,0,0,331.79,415.49Z"/><path class="cls-17" d="M578.34,477.15a15.49,15.49,0,0,0-1.78-5.21c-.73-1.46-1.68-2.82-2.36-4.31-.34-.76-.62-1.56-.89-2.35a5.26,5.26,0,0,0-1.19-2.25c-1.39-1.33-3.4-1.69-5.19-2.17-3.27-.83-6.75-1.05-9.89-2.34-1.43-1.39,4.43-2.1,5.2-2.28,1-.2,2-.29,3-.56a13.92,13.92,0,0,0,4.5-3.34,6.62,6.62,0,0,0,.79-.88c.19,0,1.67-7.11,1.75-7.23-4.16-.88-8.78-1.85-12.79.09-1.14.64-2,1.64-3.13,2.31a9.15,9.15,0,0,1-6.4.86c-5.17-.88-9-1.87-14.06.34a58.48,58.48,0,0,1-7.11,2.55,36,36,0,0,1-8.65,1.07,32.55,32.55,0,0,1-7.38-.34c-3-.67-5.8-2.16-8.83-2.8-3.19-.73-6.53-.55-9.71-1.38-2.91-.62-5.69-1.79-8.62-2.31a138.62,138.62,0,0,0-22.4-1v-.05a7,7,0,0,1,2-1.16c1.65-.76,3.41-1.43,5.08-2.17,3.95-1.89,8-3.66,12.1-5.17,5.14-2.07,10.52-3.56,15.55-5.93,3.3-1.49,6.82-2.51,10-4.28,1.13-.71,5.08-2.13,1.6-2.8a74.47,74.47,0,0,0-21.44.79A98.34,98.34,0,0,0,473,427.61c-2.75.9-5.5,1.84-8.2,2.9a80.23,80.23,0,0,1-9.25,2.57c-2,.44-4.16.33-6.2.73a34.46,34.46,0,0,0-4,1.09c-1.29.48-2.54,1.1-3.81,1.65a13.11,13.11,0,0,1-2.67.9,20.85,20.85,0,0,1-4.18,0,13,13,0,0,0-4.44.16,2,2,0,0,0-1,.55,2.14,2.14,0,0,0-.39,1.15,10.59,10.59,0,0,0,.45,3.16c.2.89.57,2-.15,2.77a5.19,5.19,0,0,1-2.76,1.23,33.79,33.79,0,0,1-4.49.44,35.88,35.88,0,0,0-8.32,1.15c-1.52.39-3,.88-4.54,1.29s-3.35.75-5,1.25c-3.95,1.3-7.76,3.05-11.65,4.5-4.19,1.68-9.07,1.57-12.83,4.3a16.81,16.81,0,0,0-3.14,3.11,7.91,7.91,0,0,0-1.57,2.4c-.34,1.92,3.05,3.44,4.3,4.5a20.06,20.06,0,0,1,5,4.35,26.24,26.24,0,0,0,2.39,3.49c2.87,2.57,6.89,3.58,10.68,3.68a52.13,52.13,0,0,0,7.5-.21c2.64-.36,5.25-1.08,7.92-1.25,3.35-.26,6.75,0,10.09-.37a15.2,15.2,0,0,0,5.25-1.86c2.3-1.28,4.48-2.84,6.9-3.9,4.28-1.91,9.08-1.72,13.66-1.7,3.32,0,6.71.29,9.95-.63a69.93,69.93,0,0,0,8.3-3.06c3.44-1.13,6.89-2.47,10.54-2.67,4.62-.32,9.35-.18,13.79-1.69a85.82,85.82,0,0,1,10.74-2.51,47.79,47.79,0,0,1,5.05-.8,8.78,8.78,0,0,1,3.61.16c.67.17,1.35.39,2,.6,1.12.31,1.27.9.3,1.71a62.6,62.6,0,0,1-6.7,4.43c-.75.45-1.52.9-2.23,1.42a3.84,3.84,0,0,0-1.18,1.16c-.86,1.6.54,3.28,1.89,4.06,2,1.26,4.36,1.54,6.64,1.81,2,.31,4.06.69,6.06,1.15a103.35,103.35,0,0,1,11,3.27c2.6,1.15,5.14,2.45,7.72,3.63a25,25,0,0,0,4.47,1.71,16.82,16.82,0,0,0,5.75,0,20.17,20.17,0,0,1,5.32.12c4.8.65,9.65.85,14.48,1.16a11,11,0,0,1,3.17.6,4.36,4.36,0,0,0,2.85.43,5.76,5.76,0,0,0,2.89-2.15A13.41,13.41,0,0,0,578.34,477.15Z"/><path class="cls-17" d="M550.39,414.79c-.88-.13-1.77-.24-2.65-.34a5.22,5.22,0,0,1-1.91-.48,1.26,1.26,0,0,1-.75-1.11c.07-1.55-3-1.36-4-1.23-3.12.49-6.09,1.72-9.13,2.57-1.82.58-3.58,1.36-5.34,2.11-1.41.58-2.86,1.07-4.26,1.66a53.12,53.12,0,0,1-6.58,1.87,11,11,0,0,0-2.87,1.06c-1.68,1.85,4.54,3.39,5.69,3.8s2.67.72,3.59,1.72c1.66,2.21.71,5.39.37,7.9-.27,1.21-.37,2.76.86,3.48,3.15,1.67,8.29-1.2,11.45-2.18a3.41,3.41,0,0,1,3.36.16c1.22.67,2.38,1.47,3.64,2.06,3,1.35,6.34,1.24,9.51,1.78a29.08,29.08,0,0,0,7.1.41,30.47,30.47,0,0,0,4.26-.35c1.56.17,6.93-3.57,8.25-4.25a27.07,27.07,0,0,1-4.68-6,21,21,0,0,0-1.56-2.87c-1.15-1.41-2.92-2.23-3.91-3.8-1-1.41-1.46-3.14-2.47-4.54C556.56,416.15,553,415.21,550.39,414.79Z"/><path class="cls-17" d="M599.22,336.89a16.18,16.18,0,0,0,1.92,5.12,22.76,22.76,0,0,0,2.85,3.43c2.08,2.19,4,4.56,6,6.77,1.11,1.15,2.25,2.32,3.44,3.37a6.72,6.72,0,0,0,3.25,1.84c1.08.11,1-.69.8-1.48-.16-.63-.31-1.3-.44-1.94a56.29,56.29,0,0,1-.71-12.37c0-6.82.77-12.72,3.75-18.95-.63.19-7.75,1.46-8,2-1.38.82-2.75,1.72-4.1,2.58C605.06,329.33,598.93,332.82,599.22,336.89Z"/><path class="cls-17" d="M677.34,369.83c-.32-3.48-4.91-4.26-7.65-5.11-3.65-1-7.3-1.94-10.85-3.24A67.06,67.06,0,0,1,649.1,357c-2.52-1.29-3.29-3.66-4.25-6.12-1-2.79-2.38-5.74-1.86-8.78.44-2.51,2.14-4.8,1.84-7.42-.41-2.11-2-3.78-3.32-5.4-.72-.85-1.47-1.72-2.17-2.59.08-.44-6.29-4.24-6.61-4.53a28.79,28.79,0,0,1-4.13,5.25c-.9,1-2.59,1.87-2.35,3.46a10.1,10.1,0,0,0,2.37,4.13c1.34,1.6,2.76,3.15,4,4.81a65.51,65.51,0,0,1,3.62,5.95,41.59,41.59,0,0,0,4,5.69c1.38,1.47,3.19,2.45,4.57,3.91s2.19,3.65,3.11,5.55c1.08,2.67,1.13,5.61,1.24,8.45a5.09,5.09,0,0,0,1.45,4,12.81,12.81,0,0,0,2.25,1.28c1.88.89,3.95.19,5.79-.44s3.74-1.22,5.64-1.66a35.54,35.54,0,0,1,8.61-.58c1,0,2,0,3,0A2,2,0,0,0,677.34,369.83Z"/><path class="cls-17" d="M641.48,380.89a8.24,8.24,0,0,0-1.16-2.77S637.7,371,637.64,371l-1.48-1.22c-2.08-1.65-4.44-3.48-7.21-3.53-1.68.1-3.17,1-4.66,1.71a42.74,42.74,0,0,1-6,2.27,33.75,33.75,0,0,0-4.2,1.12c-4.88,1.35-3.65,6.15-6.68,9.09a40.65,40.65,0,0,1-5.91,3.74,58.68,58.68,0,0,0-9.09,6.3c-3.84,3.18-6.51,7.51-10.34,10.71-.94.75-1.92,1.47-2.89,2.19a9.35,9.35,0,0,1-2.26,1.32c-1.66.57-3.44.48-5.14.78a12.15,12.15,0,0,0-4.24,2.22,33,33,0,0,0-3.5,3l-1.83,1.8c-.26.32-.73.59-.76,1,.21.17.58-.06.81-.12a13.5,13.5,0,0,0,1.78-.9,30.76,30.76,0,0,1,5.31-2.76,73.7,73.7,0,0,1,7.69-2.28,14.47,14.47,0,0,1,3.13-.43,9,9,0,0,1,2.8.67,40.28,40.28,0,0,0,5.3,1.89,17.58,17.58,0,0,0,4.91.18,6.61,6.61,0,0,0,2.49-.48,4.26,4.26,0,0,0,2.2-4,4.63,4.63,0,0,0-1.63-2.49c-1.07-.84-2.17-1.89-1.74-3.38,1-2.87,7.18-7,9.87-8.65,2-1.13,4.54-2.86,6.94-2.09,1.51.68,1.89,2.52,2.22,4,.18,1.15.21,2.23,1.69,1.47a17.44,17.44,0,0,0,2.92-2.36c1-.89,2-1.76,3.07-2.6a8.32,8.32,0,0,1,1.42-1,3.24,3.24,0,0,1,1.42-.13c.42,0,.82.16,1.24.13,1.33-.24,2.15-1.52,3-2.46s1.4-1.71,2.1-2.56c.37-.38.67-1,1.25-1.05s.72.4,1,.69c.46.49.73,1.22,1.4,1.45,1.5.36,3.06-.44,4.46-.91l1.82-.74a2.4,2.4,0,0,0,.94-.51A1.44,1.44,0,0,0,641.48,380.89Z"/><path class="cls-17" d="M375.47,437.74A37.36,37.36,0,0,0,390.18,435a60.26,60.26,0,0,0,6.25-3.77,19.47,19.47,0,0,1,7.46-2.66,89.07,89.07,0,0,0,8.91-2.61c.71-.33,5.07-1.3,2.45-2,1.94-.39,3.93-.59,5.85-1,2.69-.64,5.34-1.59,8-2.23s5.31-1,7.92-1.62c3.09-.68,6.2-1.48,9.33-2,2.94-.53,5.94-.95,8.88-1.5a35.39,35.39,0,0,1,4.21-.65c.41.06.66.43.87.75a2.39,2.39,0,0,1-.07,2.22c-.75,1.8-2.77,2.44-4.49,2.94-9.24,2.69-18.91,3.91-27.86,7.56-3.49,1.36-7.11,2.45-10.57,3.89a10.44,10.44,0,0,0-3.11,1.56,8.73,8.73,0,0,0-1.51,3.44c-.25.92-.5,1.86-.68,2.81-.08.41-.16.83-.28,1.23-.21.69-.23,1.26,1,1.2.71,0,1.07-.74,1.48-1.21a24.08,24.08,0,0,1,1.84-2.2,21,21,0,0,1,4.17-3.08,36.44,36.44,0,0,1,5-2.67c1.51-.62,3.13-1,4.69-1.45,2.92-1,5.92-1.73,8.91-2.46,1.63-.42,3.26-.93,4.91-1.3s3.21-.53,4.81-.78c3-.51,6.1-1,9.11-1.67,2.48-.59,4.93-1.41,7.39-2.06,6-1.36,11.89-3,17.78-4.69,4.91-1.49,9.95-2.59,15-3.62,5.52-1.34,11.13-2.4,16.75-3.19,3.14-.37,6.19-1.22,9.27-1.86a35.15,35.15,0,0,1,7.09-.63c1.47.11,2.49,1.4,3.87,1.81a11.78,11.78,0,0,0,5.92-.24c2.14-.51,4.27-1.17,6.4-1.73a10.55,10.55,0,0,0,1.89-.65,3.25,3.25,0,0,0,1.18-1.34,7.31,7.31,0,0,0,.39-3.25,12.55,12.55,0,0,0-.78-3.78,15.78,15.78,0,0,0-1.1-2.12,23.87,23.87,0,0,0-2.4-2.53,30.36,30.36,0,0,1-6.55-8.88c-1.27-2.72-3.88-10.94-7.3-5.51-.83,1.5-1.88,3.38.09,4.46a27,27,0,0,0,3.18,1.2,5.86,5.86,0,0,1,2.56,1.94c1.9,2.69,2.1,6.15,2.28,9.34,0,.81,0,1.66,0,2.47,0,.63,0,1.43-.68,1.75l-7.12-1.88c-2.85-3.8-6.15-7.39-8.16-11.73-2.1-4.52-3.67-9.32-6.22-13.63-2.82-4.77-6.71-9.4-12-11.41-1.68-.71-3,.63-4.24,1.61a9.6,9.6,0,0,1-4.07,2c-3.42.8-6.64-1-9.93-1.62-1.85-.26-4-.22-5.58.95-2,1.72-2.56,4.55-2.66,7.08a30.7,30.7,0,0,0,.18,4.18,5,5,0,0,1-1.12,4,15.58,15.58,0,0,1-5.59,3.53,36.7,36.7,0,0,0-5.72,2.38,20.27,20.27,0,0,0-4,3.28,13,13,0,0,0-2,2.37c-1.13,2.15-1,4.68-1.47,7-.8,2.58-5.15,2.74-7.4,3.3a21.18,21.18,0,0,0-6,1.86c-4,2-3.07,4.77-8.23,6.41-2.46.85-5.09,1.19-7.61,1.79-4.73,1.24-9.48,2.55-14.08,4.23-2.72,1-5.24,2.56-7.93,3.64-1.26.52-2.58,1-3.86,1.46a7.16,7.16,0,0,0-1.8.82c-3.81.11-7.59.84-11.38,1.27-1.8.23-3.66.25-5.46.46-2.24.29-4.47.85-6.69,1.24-2.64.48-5.33.9-7.93,1.52a73.37,73.37,0,0,1-10.7,2.85c-4.32.8-8.44,2.38-12.67,3.48-5.17,1.3-10.45,2.54-15.21,5a6.14,6.14,0,0,0-1.86,1.31c-.57,1.59,1.24,2.89,2.52,3.44,2.41,1,5.12.36,7.59-.1,5.11-.83,9.74-3.28,14.65-4.78C362.41,438,369,438.07,375.47,437.74Z"/><path class="cls-18" d="M881,552.32a50.17,50.17,0,0,1-2.2,13.53,61.78,61.78,0,0,1-2,6.53,13.59,13.59,0,0,1-1.79,3.67c-1,1.14-2.92,3.39-4.63,2.72a5,5,0,0,1-1.65-3.46c-.17-2.35.45-4.69.59-7a7,7,0,0,0-.55-3.18,26.67,26.67,0,0,1-.82-3.75c-.56-3.49-.83-7.09-2-10.44a32.92,32.92,0,0,0-2.36-4.57,31.09,31.09,0,0,1-2.36-4.94c-1.09-3.12-2.13-6.38-4.33-8.92a30.55,30.55,0,0,0-3-2.84,14,14,0,0,1-2.71-4c-2-4.52-2.88-9.72-6-13.68a28.39,28.39,0,0,0-4.43-3.59,45.59,45.59,0,0,1-5.33-4.78c-2.1-2.1-3.74-4.61-5.77-6.78a20.86,20.86,0,0,0-4.91-3.69c-4.16-2.31-6.94-6.43-11.12-8.7a21.59,21.59,0,0,0-6-2.19,17,17,0,0,1-5.3-2.49c-4.1-2.72-6.58-7.07-9.92-10.55-3-3.15-6.78-5.3-10.47-7.49a53.51,53.51,0,0,1-6.54-4.21c-2.64-2.18-5-4.65-7.75-6.78-6.2-5.35-14.75-6.64-21.3-11.45-4.55-3.43-8.79-7.39-14.05-9.73-5-2.58-10.65-3.85-15.72-6.36-2.54-1.17-4.67-3-7.05-4.42A36.69,36.69,0,0,0,702,416c-4.91-1.61-10.11-1.83-15.14-2.86a58.07,58.07,0,0,1-9.15-3.54c-4-1.84-8.35-3.57-12.87-3.39a58.11,58.11,0,0,0-6.51,1.3c-3.55.71-7.22.42-10.81.21-5.38-.31-10.73-1.67-16.14-1.06a19.23,19.23,0,0,0-5.16,1.28,46.41,46.41,0,0,1-5.43,1.62,40.88,40.88,0,0,0-7.49,3.44,56.72,56.72,0,0,0-6.17,3.26,60.56,60.56,0,0,1-9.22,4.52c-2.23,1-4.58,1.93-6.38,3.62-2,1.87-3.26,4.3-4.7,6.56A43.84,43.84,0,0,0,582,440a84.21,84.21,0,0,0-1.59,8.95,68,68,0,0,0-1.15,11.81,56.7,56.7,0,0,0,1.38,10.29c.78,3.22,1.93,6.38,2.53,9.64.74,1.86,1.87,3.6,2.43,5.55.46,1.4.65,2.87,1.08,4.28a15.64,15.64,0,0,0,1.92,3.94c.81,1.25,1.74,2.43,2.6,3.64s1.76,2.31,1.58,3.75c-.13,1.12-1.3,1.69-2.23,2.08a14.8,14.8,0,0,1-3.13.85,2,2,0,0,1-1.8-.39,3.62,3.62,0,0,1-.75-1.8,108.36,108.36,0,0,0-4.06-11.86A51.29,51.29,0,0,1,579.3,485c-.16-.78-.35-1.58-.5-2.36a.7.7,0,0,1,0-.12l-1-2a11.08,11.08,0,0,0,.58-3.27,8.15,8.15,0,0,0-.54-2.43,35.55,35.55,0,0,0-3.15-6.29,23.15,23.15,0,0,1-1.47-3.61,5.34,5.34,0,0,1-.24-2.78c.15-1.28.24-4.48,1.45-5.1-.24-2.29-.62-4.56-.82-6.85a33.25,33.25,0,0,1,1.58-12.54,76.81,76.81,0,0,1,5.18-11.56,55.2,55.2,0,0,1,7.89-8.91,89.44,89.44,0,0,1,10.39-9.06,129.86,129.86,0,0,1,13.07-9.45,63.56,63.56,0,0,1,7.12-3.87c2.42-1.2,4.83-2.43,7.21-3.72,1.43-.79,2.85-1.61,4.33-2.31,1.69-.79,3.44-1.49,5.14-2.26,2.72-1.26,5.41-2.6,8.2-3.71A85.09,85.09,0,0,1,656.16,379a88.15,88.15,0,0,0,15.63-4.7c5.63-1.85,11.29-3.85,17.17-4.74a60.52,60.52,0,0,1,10.9-1.12c7.23.35,17.69,1.67,25,2.09,3.59.65,7.28.55,10.88,1.18,3.37.56,6.7,1.46,10,2.13A68.27,68.27,0,0,1,756.37,377a64.87,64.87,0,0,1,8.23,3.14,91,91,0,0,1,14.1,9.39c2.76,2.18,5.66,4.26,8.53,6.28a80.93,80.93,0,0,0,8.4,5.57c4.54,2.54,9.69,3.89,14,6.81a73.72,73.72,0,0,1,9,6.43,63.7,63.7,0,0,1,7.87,9.09c5.3,7.92,10.73,15.81,16,23.74A190.51,190.51,0,0,1,854,468.75c4,9.15,10,17.4,12.85,27,3.18,10.41,5.81,21,8.66,31.51,1.38,5.16,2.9,10.32,4,15.54A47.94,47.94,0,0,1,881,552.32Z"/></g><g id="レイヤー_4" data-name="レイヤー 4"><path class="cls-5" d="M324,768c-3.45-2.28-4.06-6.09-5.52-9.58-.57-.62-1.78-.85-1.78-1.87a.93.93,0,0,1,1.73-.43c3,1.41,2.5,5.24,4.06,7.7.52,1.28,4,2.85,2.81,4.21A.93.93,0,0,1,324,768Z"/><path class="cls-5" d="M313.79,764.25c-8.18-3.25-4.44-8.49-3.41-5,.73,1.84,2.79,2.45,4.37,3.38A.92.92,0,0,1,313.79,764.25Z"/><path class="cls-19" d="M883,553.41a48.25,48.25,0,0,1-.8,6.33c-.51,4.1-1.57,8.47-4.73,11.36-1.7,1.6-1.23-2.78-1.37-3.57-.12-2.64-.38-5.28-.53-7.91-.32-4.51-.64-9-1-13.51-.19-3.26-.15-6.56-.63-9.8a22.48,22.48,0,0,0-1.76-5.1,51.24,51.24,0,0,0-4.15-7.59c-3.8-6-8.35-11.57-12.68-17.23a247.54,247.54,0,0,0-17.45-19.05c-3.76-4-7.15-8.4-11.1-12.25-1.51-1.52-3-3.08-4.68-4.47a57.54,57.54,0,0,1-4.78-4.17,67.79,67.79,0,0,1-6.19-8.66,82.29,82.29,0,0,0-9.92-12.85c-3-3.27-6.29-6.24-9-9.76-3.28-4.37-5.79-9.28-9-13.66a45.78,45.78,0,0,0-8.49-8.82c-7-5.7-13.85-11.58-21.42-16.48-5.18-3.29-10.29-6.86-15.88-9.45-4.25-1.84-8.68-3.35-13-5-3-1.18-6-2.7-9.11-3.74-2.89-1-6-1.47-8.88-2.34-5.74-1.79-11.58-3.36-17.34-5.09,4.54,0,12.64.63,17-.17,4.46-.62,8.92-1.6,13.44-1.25,4.24.12,8.4,1,12.59,1.55,3.66.41,7.37.26,11,.73a56.35,56.35,0,0,1,13.2,3.53c4.14,1.88,8.35,3.65,12.37,5.77a81.1,81.1,0,0,0,7.88,3.6,114.19,114.19,0,0,1,13.78,7.1c2.56,1.65,5.37,2.86,8,4.47,2.4,1.7,4.59,3.67,6.92,5.46,5.46,4.18,10.71,8.61,16.24,12.71,4.28,3.52,8.69,6.88,13.18,10.13a109.75,109.75,0,0,1,9.06,8.19,104.4,104.4,0,0,1,8.13,8.57,46.48,46.48,0,0,1,3.66,5.43c.94,1.57,2,3.07,3,4.6,1.21,1.9,2.52,3.76,3.59,5.75,1.85,3.78,3.5,7.66,5.42,11.4,1.53,3.09,3.14,6.15,4.67,9.24a49,49,0,0,1,3.6,8.24,46.38,46.38,0,0,1,1.67,8.23c.3,2.25.69,4.5,1,6.74.49,3.23,1.4,6.39,2.07,9.59.42,2,.57,4.06.85,6.09a137.61,137.61,0,0,1,1.27,18.92c.08,2.8.28,5.61.14,8.41C882.82,546.87,883,550.15,883,553.41Z"/><path class="cls-5" d="M319.61,330.16c4.95-4.39,11.44-6.29,17.59-8.35,4.24-1.37,8.43-3,12.64-4.43,4.85-1.58,9.7-3.22,14.46-5.07-4.72,1.13-9.52,2-14.25,3.05a66.88,66.88,0,0,0-12.78,3.39c-3.88,1.48-7.68,3.16-11.45,4.92a50.74,50.74,0,0,0-6.13,2.94,41.15,41.15,0,0,0-4,2.86,49.62,49.62,0,0,1-4.54,2.73c-2.14,1.1-4.38,2-6.56,3a11,11,0,0,0-3.93,2.43c-.59.66-1.13,1.39-1.65,2.1a5.57,5.57,0,0,1-1.32,1.5c-1.06.74-2.31,1.21-3.38,1.94s-1.69,1.81-2.58,2.66c-1.69,1.84-3.69,3.38-5.35,5.24A168.55,168.55,0,0,0,274.6,369c1-.49,9.7-3.53,10.08-4.58a26.07,26.07,0,0,1,2.41-1.76c3.2-2,6.58-3.81,9.64-6.06.47-.34,4.59-3.5,3.77-3.84a3.19,3.19,0,0,0-1.21.49c-.83.45-1.66,1-2.47,1.46-1.13.7-2.3,1.45-3.42,2.16a7.23,7.23,0,0,1-2,1.07l0-.06a7.54,7.54,0,0,1,1.71-1.86c1.27-1.18,2.58-2.37,3.8-3.61.88-.88,1.77-1.83,2.58-2.77.35-.5,1-1,1-1.64-.1-.13-.3,0-.42,0a6.26,6.26,0,0,0-.74.44c-.88.59-1.72,1.26-2.56,1.91-2.19,1.72-4.38,3.5-6.57,5.22a21.65,21.65,0,0,1-3.88,2.68l-.05,0c.12-.53.64-.92,1-1.34.69-.78,1.41-1.58,2.12-2.34a84.88,84.88,0,0,1,8.07-7.45c1.68-1.31,3.25-2.8,5-4a52.76,52.76,0,0,1,5.69-2.68,13.49,13.49,0,0,0,4-2.19,20.3,20.3,0,0,0,1.62-2A50.25,50.25,0,0,1,319.61,330.16Z"/><path class="cls-5" d="M395.53,490.84a4.13,4.13,0,0,0-2.13-.74c-1.36-.23-2.74-.42-4.11-.61-2-.26-4-.65-6.07-.9a62.13,62.13,0,0,1-8.78-1.58c-3.39-.86-6.77-1.82-10.12-2.83s-6.43-2.12-9.67-3.11c-7.18-2.4-15.89-4.74-23.17-7.05,3.23,3,6.27,6.24,10.2,8.26,1.15.62,2.33,1.21,3.51,1.77.7.39,1.65.66,2,1.44.06,1.15-1.85,1.66-2.76,1.7-2.11,0-4-1.07-6-1.64-3.48-1.12-7.05-2-10.59-2.91l-5.72-1.49c-1.06-.29-4.19-1.26-2,.79a11.89,11.89,0,0,0,4.45,2.08c3,1,6.23,1.39,9.31,2.22,4,1.16,7.63,3.17,11.59,4.37a170.88,170.88,0,0,0,25.56,6.76c4.62.86,9.17,2.13,13.85,2.73,1.58.29,2.17-.18.49-1.22s-3.22-1.68-4.76-2.64c-.93-.56-1.53-1.21-.19-1.71a18.25,18.25,0,0,1,3.43-.91c1.61-.31,3.27-.19,4.88-.45a38.27,38.27,0,0,0,4.61-1.13C394.06,491.79,395.78,491.51,395.53,490.84Z"/><path class="cls-5" d="M629.31,515.32a1.27,1.27,0,0,0-.88-.63c-.48-.14-1-.25-1.47-.35-1.55-.33-3.13-.58-4.7-.82-4.54-.7-9-1.84-13.58-2.46A19.93,19.93,0,0,0,603,511c-2.05.19-4.27.61-6.2-.29-1.12-.56-1.9-1.59-3-2.23-3-1.55-6.54-1.9-9.87-2.41-.35,0-.91-.13-1.27-.16-.6.18-10,3.64-10.4,3.64-1.25.43-5.93,2.54-5.26,4,.59.8,1.79,1,2.67,1.33,2.25.86,4.61,1.38,6.94,2,3.42.94,6.37,2.56,7.68,6a22.38,22.38,0,0,0,2.22,4.72,9.13,9.13,0,0,0,11.57,2.61c3.46-2.15-1.85-3.18-1.19-5.75.31-1.35,1.07-2.87.33-4.2a5.05,5.05,0,0,0-1.56-1.34c-.91-.62-1.87-1.21-2.73-1.9-.59-.43-1.84-1.72-.38-1.85a11.57,11.57,0,0,1,2.25.35,37.38,37.38,0,0,0,4.06.68c1.53.23,5.06.27,5,2.42a6.55,6.55,0,0,0,.71,4.28c.53.8,1.19,1.5,1.69,2.32a2.26,2.26,0,0,1,.41,2c-.17.39-.42.75-.58,1.14-.78,1.85-.8,3.53,1,4.76a19.16,19.16,0,0,0,6.3,3,13,13,0,0,0,5,.35,5.69,5.69,0,0,0,4.44-2,4.57,4.57,0,0,0,.91-1.78c-.06-.49-.58-.76-1-1-1.28-.53-2.89-.44-4.26-.75-.66-.07-3.19-.79-1.48-1.42a8.73,8.73,0,0,1,3.67.06c1.87.51,3.51.72,5-.85,1.21-1.16,1.65-3.21,0-4.2a8.41,8.41,0,0,0-2.44-.89c-1.49-.37-3-.73-4.48-1.18-3-1-6.11-1.46-9-2.78a5.31,5.31,0,0,1-2.45-2c-.44-.93.62-1.59,1.42-1.67a12.3,12.3,0,0,1,3.48,0,41.69,41.69,0,0,1,4.28.64c1.82.38,3.59,1,5.38,1.56a6.21,6.21,0,0,0,2.95.37,6.47,6.47,0,0,0,3.54-1.65C628.77,516.6,629.49,516,629.31,515.32Z"/><path class="cls-5" d="M549.13,500c7.54-1,14.94-2.92,22.41-4.32,6.1-1.26,12.29-2.06,18.37-3.4a158.69,158.69,0,0,0,16.73-4.62,60.32,60.32,0,0,0,11.65-4.92c1-.67,2.63-1.46,2.05-2.25a2.68,2.68,0,0,0-1.76-.45c-1.09,0-2.23.11-3.31.21-.4.08-10.87,1-10.8,1.44-2,.78-4,1.52-6,2.18-3,1-6,1.75-9,2.64a94.46,94.46,0,0,1-10.61,2.63c-2.46.53-5,.78-7.43,1.24a103.07,103.07,0,0,1-11.71,1.89c-4.64.5-9.31.71-14,.82-3.45.12-6.93.11-10.35.56a67.89,67.89,0,0,0-8.93,1.8c-2.29.6-4.62,1.15-6.84,2a37,37,0,0,1-6.27,1.87c-1.83.38-3.71.53-5.54.92-2.36.49-4.71,1.07-7,1.68-4.66,1.05-2,1.5,1,1.61,6.51,0,13,.13,19.53-.2C530.65,502.54,539.84,500.8,549.13,500Z"/><path class="cls-5" d="M627.2,553.6a4,4,0,0,0-1.28-1.79,8.45,8.45,0,0,0-4.6-1.84,67.69,67.69,0,0,1-7.25-.89,25.56,25.56,0,0,1-6.9-2.44,44.55,44.55,0,0,0-6.42-2.8c-3.38-1.29-5.82-3.35-.22-2.74,4,.17,8,.84,12,.68.93-.09,3.52-.35,2.56-1.76a10.42,10.42,0,0,0-1.73-1.35c-6.54-4.92-14-4.3-21.65-3.32-1.6.76-10.2-1.37-11.92-1.52-5.29-.46-8-4.78-11-8.57-.71-.71-1.58-2.09-2.72-1.75-.32.19-.46.58-.69.86-.53.74-1.35,1.46-2.31,1a11.69,11.69,0,0,1-3.26-2.77,7.55,7.55,0,0,0-3.61-2.7,7.79,7.79,0,0,0-4.48.26c-1,.36-4.49,1.22-2.56,2.51,1.73,1.38,6.43,3.41,6.2,6a2.61,2.61,0,0,1-.75,1.11,14.93,14.93,0,0,0-1.06,1.32c-.7,1-.26,1.46.71,1.93s1.87.85,2.82,1.24a57.72,57.72,0,0,0,5.42,2c2,.6,4.12,1,6.15,1.65A41.91,41.91,0,0,1,580,542.82a57.51,57.51,0,0,1,6.12,4.89,74.63,74.63,0,0,0,6.57,4.62,34.12,34.12,0,0,0,5.84,2.58,24.76,24.76,0,0,0,8.11,1.87c3.16.18,6.33.54,9.48.77C619,557.72,627.68,557.91,627.2,553.6Z"/><path class="cls-5" d="M640.25,300.75c-.41-.94-1.54-1.27-2.38-1.72-2.26-1.19-4.86-1.59-7-2.95a4,4,0,0,1-1.29-1.06,2.48,2.48,0,0,1-.33-1.06,3,3,0,0,0-.26-1.53c-1.36-2.28-4.17-3-6.58-3.64-2-.55-5-1.3-7.08-1.7.22,2.52,1.05,3.9,3.59,4.55,1.16.31,2.39.39,3.52.81a11.86,11.86,0,0,1,2.56,1.24c.4.23,1.14.72.45,1.12-1.61.7-3.44.15-5.1-.11s-3.55-.52-5.3-.94c-2.32-.61-4.64-1.22-6.94-1.86a2.28,2.28,0,0,0-.77-.14,2.31,2.31,0,0,0-.81.38,2.63,2.63,0,0,1-.4.28,1.66,1.66,0,0,1-.91,0,7.9,7.9,0,0,1-1.74-.5c-.32-.22-.36-.63-.47-1a1.25,1.25,0,0,0-.74-.7c-1.87-.75-3.85,0-5.77,0-2.25-.4-4.38-1.44-6.68-1.64a2.66,2.66,0,0,0-2.19.48,1.44,1.44,0,0,0-.32,1.93,7.18,7.18,0,0,0,2.45,1.64c.58.31,1.46.59,1.19,1.42-.07.47-.37.93-.27,1.41.62,1.33,3.52,1,4.79,1.06,1.09,0,2.2,0,3.29,0,.86,0,1.47,0,1.92-.85a7,7,0,0,1,.55-.86,4.37,4.37,0,0,1,2.23-.45c1.41,0,2,1.26,1.85,2.52a15.68,15.68,0,0,0-.24,1.79c.33,1.25,2.56,1.28,3.62,1.52a63.19,63.19,0,0,1,8.05,1.67c3.16.86,6.2,2.14,9.3,3.17,2.32.61,4.65,1.18,6.93,1.93.76.23,1.51.53,2.26.81a2.47,2.47,0,0,0,1,.29c.55-.16.48-.89.37-1.33a4.54,4.54,0,0,0-2.13-2.59,24.8,24.8,0,0,1-2.68-1.88c-.22-.25-.81-.5-.67-.91.38-.36,1-.29,1.52-.33a12.89,12.89,0,0,1,2.63.34C636.55,301.62,640.44,303,640.25,300.75Z"/><path class="cls-5" d="M349.48,377.09c1.78-.4,1.09-7.94.84-9.66-1.39-1.95-3.07,1.33-1.56,2.17C349.26,371.8,347.32,375.86,349.48,377.09Z"/><path class="cls-5" d="M351.06,385.22a.92.92,0,0,0,1.79-.45c-1.22-2.13-.74-4.53-.89-6.91C349.35,373.79,349.84,384.15,351.06,385.22Z"/><path class="cls-5" d="M352.89,391.76a.93.93,0,0,0,0-1.85A.93.93,0,0,0,352.89,391.76Z"/><path class="cls-5" d="M363.23,380.45a.93.93,0,0,0,1.85,0A.93.93,0,0,0,363.23,380.45Z"/><path class="cls-5" d="M309.68,391.41c1.69,1.65,2.32-1.34.66-2.08-1.45-1-2.75,1.54-.84,1.72Z"/><path class="cls-5" d="M315.28,401.56c-1.24.08-1,1.27-.68,2.1a.92.92,0,0,0,1.79-.45C316.19,402.56,316.2,401.56,315.28,401.56Z"/><path class="cls-5" d="M309.6,408c-1.66.92-2,7,0,7.32,2.52-1.79-2.16-5.2,3.32-7.34C315.85,408.36,314.24,403.67,309.6,408Z"/><path class="cls-5" d="M270.87,421.84c.54-1-.68-1.69-1.44-1.23-3-1.35-2.24,5.36-.18,2.3C269.87,425.94,272.18,424.06,270.87,421.84Z"/><path class="cls-5" d="M282.39,436.66c-1.19-.09-2.28-1.32-3.41-1-1.76,1.61,1.82,2.42,2.92,2.78A.92.92,0,0,0,282.39,436.66Z"/><path class="cls-5" d="M561.3,416.27c.74-.3,2-.52,1.65-1.62-.39-.95-1.42-.44-2.12-.18C559.32,414.7,559.89,417,561.3,416.27Z"/><path class="cls-5" d="M572.77,411.59a.92.92,0,0,0-.46-1.78c-1.45,1-4.91.82-5.46,2.34C567.11,414.39,571.54,411.9,572.77,411.59Z"/><path class="cls-5" d="M582.1,414.1c2.89.55,3-2.27.09-1.84C580.33,411.89,580.13,414.67,582.1,414.1Z"/><path class="cls-5" d="M583,407.36a.92.92,0,0,0,0-1.84A.92.92,0,0,0,583,407.36Z"/><path class="cls-5" d="M586.64,401.78c2-.7,3.69-2.19,5.44-3.45a.92.92,0,0,0-1.09-1.49C590,398.34,584,399.9,586.64,401.78Z"/><path class="cls-5" d="M598.89,393.35c.62-.39,2-1,1.32-2-1.27-1.11-2.61,1-3.89,1.48a.92.92,0,0,0-.43,1.16C596.62,395.37,598,393.8,598.89,393.35Z"/><path class="cls-5" d="M606.39,385.33c-2.24,1.36.53,4.47,1,1.62,2.49-3.72,7-1.11,7.22-3.75a.93.93,0,0,0-1.12-.66C610.78,382.74,608.31,383.07,606.39,385.33Z"/><path class="cls-5" d="M612.65,374.86c5.06-4.32,14.42-1.54,16.23-4.28-1.31-2.36-19.34.7-18,4.66A1,1,0,0,0,612.65,374.86Z"/><path class="cls-5" d="M663.84,367.94a.89.89,0,0,0,1.19-.48c1.8.31,3,1.55,3.8.12-.45-2.26-4.51-1.59-6.24-2.94-2.43-3.31-7.26-1.16-1.1,1.53A3.64,3.64,0,0,0,663.84,367.94Z"/><path class="cls-5" d="M631.8,496.22a27.11,27.11,0,0,1-5.84-1.37c-.48-.88-2.25-.53-2.09.58C624.08,497.22,635.66,499.55,631.8,496.22Z"/><path class="cls-5" d="M638.05,485.68c-1.53.29-9.6-.83-6.81,2.25a.92.92,0,0,0,1.2-.22C633.77,487.47,641.66,488.19,638.05,485.68Z"/><path class="cls-5" d="M650.84,499.11c-1-.35-3.22-1.5-3.48.21.11,1.31,1.89.88,2.74,1.48A.92.92,0,0,0,650.84,499.11Z"/><path class="cls-5" d="M665.11,475.46c-.58,0-1.16-.1-1.74-.2-1-1.36-2.58.61-1.23,1.48a6.91,6.91,0,0,0,2.71.55A.92.92,0,0,0,665.11,475.46Z"/><path class="cls-5" d="M673.37,467.21c-3.5,1.55,3.22,3.18,3.19.77C676.22,466.48,674.4,467.65,673.37,467.21Z"/><path class="cls-5" d="M665.82,427.83c-4.24-.84,2.34,5.43,2.78,6.86C673,436.39,666.78,428.72,665.82,427.83Z"/><path class="cls-5" d="M688.86,427.46a23.43,23.43,0,0,0-.93,3.55.93.93,0,0,0,.64,1.13c1.33.28,1.22-1.41,1.5-2.26a16.32,16.32,0,0,1,.66-2.12A1,1,0,0,0,688.86,427.46Z"/><path class="cls-5" d="M720.67,419c-1.13,0-1,1.29-.73,2.06a.92.92,0,0,0,1.78-.45C721.57,419.91,721.57,419,720.67,419Z"/><path class="cls-5" d="M797.87,539.85c-2.73,1.12-42.48-3.9-35.28.17C765.51,539.64,803.77,544.29,797.87,539.85Z"/><path class="cls-5" d="M806.41,547.92a.92.92,0,0,0,0,1.84A.92.92,0,0,0,806.41,547.92Z"/><path class="cls-5" d="M823.4,533c-2.53.92-7.72,0-9,2.33,1.77,2,6.57-.7,9.23-.51A.92.92,0,0,0,823.4,533Z"/><path class="cls-5" d="M801.91,529.51c-1,0-3.28.27-2.25,1.78.74.64,1.81-.06,2.69,0,1-.25,3,.26,3-1.25C805,528.58,803,529.59,801.91,529.51Z"/><path class="cls-5" d="M799.87,514.31a.92.92,0,0,0-1.84,0A.92.92,0,0,0,799.87,514.31Z"/><path class="cls-5" d="M738.15,456.69c-.43,1-2.24,2.4-1,3.37.9,1.05,4.5-4.54,3.55-5.09C739.48,454,738.76,455.92,738.15,456.69Z"/><path class="cls-5" d="M759.79,636.52c-2-.14-2,3.35-3.13,4.62a.92.92,0,0,0-1.64.32,1.57,1.57,0,0,0-1.89.62c-1.92.55,0,3.07,1.18,1.48.16,3.5,2.91,4.19,2.91-.12C758.3,642.05,761.26,637.66,759.79,636.52Z"/><path class="cls-5" d="M749.61,649.79c-.67,1.05.14,3.56,1.58,3.21.93-.38.53-1.5,0-2.1C751.49,649.84,750.48,648.9,749.61,649.79Z"/><path class="cls-5" d="M748.64,659.07c.44,1.14-1.18,3.17.5,3.62,1.63-.12,1.41-2.89,1.28-4.1A.93.93,0,0,0,748.64,659.07Z"/><path class="cls-5" d="M477.69,480.9c-1.18-1.72-2.13.77-2.45,1.81-1,1.28-3,4-1.22,5.39,2.48.75,5.82-4.28,6.24-6.38.61-.17,1.21-.68.94-1.37C480.47,479,478.67,480.55,477.69,480.9Zm-2.3,4.94a4,4,0,0,1,.21-.47l.21.07Z"/><path class="cls-5" d="M467.22,470.23c-1.15,1-2.77,2.57-2.42,4.25-2.45,1.82-2.39,6.56-2.71,9.37.1,3.72,2.63,7.67.34,11.19a.93.93,0,0,0-.44,1.29c2,2.42,3.67-4,3.23-5.38-.9-4.56-2-9.06-.19-13.64,1.15.22,1.33-1.17,1-2.06a.88.88,0,0,0,.55-1.25c.23-2.14,3.86-2.66,3.56-4.66C469.3,468.11,468,469.67,467.22,470.23Z"/><path class="cls-5" d="M493.83,466.4c-5.34,2.22-11.15.12-16.67,1.51-1.18-.79-2.09,1.08-.87,1.68,1.75.49,3.59-.44,5.38-.43,2.12-.08,4.25.17,6.36.21C489.36,469.81,498.2,467.81,493.83,466.4Z"/><path class="cls-5" d="M500.52,485.07c4.81,2.07,9.72-1.71,14.75-.07-1.4.13-8.32,4.82-3.85,4.53a18.14,18.14,0,0,1,4.4-2.8c.74-.07,1.89.13,2-.85a21.15,21.15,0,0,0,3,.75c-.62,1.63-3.64,3.12-2.57,4.85,1.35.85,2.07-1.48,2.91-2.19.38-.65,1.44-1.5,1.5-2.28a11.6,11.6,0,0,1,3.12,1.05.92.92,0,0,0,1.54.69c1.35.37,4.82,2.19,5.21.06.91-1.05-1-2.2-1.54-.92-7.28-2.14-14.47-5.48-22.25-5.09-2.19.61-4.51,1.73-6.79.85-.62-.82-2.06-.59-3-.79C494.91,483.55,497.84,486.12,500.52,485.07Z"/><path class="cls-5" d="M443.33,375.63c-1.48,1-.6,3.59-1.72,5-1.44,2.18-4.46-3.05-4.79,5.31-12.16,1-7.72,8.39-6.4,4.71-.25-.72.46-1.12,1-1.5,4.8-2.14,7.39.8,7.72-6.33,3.95,1.31,5-2.53,5.27-5.62A1,1,0,0,0,443.33,375.63Z"/><path class="cls-5" d="M424.71,398a.92.92,0,0,0,0,1.84A.92.92,0,0,0,424.71,398Z"/><path class="cls-5" d="M517.61,344c2,.45,4.62,11.75,5.8,6.71C518.35,335.4,513.15,345.82,517.61,344Z"/><path class="cls-5" d="M460.33,573l-.3-.12c-.31-.68-1.4-.39-1.7-1.15,1.25-.7-.12-2.42-1.15-1.47-5.17-.63-3.4,3,.83,3.67a9.49,9.49,0,0,0,1.58.76A.92.92,0,0,0,460.33,573Z"/></g><g id="レイヤー_3" data-name="レイヤー 3"><path class="cls-20" d="M884.21,513c-5.12-28.18-15.14-56.94-36.27-77.22-5-4.58-9.46-9.71-14.24-14.52-6.62-6.61-14.33-12-21.22-18.3s-15.1-10.84-23.22-15.38c-6.24-3.59-13.07-5.9-19.66-8.72-8.46-4.24-16.86-8-26.13-10.14l-2.27-.67a2.38,2.38,0,0,0,.07-1.31,139.87,139.87,0,0,0-4.84-13.54c-2.81-5.25-5.67-10.6-9.52-15.17a97.31,97.31,0,0,0-25.58-20c-3.71-2.18-7.16-4.82-11.09-6.62-5.79-2.85-12-4.71-17.72-7.72a130.66,130.66,0,0,0-20.88-9.05c-6.24-2.21-12.54-4.79-19.09-6.32-6.21-1.37-12.37-3-18.66-4.06-4.53-.68-9.07-1.18-13.59-1.87a224.91,224.91,0,0,0-28.64-2.08c-4.39,0-8.8,0-13.18-.27-4.57-.27-9.07-1.31-13.66-1a28,28,0,0,1-5-.93,2.26,2.26,0,0,0-1.42.46A101.24,101.24,0,0,0,528,278c-13.08-.29-26,.58-39.09.75-5.31.15-10.61.47-15.9.85-8.17.21-16.35.09-24.49.84-7.22.55-14.45,1-21.63,1.93a158.12,158.12,0,0,0-23.52,3.2,220.73,220.73,0,0,0-40,10.65c-5.94,1.89-11.84,3.92-17.72,6-6.8,3.09-13.74,6-20.44,9.36-8.52,3.87-16.59,8.68-24.67,13.38-4.46,2.91-9,5.72-13.31,8.86-3.88,3.36-7.74,6.76-11.44,10.32A92.37,92.37,0,0,0,265.22,356a7.7,7.7,0,0,0-1.57,3c-5-8.35-9.81-16.79-15.69-24.57-5.12-7.16-10.36-14.24-15.62-21.31-5.66-7.85-10.43-16.29-15.71-24.4-7.95-12.15-16.85-23.63-25.63-35.19-5-7-9.47-14.52-14.2-21.78-6.33-9.83-13.37-19.14-20.43-28.44-5.66-8-10.57-16.55-16-24.72-3.15-5.16-7.17-9.88-10.79-14.77a5.73,5.73,0,0,1-1.33-1.36c-.28-.37-.54-.76-.81-1.13l0,0-.88-1.14a3.23,3.23,0,0,1-.65-.44,3.33,3.33,0,0,1-.39-.36l-.2-.15a1.82,1.82,0,0,0-.47-.31l.16-.15c-.21-.28-.41-.58-.62-.87l.17.24c-.25-.34-.5-.68-.73-1s-.3-.46-.43-.7l-.37-.47-.23-.31c-.56-.72-1.1-1.46-1.69-2.16l-.39-.24c-.41-.25-.83-.49-1.26-.7l.27.13c-.93-.44-1.84-.93-2.77-1.38a.31.31,0,0,1,.1.05l-1-.49a10.32,10.32,0,0,1-1.13-.64,9,9,0,0,0-1,0c-2.84.41-5,2.57-7,4.5-4.67,4.24-9.29,14.43-1.73,18a10,10,0,0,0,.5,1.46A68.49,68.49,0,0,0,115,191.25c7.86,10.1,14.53,21.1,20.84,32.25,5.49,8.65,10.41,17.64,15.92,26.27a276.54,276.54,0,0,0,17.17,23.4c4.2,5.27,7.52,11.17,11.36,16.7,6.23,9.49,12.67,18.82,20.42,27.14,9.06,11.19,16.16,23.78,24,35.79,6.25,9.3,13.58,17.8,19.94,27,1.13,1.56,2.23,3.12,3.32,4.7h0c-.59,1.8-1.1,3.64-1.58,5.47a69.18,69.18,0,0,0-2,21.44,2,2,0,0,0-.11.65c0,1.81,0,3.62-.09,5.44-.21,6.82-.36,13.65-.77,20.46-1.84,18.82-1.71,38.11-1.62,57.07a514.26,514.26,0,0,0,.62,57.56c.48,10.82,2.31,22,3.34,32.84,1.61,10.13,1.47,20.5,3.69,30.53,1.18,6.11,3,12.09,4.18,18.19,1,5.51,1.78,11.07,2.82,16.58,1.73,10.3,4.74,20.78,7.4,30.94,2.95,10.27,5.64,20.75,10.36,30.39,3.87,7.62,8.79,14.64,13.07,22,6.1,9.92,11,20.53,17.59,30.16,6.11,8.6,13,16.58,19.64,24.77A102.91,102.91,0,0,0,337,803.42a340.9,340.9,0,0,0,27.7,22.29c6.1,4.13,12.56,7.71,18.62,11.91a85.25,85.25,0,0,0,13,6.86c6.65,3.41,13.61,6.3,20.55,9.37,9.19,4.12,18.28,8.44,27.5,12.47,5.31,2,11,2.76,16.4,4.42l.13,0a2,2,0,0,0,.32.11,18.48,18.48,0,0,0,6.44,1.9c2.71.23,5.42.16,8.13.33,4.19.56,8.36,1.23,12.58,1.39,9.05.52,18.11-.17,27.12-.85a163.54,163.54,0,0,0,23.08-2.87c9.19-2.31,18.27-5.09,27.55-7,9.18-2.24,18.61-3.11,27.83-5.15a162.81,162.81,0,0,0,18.29-5.86c6-2.46,12.17-4.33,17.85-7.44s10.93-7.23,16.11-11.25a183.2,183.2,0,0,0,26.88-22.93c8.55-7.56,17.66-14.89,25.51-23.3,3.4-3.71,6.19-7.91,9.32-11.84,4.15-5.19,8.23-10.44,12.07-15.87,3.59-5,6.43-10.45,9.68-15.66s7.28-10.23,10.5-15.6c5.33-9.85,9-20.54,12.18-31.24a228,228,0,0,0,6.48-22.77c1.76-9.06,4.92-17.75,7.11-26.69,1-6.16,1.86-12.37,2.49-18.58,1.35-13.41-.84-26.85.67-40.29a171.22,171.22,0,0,0,.25-18.68,150.36,150.36,0,0,0-3.06-19.33,2.32,2.32,0,0,0-2.8-1.67c-2.29.63-1.7,3-1.22,4.74.66,4,1.65,7.95,2,12,1.58,11.33-.19,22.74-.34,34.1-.12,9.41,1,18.83,0,28.22-.6,6.18-1.51,12.71-2.52,18.9-1,4.24-2.44,8.34-3.6,12.53-1.69,5.85-3,11.79-4.31,17.73-2,7.53-4.44,14.91-6.68,22.36-3.76,11.59-7.77,23.42-15.18,33.24-5.61,7.49-9.84,15.85-15.06,23.58-6.74,9.35-13.88,18.43-21.08,27.42A267.71,267.71,0,0,1,671.82,806c-7.33,7.14-14.26,14.29-22.76,20.17-8,5.77-15.39,12.65-24.49,16.77-9.07,3.69-18.13,7.45-27.58,10-7.78,2.46-16,3.08-23.94,4.64-12.45,2.32-24.59,5.9-36.85,9-4.35.7-8.72,1.26-13.07,1.92-15.2,1.1-30.67,2.81-45.81.14-3.91-.5-7.95.14-11.78-.94-1.14-.35-2.19-1.06-3.35-1.29-1.22-.55-2.93-.67-4.17-1.18-3.77-1-7.28-1.49-11.14-2.87-5.29-2-10.28-4.68-15.42-7-9.24-4.14-18.52-8.17-27.73-12.36-5.57-2.93-11.64-5.13-16.92-8.64-6.62-4.46-13.53-8.46-20.16-12.89-5.22-3.74-10.26-7.82-15.26-11.87a121.38,121.38,0,0,1-17.92-16.53c-8.81-11.61-19.16-22.63-27.16-34.91-5.46-8.73-10-18.19-15.46-27-4.52-7.64-9.6-15-13.49-23a176,176,0,0,1-7.79-23c-2.89-10.48-5.83-21-8-31.62-2.07-11.4-3.62-22.9-6.73-34.1-2.42-9-2.65-18.24-3.71-27.44-1.54-14.42-3.73-28.67-4.4-43.18a464.06,464.06,0,0,1-.42-51.43c.14-18.6-.46-37,1.35-55.59.37-4.72.62-9.58.79-14.45a59.42,59.42,0,0,0,3.31,7.32,80.9,80.9,0,0,0,15.58,22.58,51.55,51.55,0,0,0,9.38,8.14.37.37,0,0,1,0,.11,6.11,6.11,0,0,0,1.8,2.36,75.94,75.94,0,0,0,6.71,5.83c6,4.26,12.72,7.43,19.44,10.41,3.65,2,7.2,4.29,10.93,6.2a2.17,2.17,0,0,0-.13,2.41c4.83,6.89,11.25,12.45,16.65,18.87,3.91,4.57,7.45,9.87,11.63,14.27,5.65,5.91,10.9,12.16,16,18.53a2.37,2.37,0,0,0,1.26.86,3.7,3.7,0,0,0,1.73,2.82,2.79,2.79,0,0,0,1.53.3,4.33,4.33,0,0,0,1,.63,33.37,33.37,0,0,0,8.21,2.87c3.31.34,6.64.41,10,.61,3.72.26,12,.8,9.25-5.27-2-3.2-5.38-5.3-8.12-7.84a216.34,216.34,0,0,1-15.56-17.16,206.4,206.4,0,0,0-14.73-18.61,101.36,101.36,0,0,0,22.9,5c9.16,1.19,18.32,2.53,27.42,4.15a121.64,121.64,0,0,0,13,2.47c3.95.58,7.94.83,11.93,1.06,7.8.67,15.39,2.81,23.18,3.62a237.67,237.67,0,0,0,29.95,1.1c7,0,14,.66,21,.49,13.28,0,26.43-1,39.74-2.14,6.57-.83,12.9-2.88,19.39-4.12a127.39,127.39,0,0,0,20.91-5.73c10.08-3.67,20.13-7.42,30-11.61a2.3,2.3,0,1,0-1.7-4.28l-1.26.5q-4.14,1.77-8.32,3.44c-8.82,3.39-17.62,6.81-26.6,9.74-6.79,2.3-14.39,3.35-21.41,5.09a87.43,87.43,0,0,1-18.36,3,369.64,369.64,0,0,1-46,1.26c-9.68-.61-19.4.14-29.08-.61-9.09-.44-18-2.42-26.92-3.87-5.23-.7-10.51-.67-15.73-1.49-8.26-1.1-16.34-3.46-24.69-4.32-9-1.67-18.25-2.27-27.26-4.08-4.1-.91-8.73-2.53-12.85-3.85a217.07,217.07,0,0,1-22-7,111.37,111.37,0,0,1-13.27-5c-3.16-1.57-6.32-3.54-9.62-5.47s-7.09-3.21-10.54-5c-6.29-3.3-12.41-7-17.27-12.39l-.1-.12a2.18,2.18,0,0,0-1.08-1.7c-8.22-5.41-14.45-13.39-19.79-21.55-2-3.53-3.72-7.21-5.61-10.8A85.25,85.25,0,0,1,249.15,413a57.45,57.45,0,0,1,1.07-19.12c.3-1.42.66-2.95,1.08-4.49,2.64,3.92,5.22,7.89,7.8,11.87a2.27,2.27,0,0,0-.72,1.64,92.45,92.45,0,0,0,.07,10.66C259,419,261.27,424,263.28,429c2.2,7.18,7.18,11.9,13.42,15.69,4.48,3.46,8.06,8,12.91,11.05a208.28,208.28,0,0,0,36.12,18.06c7,2.62,14.24,5,21.37,7.41,3.49,1.12,6.8,2.75,10.35,3.68,5.32,1.32,10.61,2.79,16,3.64,5.38.69,10.68,1.79,16,3,7.73,1.63,15.59,2.37,23.37,3.67,10.48,1.51,20.92,3.37,31.53,3.65,13.84.35,27.75,2.62,41.68,2.41,7.26.37,14.43-.68,21.63-1.35,5.23-.28,10.45-.23,15.66-.76a218.85,218.85,0,0,0,22.22-3.18c7.66-1.27,15.38-2.07,23-3.71,5.83-.89,11.53-2.36,17.29-3.59s11.7-2.16,17.45-3.69c11.63-2.72,22.47-7.74,33.65-11.77,9-2.9,17.89-6,26.21-10.43,2.89-1.62,6-2.92,8.67-4.92a2.3,2.3,0,0,0,.91-1.62c7,.69,12.31,12.19,15.15,17.84,3.32,7.07,6,14.84,8.63,22.26,3.59,9.55,7,19.17,10.53,28.75.84,3.35,2.73,5.05,6.16,5.39,3.82.86,7.45,2.32,11.2,3.41,3.92,1,7.58,1.67,11.36,3.27,6.66,2.73,13.3,5.53,20,8.17,5,1.65,10,3.37,14.89,5.33,5.16,1.85,10.3,3.91,15.62,5.25,4.47.82,9,1.09,13.53,1.69a49.73,49.73,0,0,1,9.68,1.79c4.87,1.79,9.24,4.58,13.74,7.1,3.49,1.84,8.18.71,11.31,3.14a2.24,2.24,0,0,0,2,.92c.31,1,1.25,2,3.14,2.63a56.61,56.61,0,0,1,8.78,3c2.83.93,5.78,1.38,8.63,2.24a22.42,22.42,0,0,1,9,3.71c1.29.86,2.35,2.1,3.84,2.6a2.33,2.33,0,0,0,2.84-1.6,2.26,2.26,0,0,0,0-1.29c3.08-.78,6.16-5.93,8.07-8.24C889.07,557.18,887.1,530.8,884.21,513ZM346.55,501.35a13.57,13.57,0,0,0,1.61,2.3c2.43,2.88,5.07,5.57,7.46,8.5,3.31,3.88,6.3,8.18,9.33,12.31,3.82,5,8.16,9.51,12.37,14.15,3,3.5,6.78,6.26,10.14,9.43-6.91-.34-14.45.39-20.54-3.44a2.44,2.44,0,0,0-1.63-.48l-.11-.11a2.23,2.23,0,0,0-1.22-.84,2.26,2.26,0,0,0-.46-1.44c-6.15-7.87-12.93-15.17-19.57-22.6-3.83-4.89-7.72-10.14-12-14.69-3.55-3.8-7.25-7.49-10.53-11.54,3.06,1.16,6.26,2.15,9.26,3.2A166.69,166.69,0,0,0,346.55,501.35ZM109.62,158.55c1.44-1.23,3.1-3.71,5.07-3.71a2.54,2.54,0,0,1,1.27.36,3.16,3.16,0,0,0,1.84,1.31c.86.55,1.93,1.46,1.79,2.59l0-.12c-2.13,3.66-8.18,9.68-12.64,9.44l.15.09a3.27,3.27,0,0,1-.72-.43C104.63,165,107.54,160.86,109.62,158.55ZM281.19,442.3c-7.79-5.57-11.1-7-14.3-16.73a53.52,53.52,0,0,1-3.61-10.82,34.86,34.86,0,0,1-.39-7.63l.36.54c4.4,6.45,9.33,12.54,13.56,19.11,2.33,3.68,4.17,7.63,6.31,11.43s4.88,7.47,7.06,11.34a11.88,11.88,0,0,0,.53,1.33C287.26,448.33,284.33,445.21,281.19,442.3Zm24.45,17.3c-2.08-1.08-4.15-2.19-6.19-3.33a2.54,2.54,0,0,0-.43-1.09c-1.37-2-2.8-3.94-4-6a2.67,2.67,0,0,0-.12-.51,20.19,20.19,0,0,0-2.3-3.94c-4.78-6.74-8.15-14.36-12.54-21.35-4.3-6.6-9.29-12.72-13.69-19.26-4.24-6.27-8-12.85-12.45-19-8.89-13.58-19.71-25.78-28.4-39.49-5.93-9.5-12.13-19.46-18.89-28.5-4.62-6-9.89-11-14.12-17.41-6.43-9-12.24-18.46-18.57-27.55-3.43-4.37-6.89-8.71-10.26-13.13-9.51-12.82-17.09-26.92-25.44-40.49a245.7,245.7,0,0,0-18.61-28.7,64.79,64.79,0,0,1-8.8-15.25,10,10,0,0,1-.72-1.91c4.67-1.3,9.13-5.72,11.87-9,.13-.14.23-.28.34-.41l.34,0h.14a2.72,2.72,0,0,1,.24.24,2.31,2.31,0,0,0,1,.62c.59,1,1.38,1.92,2,2.71,3.28,4.41,6.8,8.66,9.81,13.27,5.11,7.74,9.83,15.75,15.05,23.46,4.81,7.1,10.48,13.57,15.23,20.72,9.46,13.17,17,27.69,27.44,40.21a457.58,457.58,0,0,1,28.52,41.66c5.93,9.59,13.12,18.3,19.57,27.53,3.53,4.81,7,9.68,10.25,14.67,4.05,6.56,7.69,13.37,11.9,19.83,3.76,5.63,7.27,11.43,11,17.09,4.34,6.31,8.56,12.7,12.41,19.34,4.68,7.91,9.2,15.93,14.58,23.4s10,15.38,15.17,23c4,6.38,8.79,12.25,12.12,19a2,2,0,0,0,.18.23v0A188.9,188.9,0,0,1,305.64,459.6ZM548.9,490.72c-6.1.86-12.11,2.26-18.22,3-8.13,1-16.27,1.31-24.44,1.62a153.58,153.58,0,0,1-27.72,1.11c-9.57-.14-19.28-1.64-28.91-2-12.52-.18-25-2.05-37.37-4-4.73-.86-9.53-1.24-14.27-2-5.83-1-11.51-2.31-17.38-3.38a167.91,167.91,0,0,1-24.14-5.18c-7-2.77-14.22-5.11-21.38-7.55a2.86,2.86,0,0,0-.63-1.65,12.12,12.12,0,0,0-1.08-2.24,2.17,2.17,0,0,0-.22-.6c-2.28-4.77-5.46-9-8.4-13.36-2.62-4.06-5.32-8.05-8-12.08q-7.45-11.56-15.27-22.88c-5.05-8-9.63-16.27-14.63-24.3-6.62-10.22-13.4-20.35-19.91-30.65-.52-.83-1-1.67-1.53-2.51a2.32,2.32,0,0,0,2.57-1.33,5.48,5.48,0,0,1,1.11-2.14c4.74-6.46,10.6-12,16.6-17.27,5.19-5.12,11.62-8.67,17.65-12.69A295.44,295.44,0,0,1,335.06,312c3.83-1.75,7.65-3.45,11.47-5.2,5.07-1.93,10.26-3.53,15.38-5.3,5.34-1.65,10.64-3.72,16-5.38,8.34-2.62,17-4.12,25.53-5.9,6.11-1.05,12.52-2.55,18.77-2.9,8.29-.65,16.53-1.69,24.83-2.19,10.86-1.06,21.87-.47,32.76-1.41,15.26-.48,30.58-1.26,46-1.13a67.3,67.3,0,0,1,9.63.44c1.41,0,3.39.57,4.69,0,3.77,1,7.72.32,11.54,1,10,1.46,20.14.51,30.18,1.25,7.51.56,15,1.11,22.45,2.37a182.86,182.86,0,0,1,24.7,4.59c10.83,2.51,21.18,6.73,31.54,10.7,6.26,2.73,11.86,6.19,18.35,8.68,3.62,1.39,7.19,2.87,10.67,4.59,3.55,1.9,6.79,4.31,10.29,6.3A95.13,95.13,0,0,1,717.35,335a51,51,0,0,1,11.9,14.84c2.49,3.69,4,7.84,5.59,12,.44,1.77,1.21,3.39,1.7,5.13a27,27,0,0,0-7.08-.57c-4.78.21-9.54.6-14.33.44a2.43,2.43,0,0,0-.47.08c-2.46,0-4.91.1-7.36.19A155.38,155.38,0,0,0,681,369.71a2.15,2.15,0,0,0-1.65-1.95l-1.43-.32c-.29-1.2-1.7-2-2.89-2.53-4.25-2.22-8.92-3.32-13.41-4.91-5.79-2.27-12.14-5-15.6-10.39a25.44,25.44,0,0,1-3.07-7.45c-.2-1.28.58-2.51,1.06-3.65.71-1.29,1.64-2.69,1.45-4.23a10.24,10.24,0,0,0-1.94-3.87c-3.52-4.79-8.52-8.26-13-12.11-3.43-3.1-7.69-.21-11,1.68a244,244,0,0,0-30,19.31c-3.78,1-7.77.21-11.56-.34-4.62-.75-9.31-1-14-1.49-6.78-.51-13.59-1.39-20-3.65-8.15-2.77-15.48-7.43-23.66-10.11-4.53-1.6-9.3-2.24-14-3a74.31,74.31,0,0,0-28.2-.27c-9,2.61-16.46,9.18-25.65,11.3a2.17,2.17,0,0,0-1.79,1.32c-1.89.23-3.77.43-5.65.7-4.51.48-8.62.69-13.22,1-16.91.57-33.73,5.62-49.31,12.08-4.33,1.44-7.36,5-11.06,7.46-1.86.91-3.92,1.2-5.81,2-5.59,2.73-9.67-4-15.15-3.6-5.66-.1-10.34,3.14-14.6,6.5-3.87,2.73-7.22,6.07-10.76,9.21-9.78,8.17-19,16.58-29.17,24.33a9.51,9.51,0,0,1-3.53,1.54,2.37,2.37,0,0,0-2.59,2.29,2.33,2.33,0,0,0,2.28,2.32c6.24-.44,10.55-5.87,15.24-9.43,7.77-6.33,15.22-12.85,22.85-19.4a81.21,81.21,0,0,1,8.93-7.53c15.42-12.39,14.29,1.39,26.55-1.43,2.6-.95,5.32-1.56,7.84-2.73,3.24-1.81,5.64-4.88,9-6.54,14.15-6.15,29.12-10.68,44.49-12.27,7.51-.36,15.09-.66,22.56-1.72,1.93-.36,5.32,0,6-2.08,1-.33,1.92-.73,2.69-.94,5.84-2.46,11.38-5.55,17-8.43,3.78-1.92,8.08-2.14,12.23-2.44a74.54,74.54,0,0,1,18.13,1.33c4.63.75,9.32,1.34,13.75,3,7.76,2.61,14.73,7,22.47,9.69,9,3.36,18.61,3.81,28,4.75,4.41.25,8.73,1.2,13.13,1.57,4.81.48,9.08,0,12.62-3.63,3.67-2.84,7.53-5.42,11.44-7.92,4.48-2.86,9.13-5.44,13.75-8.07a29.9,29.9,0,0,1,6.18-3.13,39.43,39.43,0,0,1,5,4c3.22,2.78,6.81,5.36,8.85,9.2-1.34,2.67-3.13,5.59-2.29,8.69,1.36,5.4,4.06,10.69,8.57,14.12a49.74,49.74,0,0,0,12.52,6.62c4.64,1.68,9.58,2.81,14,5.18a2.34,2.34,0,0,0,.49,1.59l-3.74.69c-11.14,2.39-21.82,6.68-32.37,10.94a133.35,133.35,0,0,0-29,14.78c-1.05,0-2.11.05-3.16.05a2.33,2.33,0,0,0-2.32,2.29,2.26,2.26,0,0,0,.36,1.22c-2.06,1.49-4.09,3-6.08,4.59-4.49,3.67-9.2,7.12-13.31,11.24-4.87,4.63-10,9.45-12,16.1a58.59,58.59,0,0,0-2.6,8.36c-.81,8.08,1.28,16.07,2.54,24,.76,4.77,2,10.13,3.13,15,.63,1.66.41,4.52,1.92,5.58C567.93,487.77,558.46,489.51,548.9,490.72Zm265,65.51c-10.18-4.79-22.08-2.47-32.45-6.64-6.63-2.13-13-4.88-19.61-7.13-6.93-2.14-13.52-5.2-20.24-7.88a87.13,87.13,0,0,0-9.35-3.54c1.21-.49,2.44-1.32,3.38-1.78A87.26,87.26,0,0,1,749.53,523a74.7,74.7,0,0,0,14.46-6.4c4-2.4,7.43-5.45,11.09-8.26,4.86-4,9.56-8.42,15.45-11,1.6-.66,3.23-1.72,5-1.4a2.22,2.22,0,0,0,1.93-1,53.76,53.76,0,0,1,8.32,4.23c3.48,2.5,5.9,6.1,8.81,9.19,10.51,10.86,17.75,25,18.52,40.3.24,4.94.18,9.9.4,14.84a2.62,2.62,0,0,0,.09.56c-2.54-.7-5.2-.85-7.76-1.51C822,560.74,818.27,558,813.92,556.23Zm35.74,15.42c-2.88-1.45-6.07-2-9.06-3.16a2.6,2.6,0,0,0-2.18-1.11,4.45,4.45,0,0,0-1.45-1.87,2.21,2.21,0,0,0,1.17-2c-.18-4-.18-8.09-.29-12.13-.06-17.53-8.13-34.31-20.32-46.67-3.33-3.73-6.32-7.89-10.76-10.41-1.77-1-3.62-1.86-5.48-2.72-1.81-1-5-2.37-6.09-.27-4-.13-7.64,2.44-11.1,4.21-9.58,6-16.83,15-27.32,19.66-7.78,3.49-16.1,5.67-23.49,10.09-1.71,1.28-5.36,1.61-4.78,4.45a3.34,3.34,0,0,0,.17.38L728,530c-5.33-1.24-10.38-3.48-15.78-4.49-7.36-17.84-12.65-36.81-20.73-54.45-3.69-7.35-7.9-15.79-15.94-19.07-2-.72-5.48-1.07-5.75,1.72a1.83,1.83,0,0,0-.78.38,9.53,9.53,0,0,1-.81.61c-1.68,1.05-3.47,1.89-5.19,2.86a118,118,0,0,1-12.89,6c-7.19,2.93-14.7,5-21.9,7.87-5.51,2-10.82,4.51-16.43,6.22a177.09,177.09,0,0,1-23.61,5.69q-3.84.89-7.69,1.71a2.76,2.76,0,0,0,.17-2.49c-.43-1.81-.8-3.63-1.22-5.44-1.2-4.7-2.12-9.45-2.92-14.23-1-7-2.95-14.07-2.19-21.28,1.27-4.6,2.59-9.28,5.31-13.3,5.74-7.21,13-13.06,20.21-18.77,3.43-2.66,6.9-5.26,10.48-7.72a49.56,49.56,0,0,0,8.3-1.28,118.22,118.22,0,0,1,14.15-2c7.26-.55,14.35,1.32,21.53,2.11a180.21,180.21,0,0,1,25.59,5.1,311.31,311.31,0,0,1,29.83,9.05c7.17,2.87,14.52,6.13,21.55,9.44a138.11,138.11,0,0,1,12.84,7.5c9.13,5.41,18.45,10.49,27.14,16.6,7.11,4.83,13.28,10.67,19.73,16.33s14,10.09,20.4,15.92c9.5,9,20,16.6,28.53,26.65,7.71,7.63,14.83,15.94,19.5,25.83,2.42,5.31,4.64,10.73,6.53,16.26a74.05,74.05,0,0,1,3.26,24.92,12.37,12.37,0,0,1-.49,3,2.4,2.4,0,0,0-.29.77c-.36-.25-.72-.49-1.1-.72C862.08,573.94,855.57,573.52,849.66,571.65Zm30.71-11.28c-1,4.58-2.22,10-5.78,13.6l-.69.88c.72-8.45-2.06-23.18-3.29-26.05-4.32-13.09-10.11-26-19.41-36.33-3.69-4.06-7.62-7.89-11.27-12-6.46-7.11-14-13.08-21.27-19.33a138.35,138.35,0,0,0-18.59-15.11c-7.85-5.61-14.3-12.9-22.17-18.49-8.27-6.32-17.31-11.52-26.32-16.72-9.16-5.48-18.14-11.33-28.19-15.12-16.79-7.92-34.87-12.64-52.86-17-10.64-2-21.41-3.54-32.17-4.79a81.39,81.39,0,0,0-18,1.67c.72-.4,1.44-.8,2.17-1.19,6.13-3.5,12.78-5.86,19.3-8.51,6.55-2.85,13.37-5,20.1-7.38a109,109,0,0,1,15.76-3.6,196.6,196.6,0,0,1,23.4-3.11c4.6-.13,9.77-.35,14.46-.38a2.5,2.5,0,0,0,.61-.09,85.74,85.74,0,0,0,9.88-.28,36.88,36.88,0,0,1,9.79.35c2.72.6,5.95,1.67,8.79,2.39,9.45,2.16,17.83,7,26.68,10.78,10.85,3.95,21,9.62,30.65,15.92,5.28,3.74,10,8.21,14.95,12.33,3.43,3,7.05,5.7,10.47,8.69,4.92,4.56,9.27,9.7,14,14.41,18.76,16.71,30.09,40.49,35.4,64.79C881.62,520.12,883.94,540.54,880.37,560.37Z"/><path class="cls-20" d="M789.28,479.65c-4.33-3.46-8.49-7.12-13.09-10.24a79.92,79.92,0,0,1-7.05-5.44,264.08,264.08,0,0,0-34.08-24.65,57.92,57.92,0,0,0-9.56-4.15,32.22,32.22,0,0,0-8-2.27c-1.37-.29-2.9-.69-4,.41-1.67,1.83-1.6,4.6-2,6.92-.58,7.8-1,15.62-1.66,23.43-.56,5.55-1.29,11.09-2.34,16.57-.41,2-1.65,5,1.32,5.66,1.8.28,2.7-1.47,2.81-3,.61-2.71,1.09-5.44,1.49-8.19,1.18-7.52,1.61-15.13,2.31-22.7.28-4.87.18-9.79,1.15-14.59a45,45,0,0,1,9.65,3c4.88,1.65,9.15,4.51,13.39,7.34a178.13,178.13,0,0,1,17.93,12.8c5.64,4.39,10.9,9.25,16.82,13.25,4.7,3.29,9.06,7.06,13.45,10.75a2.3,2.3,0,0,0,4.32-1.09C792.09,481.65,790.41,480.72,789.28,479.65Z"/><path class="cls-20" d="M704.73,429.47a83.8,83.8,0,0,0-34.82-8.83,86.87,86.87,0,0,0-14.06.25c-7.26.72-14.33,2.59-21.54,3.62-4.5.91-10.18,4.86-6,9.61,3.67,6.55,7.75,13.09,13.11,18.39a2.33,2.33,0,0,0,3.24-.35c1.68-2.22-1.12-3.72-2.29-5.31a111.35,111.35,0,0,1-10.74-16.07h0c2.76-2.38,6.73-2,10.09-2.85,16.95-4,35.1-4,51.72,1.68a69.7,69.7,0,0,1,7.78,3.24,8.21,8.21,0,0,0,2.64,1.06A2.31,2.31,0,0,0,704.73,429.47Z"/><path class="cls-20" d="M620.89,437.36c-6.76-2.74-14.06,1.36-18.1,6.82-3.54,5.83-4.42,13.49-3.81,20.19a53,53,0,0,0,3.58,12,2.3,2.3,0,0,0,3.74-2.68c-1.14-3.61-2.63-7.64-2.9-11.56-.07-5.16.55-10.56,3.06-15.2,2.94-3.81,7.95-7.3,12.88-5.26C622.7,443.15,624.47,438.17,620.89,437.36Z"/><path class="cls-20" d="M494.35,757.06c-1-3-3.3-5.24-5.07-7.78-3.67-5.17-7-10.58-10.46-15.9-4.89-8.38-11.27-15.68-16.73-23.65-4.25-6.84-8.75-14.1-13.48-20.75-2.82-4-5.69-8.05-8.42-12.16-3-5-5.79-10-9.05-14.81-5.28-8.73-12-16.64-16.61-25.76-8-14.72-18.82-27.62-27.12-42.14-1.93-3.45-4.12-6.81-5.7-10.43a2.34,2.34,0,0,0-2.28-2.17c-4.56.72-1.19,5.76.15,8.15,7.65,14.25,17.35,27.22,26.22,40.71,2.67,4.17,4.89,8.59,7.34,12.89,6.44,10.37,13.89,19.87,19.94,30.58,3.35,6.16,7.6,11.76,11.58,17.52,5.84,8.06,10.63,16.65,16.35,24.9,2.76,3.88,5.9,7.49,8.62,11.43s5.34,8.25,8,12.36c2.78,4.39,5.57,8.79,8.64,13,1.34,1.85,3,3.51,3.76,5.72a3.07,3.07,0,0,0,.17.31c-3.25,2.34-6,5.6-9.79,7-1.62.6-3.8.72-4.85-.89a93.6,93.6,0,0,1-5.88-8.49c-7.39-11.88-14.1-24.24-22.53-35.44-7.7-9.95-13.8-21-21.26-31.15-9.57-13.57-17.56-28.32-27.31-41.87-6.05-7.92-10.74-16.76-16.1-25.15-4.46-7.41-10-14.64-14.18-22.32-4.37-8.34-8.48-16.94-14.52-24.23-1.25-1.57-2.46-3.79-4.67-4a2.3,2.3,0,0,0-.9,4.43c1.28,1.28,2.23,2.87,3.4,4.26,5.41,6.91,9,15,13.17,22.69,4.16,7.47,9.41,14.25,13.8,21.58,4,6.36,8.09,13.36,12.24,19.81,8.69,11.71,16.29,24.15,24,36.52,7.09,10.85,14.82,21.25,21.56,32.32,4,6,8.63,11.51,12.54,17.54,4.83,7.25,9.14,14.8,13.71,22.21,2.38,4,4.78,7.94,7.49,11.7,1.39,1.79,2.63,3.92,4.8,4.82,4.58,1.9,9.63-.65,13.07-3.7,1.7-1.42,3.44-2.78,5.16-4.17a2.33,2.33,0,0,0,.59-3.06A2.23,2.23,0,0,0,494.35,757.06Z"/></g></svg>