<svg xmlns="http://www.w3.org/2000/svg" viewBox="0 0 396 396"><defs><style>.cls-1{opacity:0.33;}.cls-2{fill:#753013;}.cls-3{fill:#e0e0dc;}.cls-4{fill:#ce0c02;}.cls-5{fill:#a9824d;}.cls-6{fill:#806506;}.cls-7{fill:#ae0b06;}.cls-8{fill:#aece5d;}.cls-9{fill:#883306;}.cls-10{fill:#d24d45;}.cls-11{fill:#c5a078;}.cls-12{fill:#c8893a;}.cls-13{fill:#ba6b09;}.cls-14{fill:#5d8d01;}.cls-15{fill:#e4dbcf;}.cls-16{fill:#c0b2a0;}.cls-17{fill:#646250;}.cls-18{fill:#838173;}.cls-19{fill:#243803;}.cls-20{fill:#e9e0d3;}.cls-21{fill:#fff;}</style></defs><g id="レイヤー_1" data-name="レイヤー 1"><path class="cls-1" d="M118.89,344.22c-4.32-.14-8.68,0-13,0-3.64,0-7.31-.29-11-.26-5.72,0-11.53.37-17.18-.71-1.91-.39-6.82-2-6.16-4.26a3.11,3.11,0,0,1,1.27-1.22c.81-.49,1.71-.92,2.55-1.35a81.25,81.25,0,0,1,16.52-6.69A97.39,97.39,0,0,1,103.09,328c3.19-.34,6.4-.9,9.61-.92,1.29-.24,5.69,1.07,7,1.17.76,0,1.55-.07,2.3-.13,6.13-.67,12.13-2.37,18.27-3,7.8-1.05,15.73-.73,23.58-.8,11.07.25,22.61-.88,33.22,2.9,3.06,1.23,6.63,3.24,7.1,6.82.23,1.72-.06,3.76-1.55,4.85-1.71,1.51-4,1.86-6.16,2.37-4.84,1.11-9.82,1.23-14.75,1.46a121.28,121.28,0,0,1-15.13.33c-5.41-.25-10.81-.78-16.22-.9-6.66-.06-13.31.73-19.94,1.15A98.9,98.9,0,0,1,118.89,344.22Z"/><path class="cls-1" d="M257.65,329c-8,0-16-.27-24-1-4.44-.34-9-.34-13.32-1.48-3.06-.85-6.33-1.94-8.53-4.36a4.37,4.37,0,0,1-.88-5.44,9.8,9.8,0,0,1,3.51-3.29,44.17,44.17,0,0,1,5-2.58A32.46,32.46,0,0,1,231,308.22c4.37-.06,8.82.38,13.09-.72,5.39-.09,11.2-.6,16.54-.79a174.31,174.31,0,0,0,28.68-2.25c10.72-1.54,24-5.36,34,.29,1.76,1,3.61,2.1,4.61,3.91,1.16,1.89.65,4.13.09,6.13a10.67,10.67,0,0,1-3.74,6,17.06,17.06,0,0,1-9.43,4.19c-3.84.67-7.75.9-11.63,1.24-9.8.77-20.41,1.39-30.24,1.87C267.89,328.4,262.76,329,257.65,329Z"/></g><g id="レイヤー_8" data-name="レイヤー 8"><path class="cls-2" d="M266.12,295.29c-4-.05-8.05,0-12.07,0a68.17,68.17,0,0,1-7.56-.61c-1.49-.16-3-.21-4.49-.47a20.73,20.73,0,0,1-4.29-1.27,18.8,18.8,0,0,1-2.16-.94c-.43-.24-1-.47-1.18-1a19.06,19.06,0,0,1-.69-4c-.19-1.85-.35-3.7-.52-5.55-.27-3.19-.45-6.39-.52-9.59-.07-5.09.05-10.18-.23-15.26-.13-4-.53-8-.65-12-.2-3.66,0-7.35-.48-11-.39-3-.7-6.05-1-9.07-.26-1.83-.62-3.64-.77-5.48-.25-2.31-.14-4.65-.21-7-.12-4.91-.11-9.82-.11-14.74,0-3.91,0-7.83-.42-11.73s-1.11-7.88-1.27-11.86c-.28-4.38-.27-8.77-.25-13.15,0-5.56,0-11.11,0-16.67,0-5.75-.33-11.49-.67-17.22-.12-2.06-.4-4.11-.4-6.18a42.89,42.89,0,0,1,.46-5.65,18.12,18.12,0,0,1,1.16-5,3.86,3.86,0,0,1,1.83-2.12,10.68,10.68,0,0,1,2.38-.69c1.19-.35,2.37-.76,3.55-1.15h0a49.81,49.81,0,0,1,8.77-2,59.12,59.12,0,0,1,13.8.92c3.67.67,7.45.42,11.13,1,1.17.18,2.36.34,3.53.55a22.55,22.55,0,0,0,3.26.51c2.32,0,4.64-.27,7-.19,3,.11,5.89.58,8.83.86,3.37.37,6.76.48,10.1,1.13a37.94,37.94,0,0,0,9-.17c4.56-.4,9.07-1.27,13.61-1.85a22.28,22.28,0,0,1,4.83-.08c1.3.15,2.61.31,3.91.37.4,1.23,1.61,3.88,1.54,5.07.17,2.21.09,4.43.08,6.65q-.11,6.39.16,12.8c.15,4.13.59,8.25.89,12.38.19,3.39.58,6.78.71,10.17.06,2.35-.05,4.7-.07,7.05s0,4.6.12,6.89c.16,3.09,0,6.2.24,9.29s.68,6.07.68,9.12c0,3.69-.44,7.36-.62,11-.12,2.44-.13,4.88-.23,7.32-.07,2.2-.23,4.4-.3,6.6,0,6.05-.24,12.09-.3,18.14-.2,2.3-.39,4.63-.47,6.95-.06,5.6.15,11.19,0,16.79-.06,2.28,0,4.56-.17,6.83a89.3,89.3,0,0,0-.38,9.25,59.09,59.09,0,0,1-.69,9.2c-.26,1.77-.07,3.82-1.31,5.26a5,5,0,0,1-1.94,1.08,112,112,0,0,1-12.93,3.09c-7.12,1.67-14.22,3.49-21.42,4.79-2.4.46-4.8.89-7.23,1.15-1.89.21-3.79.3-5.68.47-3.83.32-7.67.5-11.52.57C270.3,295.15,268.21,295.3,266.12,295.29Z"/><path class="cls-3" d="M304.52,109.07a60.15,60.15,0,0,1-6.42-.78c-2.89-.25-5.79-.47-8.66-.82-2.23-.23-4.46-.56-6.7-.61s-4.18.19-6.27.2a15,15,0,0,1-3.33-.43c-1.07-.22-2.16-.37-3.23-.53a76.83,76.83,0,0,0-8.3-.74,35.54,35.54,0,0,1-5.13-.7c-1.66-.22-3.32-.45-5-.57a62.72,62.72,0,0,0-7.51,0,52.3,52.3,0,0,0-8.46,1.92c-2.69-1.1-7.78-1.88-8.32-5.25l0-.07c-.37-2.09-.38-4.22-.54-6.33-.38-5.06-.62-10.12-.59-15.19,0-2.33,0-4.66.11-7,.15-1.46.14-3.06,1-4.3A8.19,8.19,0,0,1,229.45,66a10.5,10.5,0,0,1,2.82-1.46,40.25,40.25,0,0,1,4.5-.9c.95-.22,1.93-.46,2.89-.61s5.48-.14,6.24-.49a25.56,25.56,0,0,1,5.16-.49c2.46,0,4.93,0,7.39-.15s5.15-.51,7.73-.62c1.44-.09,2.88-.2,4.33-.18,2,0,4.09.19,6.14.14q3.5,0,7-.3c1.38-.06,2.78,0,4.16,0,2.06,0,4.12,0,6.17-.05,1.32,0,2.65-.09,4,0s2.58.39,3.88.52c.8.09,1.62,0,2.42.06,3.71,0,7.42,0,11.13,0,1.42,0,2.85,0,4.27.08,1,0,2,.17,3.05.17s2.15-.19,3.22-.25a10.36,10.36,0,0,1,3.19.29,7.61,7.61,0,0,1,2,.88,2.87,2.87,0,0,1,1.26,1.27,12,12,0,0,1,.25,3.28c0,2.81.18,5.61.39,8.41.15,2.36.28,4.72.45,7.08.05,2.08,0,4.18.26,6.25.29,2.39.39,4.79.6,7.19a16,16,0,0,1-1.24,8.16A14.06,14.06,0,0,1,331,107a25.29,25.29,0,0,0-7.32,0c-.9.11-1.85.24-2.74.4a3.9,3.9,0,0,1-2.22,0c-3-.81-6.16-.18-9.11.66C307.93,108.4,306.27,109.24,304.52,109.07Z"/></g><g id="レイヤー_7" data-name="レイヤー 7"><path class="cls-4" d="M161.23,324.6a49.64,49.64,0,0,1-6.78-.49,83.12,83.12,0,0,0-11.15-.56c-1.17.05-2.34.13-3.51.26a14.13,14.13,0,0,1-3.31.14,20.44,20.44,0,0,1-3.9-1.12c-1.31-.43-2.69-.55-4-.92a10.4,10.4,0,0,1-2.61-1.34,21.73,21.73,0,0,1-3-2.06,9.81,9.81,0,0,1-1.9-2.65c-.22-.44,0-1.09-.5-1.38l0-.11a9.09,9.09,0,0,0-2.81-.15c-3.36.06-4.33-2.33-4.91-5.2a23.16,23.16,0,0,0-1.36-5c-.93-2-2.1-3.87-3.17-5.79a38.21,38.21,0,0,1-3.24-8.36,110.79,110.79,0,0,1-3-14.89c-.7-4.73-1.38-9.52-.88-14.3.33-4.4,1.68-8.66,2.53-13a49.81,49.81,0,0,0,.89-9.51c0-3.09-.06-6.19-.39-9.26s-1.14-6-1.56-9.08a89.74,89.74,0,0,1-.3-9.13c-.06-4.68-.24-9.38-.5-14-.65-7.28.07-14.58.38-21.85.39-6.24.21-12.51,0-18.75,0-4.75.07-9.52.29-14.26a31.93,31.93,0,0,1,.86-5.57,31.52,31.52,0,0,1,1.51-5.11A43.92,43.92,0,0,1,111.39,121a66.09,66.09,0,0,1,5.44-4.87c1.23-1,2.6-1.84,3.92-2.71a19,19,0,0,1,6.48-3c0-.07-3.78.71-3.47.36.3-.07.69-.18,1-.24,7.36-1.58,15-1.74,22.44-2.19,9.17-.2,18.41-.41,27.53.68,8.49,1.08,17.06.47,25.6.51,1.58.07,3.82-.24,4.21,1.79a36.74,36.74,0,0,0,1.69,4.93c.5,1,1,2.06,1.5,3.11a32.7,32.7,0,0,0,1.9,4c.92,1.63,2.07,3.11,3.07,4.69s1.85,3.42,2.86,5.08a14.45,14.45,0,0,1,1.63,4,10.72,10.72,0,0,1-.06,2.19,31,31,0,0,0,.07,4.31c.11,3.86.15,7.72.34,11.57.05,1.53.26,3.05.38,4.57s.11,2.84.11,4.25c0,2.59,0,5.19-.24,7.76-.14,1.74-.52,3.46-.81,5.18s-.42,3.51-.62,5.27a42.09,42.09,0,0,0-.37,7.27,40.13,40.13,0,0,0,.4,4.9,44.09,44.09,0,0,1,.7,5.61c0,1.37-.21,2.74-.23,4.1.2,2,.34,4,.36,5.92.05,2.21-.12,4.41-.16,6.61-.05,2.63,0,5.27,0,7.9,0,1.71,0,3.42-.06,5.13s-.29,3.51-.43,5.26c.05,1.83.31,3.66.36,5.49,0,2.76-.31,5.51-.53,8.26a44.7,44.7,0,0,0,.24,6.94c0,2.47-.12,4.93-.09,7.39,0,6.42.42,12.86-.11,19.27-.13,1.41-.42,2.81-.45,4.23a48.4,48.4,0,0,0,.59,7.5c.37,2.59.32,5.23.59,7.83.14,1.32.38,2.64.42,4,0,1.5-.07,3-.13,4.5a32.64,32.64,0,0,1-.4,4.19,4,4,0,0,1-1.15,2.75,6.12,6.12,0,0,1-1.61.3c-1.24.21-2.51.19-3.74.44a28.39,28.39,0,0,0-2.81.86c-1.14.35-2.29.69-3.46.93-2.39.47-4.86.44-7.25.94-1.39.29-2.73.8-4.1,1.15a20.38,20.38,0,0,1-2.8.44c-2.66.28-5.34.05-8,.1-1.65.11-3.21.73-4.84,1-2.36.36-4.77,0-7.14.22C167.16,323.88,164.22,324.55,161.23,324.6Z"/><path class="cls-5" d="M239,106.49c-.09-.84-.51-1.64-.64-2.46-.74-.25-1-1.12-1.62-1.52-1.17-.82-2.68-.45-4-.42s-2.65.28-4,.43a6.32,6.32,0,0,0-3,.8,2.59,2.59,0,0,0-.44,1.59c-.07.77-.11,1.55-.16,2.32a13.29,13.29,0,0,0,.07,4.45c.16.59.27,1.34.82,1.7,1.8.77,3.17,0,4.77-.8,1.95-.93,3.76-2.16,5.75-3-.15.15-2.42,1.32-1.25,1.07a7.8,7.8,0,0,0,3.12-1.66,1.65,1.65,0,0,0,.39-.87A5,5,0,0,0,239,106.49Z"/><path class="cls-5" d="M334.68,105.13c0-1.43-.07-2.86-.19-4.27-.53-.59-2.66-4-3.53-4a15,15,0,0,0-5.41-.71,22.43,22.43,0,0,1-3.92-.37c-.72-1.14-1.39-2.3-2.18-3.39a7.27,7.27,0,0,0-1.81-1.9,25.38,25.38,0,0,0-4.49-2.23c-1.71-.74-3.42-1.5-5.18-2.1-5.1-1.66-6.14-6.44-12.41-5.7-1.16.08-2.32.24-3.48.29-1.45.05-2.9,0-4.35.08a45.51,45.51,0,0,0-4.66.53,21.3,21.3,0,0,0-5.28,2c-1.18.65-2.32,1.39-3.45,2.12a13.68,13.68,0,0,1-2.52,1.44c-1.37.53-2.71,1.13-4.06,1.72-.59.26-1.2.51-1.77.82-.28.2-.7.36-.83.69-.38.21-.48.82-.6,1.22a5,5,0,0,0,1,4.86,12.31,12.31,0,0,0,2.08,2.36,38.67,38.67,0,0,1,1.54,6.48c.39,1.82.9,3.63,1.13,5.49.13,1,.19,2,.24,3a5.51,5.51,0,0,0,.66,2.68c.64.8,1.8.8,2.74.88,1.18.07,2.37,0,3.55.09a10.84,10.84,0,0,0,3.55-.12,21.71,21.71,0,0,1,3.08-.68,14.26,14.26,0,0,1,2.53,0l.07,0c2.09.13,1.09,1.58,1.46,2.84.27.6,1,.79,1.56,1a13,13,0,0,0,4,.51l.05,0,.05-.05c1.92-.15,1.43-2.44,2.07-3.69.48-.78,1.47-.94,2.29-1.15a18.8,18.8,0,0,1,2.9-.44c1.16-.09,2.31-.23,3.47-.31a4.47,4.47,0,0,1,3.33.69,6.86,6.86,0,0,0,2.59,1.45,5.13,5.13,0,0,0,2-.51,10.48,10.48,0,0,0,2.31-1.24c.63-.52,1.16-1.15,1.83-1.62a5.07,5.07,0,0,1,2.12-.83c1.73-.26,3.48-.45,5.22-.74a41.07,41.07,0,0,1,6.05-.7c1.24-.08,2.65.17,3.73-.59a4,4,0,0,0,.9-2.88C334.68,107.16,334.69,106.14,334.68,105.13Z"/><path class="cls-6" d="M241.32,162.8a2.21,2.21,0,0,1-1.21-.42,1.51,1.51,0,0,1-.64-.66,29.76,29.76,0,0,1-.63-3.39v-.07a39.43,39.43,0,0,1-.6-7.67c0-2.24.25-4.47.16-6.71,0-2.81-.46-5.59-.56-8.4s.55-5.31.59-8c0-3.41,0-6.81,0-10.22,0-1.67.06-3.35,0-5a12.48,12.48,0,0,1,1.11-5.53c.31-.54.59-1.23,1.19-1.48a16.09,16.09,0,0,1,1.84-.13,6.21,6.21,0,0,1,2.93.44c.62-.35,2.45-1.68,3.18-1.66a11.67,11.67,0,0,1,4.56-.08,7.28,7.28,0,0,1,2.41-.83,3.15,3.15,0,0,1,1.58.1c.57.15,1.17.25,1.74.42,2.49.52,3,2.5,3.07,4.76a18.82,18.82,0,0,0,.5,3.58c.29,1.27.41,2.57.63,3.86a33.64,33.64,0,0,1,.42,4.7,47.12,47.12,0,0,1,0,4.9c-.05,1.85-.49,3.67-.66,5.51a58.81,58.81,0,0,1-.79,7.26c-.48,1.89-1.18,3.71-1.72,5.58a23.66,23.66,0,0,1-3.38,6.78,34.35,34.35,0,0,1-4.43,4.75c-1.15,1.06-2.13,2.29-3.38,3.23a17.23,17.23,0,0,1-3.94,2.51h0C244,161.66,242.82,162.7,241.32,162.8Z"/><path class="cls-3" d="M287.07,320c-4.13,0-8.27-.12-12.4-.16-1.44,0-2.88.11-4.31.13-2.36,0-4.72,0-7.08,0q-3.81,0-7.6,0a36.12,36.12,0,0,1-7.27-.61l-4.15-1.13a15.52,15.52,0,0,1-4.21-1.63,13.75,13.75,0,0,1-2.34-2,8.72,8.72,0,0,1-1.87-2.24c-.72-1.41-.5-3-.56-4.56a51,51,0,0,0-.49-6.77c-.18-2-1-4-.91-6,.12-1.53.48-3.36,1.86-4.24a3.76,3.76,0,0,1,1.66.11c1,.19,2.07.49,3.11.7s2.34.37,3.48.71c1.47.49,3,.9,4.49,1.24.36.08.72.17,1.09.23.58,0,5.37,1.36,5.92,1.23q4.58.19,9.15.34c2.82,0,5.65-.1,8.46-.39,2-.23,4.1-.13,6.15-.3,3.1-.21,6.18-.61,9.28-.89,1.54-.19,3.11-.12,4.66-.24,1.76-.13,3.5-.47,5.25-.61a25.35,25.35,0,0,0,6.24-1.08c1-.41,21.07-5.58,22.74-6.28,1.09-.41,2.07-1.08,3.18-1.46,3.56-1.05,3.79,1.53,3.79,4.39a34.08,34.08,0,0,1-.7,7,56.52,56.52,0,0,1-1.15,6.47c-.36,1.16-.94,2.23-1.38,3.36a33.82,33.82,0,0,1-1.66,3.62,8.45,8.45,0,0,1-2.91,2.82c-.85.52-1.77.92-2.64,1.4a27.88,27.88,0,0,1-7.26,2.28c-1.74.45-3.5.88-5.27,1.2a60.75,60.75,0,0,1-6.6.69c-1.46.12-2.88.47-4.32.71s-3.13.39-4.68.71c-1.34.3-2.67.7-4,.92A28.58,28.58,0,0,1,287.07,320Z"/></g><g id="レイヤー_6" data-name="レイヤー 6"><path class="cls-7" d="M127.78,322.5c-.94,0-1.88-.22-2.83-.23-1.21,0-2.43.07-3.63,0-1.46-.19-2.91-.48-4.38-.63s-3.21-.18-4.81-.18c-1.08,0-2.16,0-3.23,0a16.69,16.69,0,0,1-2.87-.62,6.25,6.25,0,0,1-2.87-2,11.52,11.52,0,0,1-1.54-3.64c-.42-1.5-.73-3-1.1-4.57a44.18,44.18,0,0,1-1.27-6.44c-.72-5-1.07-10-1.57-15-.78-5.06-.85-10.18-1.18-15.28-.16-2.89-.11-5.79-.18-8.68-.19-4.12-.48-8.24-.66-12.36-.26-6.75-.35-13.52-1-20.26-.19-3.76-.2-7.54-.27-11.31s-.14-7.71-.12-11.57c.05-4.14.08-8.29,0-12.44q.15-8.65.11-17.3c0-3.37,0-6.75,0-10.12-.26-3.38-.25-6.77-.32-10.15-.07-1.75-.12-3.51-.36-5.25-.3-2.34-.76-4.66-.94-7-.23-2.76.76-5.45,1.51-8.07s1.54-5.07,2.47-7.55a26.43,26.43,0,0,1,3.14-6.12,47.36,47.36,0,0,0,4.77-6.52,26.26,26.26,0,0,0,2-4.51c.61-1.75.83-4.17,2.91-4.73,1.41-.18,2.74.63,4.14.62s2.8-.3,4.2-.43,2.53-.08,3.79-.23c8.51-.88,17.06-1.37,25.62-1.4a115.56,115.56,0,0,1,13.28.66c4.73.36,9.48.58,14.22.51,2.69-.09,5.39-.44,8.07-.53a91,91,0,0,1,12.13.27c2.38-.08,6.81,1.17,9.15,1.46a2.45,2.45,0,0,1,1.31,1.47c.92,2.56-.38,4.72-2.77,5.73a14.33,14.33,0,0,1-6,1.44c-2.33.16-4.67.31-7,.61a58.78,58.78,0,0,1-8.9.21c-2.89-.11-5.78-.39-8.66-.51-3.16-.06-6.33-.25-9.49-.29-4.18.19-8.37.51-12.54.87-4.52.49-9.08.8-13.56,1.57-5.93.83-12.13,2.26-16.94,6-5.34,4.3-8.06,8.94-9.76,15.52a74.16,74.16,0,0,0-2.47,19.28c-.14,4.5-.33,9-.3,13.54.09,5.74.58,11.5.55,17.25,0,8.94.26,17.88.49,26.81.46,11.14,1.27,22.27,1.52,33.42.15,5.14.2,10.31.56,15.45.28,4.65.8,9.31,1.31,13.94.34,3.24,1.08,6.42,1.57,9.63a52.45,52.45,0,0,0,4.09,12.87c.87,1.93,1.63,3.91,2.59,5.79a11.81,11.81,0,0,0,1.53,2.28c1,1.08,2.18,2,3.31,3l2.3,1.85a10.59,10.59,0,0,1,1.75,1.66,4.28,4.28,0,0,1,.4.69,1.38,1.38,0,0,1,.12,1.05C129,322.46,128.29,322.48,127.78,322.5Z"/><path class="cls-8" d="M260.19,106c-1.45-.08-2.87-.42-4.32-.44-2.85,0-5.7-.15-8.54-.16a46.73,46.73,0,0,1-5.41.41,5.16,5.16,0,0,1-2.57-.55c-.23-.18-.53-.43-.52-.74l-.08,0a6.3,6.3,0,0,1-.09-1.56c0-.78,0-1.56.06-2.34.07-2,.06-4,.06-6,0-2.31,0-4.62.05-6.92a21.5,21.5,0,0,1,.51-5c.31-1.25,1.79-4.15,3.31-3.87.38.39,6.42,1,6.72,1.54a25.11,25.11,0,0,1,3.43,3.56,51.41,51.41,0,0,1,6,9.19,37,37,0,0,1,3.19,7.23c.33,1.52.6,3.28-.23,4.69a2.43,2.43,0,0,1-.62.8A2.14,2.14,0,0,1,260.19,106Z"/><path class="cls-9" d="M240.21,287.49c-1.4.16-2.05-1.28-2.54-2.35a16.27,16.27,0,0,1-1.09-5.12c-.21-2.37-.27-4.76-.27-7.14a57.74,57.74,0,0,1,1-9.27,62.72,62.72,0,0,0,.45-7.12c.12-6.75,0-13.5.36-20.25.06-2.39.31-4.78.53-7.16.13-1.46.2-2.94.38-4.4a13.6,13.6,0,0,1,.35-2,14.92,14.92,0,0,1,1.27-2.86c1.17-1.69,3.3-2.12,5.19-2.49a30.14,30.14,0,0,1,4.11-.59,10.7,10.7,0,0,0,3.88-1.32c-1.92-.11-3.87-.11-5.78-.36-.78-.13-1.54-.38-2.31-.55s-1.71-.45-2.55-.71a5.94,5.94,0,0,1-1.91-.79,4.17,4.17,0,0,1-1-2.56,18.41,18.41,0,0,1,0-3.15,32.69,32.69,0,0,1,.84-5.48c.38-2.2.76-4.42,1.08-6.63a12.08,12.08,0,0,0,.13-3.12,5.15,5.15,0,0,0-.51-2.16c-.6-.91-1.64-1.37-2.35-2.18a8.56,8.56,0,0,1-1.63-5.13c-.13-2.41.2-4.82.17-7.23a4.62,4.62,0,0,1,.54-2.74,5,5,0,0,1,1-1.25,5.59,5.59,0,0,1,1.66-.77,48.94,48.94,0,0,1,6.95-1.91,37.6,37.6,0,0,1,5.4-.57,4.11,4.11,0,0,1,2.5,1c1.26.8,2.46,1.7,3.67,2.57a26.27,26.27,0,0,0,5.64,3.05,8.23,8.23,0,0,0,3.68,1.05,3.6,3.6,0,0,0,2.46-1.34c.95-.85.59-2.21.35-3.3a13.66,13.66,0,0,1-.39-3.71,8.16,8.16,0,0,1,2-4.63c1.21-.76,2.55.26,3.65.78s2.42,1.25,3.58,1.94a12.08,12.08,0,0,1,1.54,1c.48.39.9.84,1.39,1.23a6.86,6.86,0,0,0,2.48,1.15c2.38.61,4.8,1.1,7.21,1.56,2.08.32,3.75-1.39,4.79-3-1.76-1.39-3.95-2.08-5.73-3.45A7.69,7.69,0,0,1,289.8,161a2.44,2.44,0,0,1,.32-2.77c1.1-1.56,3-2.2,4.59-3.1a57.59,57.59,0,0,0,5.38-3.95,21.63,21.63,0,0,1,3.32-2.49,14.39,14.39,0,0,1,2-1,3.91,3.91,0,0,1,1.81-.38c1.19,0,2.35.26,3.53.34a61.35,61.35,0,0,0,8.12,1.47c1.95.34,4.05.36,5.86,1.23a8.24,8.24,0,0,1,3.22,3.64,21.24,21.24,0,0,1,1.47,4.81,17.61,17.61,0,0,1,.62,3.67,10.26,10.26,0,0,1-.56,3.24,10.9,10.9,0,0,1-1.72,2.92,14.4,14.4,0,0,1-2.15,2.52,2.65,2.65,0,0,1-1.17.72c-.71.11-1.44.22-2.16.28a9.72,9.72,0,0,1,1.33,3.91,36.43,36.43,0,0,1,.77,4.75,13.37,13.37,0,0,1-2,7.55,12.12,12.12,0,0,1-2.39,3.29l-.12,0,0,.11a4.35,4.35,0,0,1-1.4.8v.08c1.33.63,2.8,1,4.09,1.72a4.14,4.14,0,0,1,1.78,2.32,17.45,17.45,0,0,1,.42,4.73c.08,4.24-.72,8.41-1,12.63a14,14,0,0,1-1,4.67,2.86,2.86,0,0,1-.64,1.14c-.8.54-1.8,0-2.47-.54a10,10,0,0,1-1.53-1.58c-.44-.54-.92-1.31-1.55-.5-1.13,1.28-1.82,2.92-3.12,4a4.52,4.52,0,0,1-1.69,1,10.12,10.12,0,0,1-1.86.61,26.61,26.61,0,0,1-4,.12c-3.41.09-6.75-.7-10.09-1.25-1.57-.27-3.16-.41-4.75-.54A32.09,32.09,0,0,0,286,221h0a18.13,18.13,0,0,1-2,0h0a21.75,21.75,0,0,1-3.54-.78,32.4,32.4,0,0,0-4.38-.67c.95,1.79,2,3.73,1.8,5.85a8.54,8.54,0,0,1-1.6,3.6,29.13,29.13,0,0,0-3.95,9.43c-.84,3.49-1.14,7.08-1.78,10.6a42.71,42.71,0,0,1-2.19,7.34,32.42,32.42,0,0,1-2.28,4.12c-1.92,3.09-4.39,5.87-5.66,9.33a45,45,0,0,0-1.92,5.28c-.49,1.44-1.08,2.84-1.65,4.24-.34.86-.71,1.7-1.07,2.54a5.33,5.33,0,0,1-1,1.81,10.86,10.86,0,0,1-2.79,1c-.68.21-1.35.43-2,.69s-1.05.51-1.59.72h0a9,9,0,0,1-1.59.54h0a29.87,29.87,0,0,1-4.89.71h0C241.4,287.44,240.8,287.47,240.21,287.49Z"/></g><g id="レイヤー_5" data-name="レイヤー 5"><path class="cls-10" d="M194.64,135.92c-.27-1.38-9.21-.82-10.86-1-10.62-.29-21.23.31-31.85.34-3.74,0-7.48.35-11.22.51-4.41.07-8.84-.11-13.23-.47-3.81-.27-7.82-.53-11.18-2.5v-.1a4.22,4.22,0,0,1,2-.64c1.28-.17,2.6-.26,3.89-.37,4.38-.31,8.79-.66,13.14-1.3a142.39,142.39,0,0,0,26.1-6.67c1.58-.53,3.23-1.06,4.82-1.55a7.47,7.47,0,0,0,1.9-.72c0-.21-.31-.27-.47-.34a11,11,0,0,0-1.26-.31,36.64,36.64,0,0,0-4.67-.51c-8.79-.78-17.22,2.31-25.8,3.66a37.53,37.53,0,0,1-5.8.5,13.47,13.47,0,0,1-6-.77,27.62,27.62,0,0,1-5.46-3.48c-1.66-1.2-2.11-2.09-4.18-.86-3.34,2.35-4.59,6.54-5.91,10.21a52.08,52.08,0,0,0-2,6.81,22,22,0,0,0-.83,5.22l0,.06,0,.1c.84.27,3.85,1.8,4.68,1.52a73.83,73.83,0,0,0,8.59-1.38,44.23,44.23,0,0,1,5-.48c3.67-.34,7.36-.39,11-.38,3,0,6,.25,9,.28,4.7,0,9.42.13,14.12,0,2.57-.15,5.15-.45,7.72-.59,2-.11,4-.1,6-.26,3.72-.29,7.44-.65,11.16-.89,1.85-.1,3.7-.15,5.54-.39a16.56,16.56,0,0,0,2.11-.34,7.74,7.74,0,0,0,1.87-.92c.49-.33,1-.66,1.45-1C194.3,136.58,194.65,136.31,194.64,135.92Z"/><path class="cls-10" d="M126.06,318.38c-.64-3.29-1.53-6.52-2.24-9.79-.69-3-1.16-6-1.69-9-1-4.85-1.64-9.76-2.18-14.67q-3.53-28-4.75-56.26c-.48-5.25-.7-10.55-1-15.82-.72-8.88-.9-17.8-1.34-26.7s-.35-18,0-27c.16-2.62.42-5.26.64-7.87,0-.53.11-1.13.16-1.66,0-.09,0-.36,0-.45s.07-.34-.09-.25l-4.1,4.38-.06.24c-.12.41-.23.84-.33,1.26a15.55,15.55,0,0,1-.91,2.75c-.17.3-.38,1.11-.84,1-.58-.39-1.69-1.74-1.82,0,0,1.76.29,3.5.46,5.24s.17,3.39.16,5.09c0,3.91-.14,7.83-.23,11.74,0,5.34,0,10.69,0,16,0,8-.41,16.09.33,24.1.25,9.65.34,19.3.68,29,.52,9.38.54,18.79,1.3,28.16.46,7.16,1.85,14.23,2.29,21.39a38.1,38.1,0,0,0,1.84,9.75c.71,1.53,1.6,3,2.45,4.46,1.8,2.89,3.19,3.63,6.64,4a9.68,9.68,0,0,1,2.26.48c.47.2.9.5,1.35.73a1.41,1.41,0,0,0,.84.25C126.11,318.71,126.07,318.54,126.06,318.38Z"/><path class="cls-11" d="M324.78,153.1l0,0c.12,0,.83,4.7.87,4.74Z"/><path class="cls-12" d="M325.91,160a57.62,57.62,0,0,0-1.2-7,29.64,29.64,0,0,1-6.85.18A33.5,33.5,0,0,0,311,153a8,8,0,0,1-2.39-.06c-.84-.16-1.63-.5-2.46-.7a6.4,6.4,0,0,0-4.68,1.47,9.35,9.35,0,0,0-2.07,1.95,4.36,4.36,0,0,0-.88,3,3.11,3.11,0,0,0,1.58,2.14,24.18,24.18,0,0,0,3.27,1.4,8,8,0,0,1,2.35,1.72c1,1,1.69,2.3,2.75,3.25a7.39,7.39,0,0,0,3.2,1.3,43.7,43.7,0,0,0,5.94.53,15.42,15.42,0,0,0,4-.11,5.75,5.75,0,0,0,3-2.18C325.75,164.73,325.87,162.3,325.91,160Z"/><path class="cls-12" d="M322.76,199.89a7.76,7.76,0,0,0-.41-3.11s0,0,0-.06a4.8,4.8,0,0,0-1.66-1.47c-.67-.4-1.36-.8-2.07-1.14a10.78,10.78,0,0,0-6.35-.73c-1.75.2-3.51.38-5.27.44-3.15.15-6.46.11-9.35-1.28-1.31-.62-6-3.32-7.42-3.64-1.14-.26-2.31-.46-3.44-.79-2.17-.58-4.29-1.37-6.5-1.76a22.28,22.28,0,0,0-3.62-.54,7.43,7.43,0,0,0-3.13.75,7.88,7.88,0,0,0-2.24,2.18,14.59,14.59,0,0,1-1.86,1.91,30,30,0,0,1-3.81,2.94,26.86,26.86,0,0,1-6.4,2.68c-2,.54-4,.19-6,0a14.66,14.66,0,0,0-3.8.13c-1.51.37-2.51,1.73-3.28,3a14.4,14.4,0,0,0-1.61,3.5,2.78,2.78,0,0,0,.59,2.86,10.31,10.31,0,0,0,4.79,3,72.43,72.43,0,0,0,7.22,2.06c1.86.47,3.6,1.3,5.41,1.9a35.21,35.21,0,0,0,7.37,1.64,29.63,29.63,0,0,1,5.43,1.14c1,.33,1.88.83,2.84,1.21a18,18,0,0,0,9.92.86,38.92,38.92,0,0,0,3.85-.72,25.14,25.14,0,0,1,3-.66,20.79,20.79,0,0,1,3.86.22,14.68,14.68,0,0,0,4.72-.23c.89-.18,1.76-.48,2.65-.7s1.93-.38,2.88-.57a39.6,39.6,0,0,0,7.45-1.85,9.86,9.86,0,0,0,3.46-2,6.4,6.4,0,0,0,1.71-2.83C322.68,205.58,322.72,202.69,322.76,199.89Z"/><path class="cls-12" d="M263.17,247.32c-.15-2.86-.45-5.72-.62-8.58a54.28,54.28,0,0,0-.71-7.85c-.39-2.43-2-4.37-3.43-6.27-.13-.43-3.64-3.18-4-3.53a1.16,1.16,0,0,0-.37,0,56.23,56.23,0,0,1-6.72.79c-1.08.08-2.17-.06-3.23.11-2.44.8-2.41,3.84-2.69,6-.25,2.68-.41,5.38-.51,8.07-.07,2.45-.12,4.91,0,7.36a55,55,0,0,1,.41,9.34c-.09,2.77-.76,5.47-1.11,8.21a41.79,41.79,0,0,0-.19,6.62c0,.51.08,1,.14,1.55,0,.26,0,.58.18.8s.58-.15.84,0h0a1.74,1.74,0,0,1,.23,1c0,.63,0,1.27.07,1.9,0,1.92.06,3.86.17,5.79.06,1.19.11,2.4.18,3.6a6.5,6.5,0,0,0,.53,2.55c.72,1.19,3-.08,3.8-.65a9.56,9.56,0,0,0,3-3.11c1-1.46,1.62-3.14,2.68-4.54,2.24-2.79,5-5.17,7-8.14a17.74,17.74,0,0,0,1.78-2.7,27.39,27.39,0,0,0,1.49-6.65A72.11,72.11,0,0,0,263.17,247.32Z"/><path class="cls-12" d="M242.78,179.09a48.21,48.21,0,0,0,.45,6.13h0v.1l2.05.66a10.32,10.32,0,0,0,4.22-1.19c1.82-.6,3.61-1.27,5.4-2a26.8,26.8,0,0,1,3.16-1,6.14,6.14,0,0,0,2.46-1c2.6-2.38,1.1-2.32-1.15-3.6-1.7-.88-3.19-2.12-4.83-3.11-.47-.33-1.62-.84-.54.09.86.77,1.89,1.68,1.87,2.93,0,.54-.27,1.58-1,1.38a12,12,0,0,1-1.9-1.1c-.32-.16-.64-.54-1-.48-.14.32.09.71.17,1a10.51,10.51,0,0,0,.69,1.62c1.24,1.77,1,2.27-1.2,2.27a4.6,4.6,0,0,1-3.88-2.42q-1.27-2.26-2.43-4.61c-.34-.67-.63-1.38-1-2-.22-.37-.44-.88-.89-1h0c-.57,0-.49,2-.56,2.46C242.82,175.86,242.74,177.49,242.78,179.09Z"/><path class="cls-13" d="M303.65,132.91a43.49,43.49,0,0,1-6.12-.73,20.46,20.46,0,0,1-6.62-1.36,6.66,6.66,0,0,1-2.83-1.87,27.43,27.43,0,0,1-1.85-2.44c-.68-.86-1.79-1.17-2.58-1.9a7.76,7.76,0,0,1-1.82-2.88,4.48,4.48,0,0,1-.42-1.54c.09-.36.5-.43.8-.51l1.24-.21.08,0a2.56,2.56,0,0,1,.78-.2,4.33,4.33,0,0,1,.95-.11,2.37,2.37,0,0,1,1.23.62A11.66,11.66,0,0,0,288,121c.6.28,1.16.63,1.75.91a5.07,5.07,0,0,0,4.27-.3,17,17,0,0,0,2.91-3.19,7,7,0,0,1,1.23-1.37,2.4,2.4,0,0,1,1.29-.23c.94.08,2,.44,2.88,0l.1,0c2.08-1.15,4.46-.45,6.44.6a6.87,6.87,0,0,0,1.27.64,2.79,2.79,0,0,0,1.15-.07c1.5-.33,2.81-1.21,4.28-1.61a17.73,17.73,0,0,1,3,.43l0,.1h0a7.64,7.64,0,0,0-1.43,2.34,26.52,26.52,0,0,1-.87,3.17,6.07,6.07,0,0,1-1.23,2.31,28.73,28.73,0,0,0-2.4,2.89c-.41.7-.64,1.51-1.06,2.21a8.57,8.57,0,0,1-4,2.68A14.58,14.58,0,0,1,303.65,132.91Z"/><path class="cls-14" d="M262.65,109.38a19.67,19.67,0,0,1-1.09-3.16c-.61-1.93-1.08-3.89-1.68-5.82a36.69,36.69,0,0,0-1.51-3.55,51.5,51.5,0,0,0-2.47-5.4,10.22,10.22,0,0,0-1.8-2.29c-.49-.57-1-1.13-1.53-1.68-.65-.79-1.38-1.51-2.07-2.27a19.35,19.35,0,0,0-1.9-2.15,10.72,10.72,0,0,0-3-1.93c-1.22-.43-2.5-.68-3.75-1a4.27,4.27,0,0,1-2-.85,1.46,1.46,0,0,1,0-1.42c.53-.09,2.12-1,2.64-.88a14.29,14.29,0,0,1,2.85,0,9.3,9.3,0,0,1,3.21,1.19,27,27,0,0,1,4.11,2.74c1.38,1.24,2.67,2.58,4,3.92a60.9,60.9,0,0,1,4,4.63,13.78,13.78,0,0,1,1.54,2.25c.66,1.28.92,2.71,1.5,4,.28.69.62,1.36.95,2a19.33,19.33,0,0,0,1.05,2,21.65,21.65,0,0,1,1.8,3.18,4.24,4.24,0,0,1,.21,2c0,.69-.15,1.61-.83,2a10.61,10.61,0,0,1-1.58-.33,2.2,2.2,0,0,0-2,1.55c-.1.28-.2.58-.32.86C262.88,109.13,262.83,109.43,262.65,109.38Z"/><path class="cls-15" d="M189.66,320.83a9.27,9.27,0,0,1-1.58-.13c-.47-.08-1.05-.2-1.25-.68a.54.54,0,0,0-.19-.32l0-.09h0c0-.05,0-.17,0-.2s.09-.34,0-.49c.14-.19.12-.46.22-.68h0c.12-.29.09-.72.3-.95-.05,0-.07-.13,0-.16l.09-.15-.05-.09c0-.14,0-.31.15-.41-.08-.26.09-.56.12-.82a4.6,4.6,0,0,1,.59-1.43,27.42,27.42,0,0,0,2.75-6.16c.6-2,.88-4,1.66-5.93a48.52,48.52,0,0,1,1.88-4.53,31.38,31.38,0,0,0,1.32-3.42c.81-2.19,1.67-4.36,2.43-6.57.64-2.05,1.15-4.13,1.67-6.22s1-4.29,1.3-6.46.58-4.59.88-6.88.18-4.34.39-6.51.2-4.63.35-6.95c.08-3.53,1-7,1.21-10.47.23-2.9.11-5.82.29-8.73.15-3.56.57-7.12.69-10.69,0-2.72-.23-5.45-.27-8.17a103.93,103.93,0,0,0-.36-11.84c-.12-3.05-.15-6.11-.21-9.16s0-6.17-.12-9.25c-.31-4.57-1.22-9.07-1.9-13.6-.24-1.66-.31-3.34-.49-5s-.5-3.08-.72-4.62c-.53-3-.84-6.11-1.42-9.14s-.89-5.84-1.51-8.73a30,30,0,0,0-1.24-5.44,59.8,59.8,0,0,0-3.41-7.25,25.69,25.69,0,0,1-1.8-4.54c-.52-2.11-1-4.24-1.4-6.37-.19-1.28-.5-2.55-.67-3.83a15.31,15.31,0,0,1,.2-3.31c0-.16.09-.44.15-.6s2.27-2.36,2.33-2.44h0c.23-.28.67-.28,1-.36a9.82,9.82,0,0,1,2.1,0c.9.07,2,0,2.67.79a6.61,6.61,0,0,1,.41,2.43,14.49,14.49,0,0,0,.59,2.9c1.05,3.08,2.67,5.94,3.56,9.08.74,2.44,1.58,4.84,2.33,7.28s1.24,4.74,1.81,7.12a60,60,0,0,1,1.22,9.91c.28,3.68.59,7.35.85,11,.25,5,.06,9.92.07,14.88,0,4.3.25,8.59.26,12.89.06,3.81.33,7.62.46,11.43.16,3.39.24,6.78.46,10.17.16,2.47.49,4.93.62,7.4.18,5.32.13,10.65.23,16,0,3.47.27,6.93.23,10.4-.09,3.11-.25,6.22-.42,9.32-.14,2.28-.36,4.56-.4,6.85,0,5.41.5,10.83,0,16.24a10.66,10.66,0,0,0-.08,1.26c0,.12.13.25.19.35a1.35,1.35,0,0,1,.09.6c0,1.89-.09,3.77-.21,5.65s-.35,3.45-.47,5.18c-.08.89-.08,1.79-.14,2.67-.11,1.24-.26,2.49-.39,3.73-.35,3.69-.5,7.41-1,11.09-.14,1-.34,2-.51,3.05a19.51,19.51,0,0,1-1.1,4.52c-.47,1.12-.93,2.43-2.12,2.95-2.16.92-4.52,1-6.81,1.44A49.08,49.08,0,0,1,189.66,320.83Z"/><path class="cls-16" d="M104.77,106.84a1.78,1.78,0,0,0,.75,1.25c.36.3.73.61,1.12.88,2.39,1.61,5.36,1.18,8.08,1.44,1.7.18,3.37.54,5.07.75,2.87.3,5.72.77,8.61.86,3.3.23,6.6.32,9.9.54,2.09.09,4.17.45,6.27.56,3.65.22,7.32,0,11,.27,2.52.08,5,.62,7.51.86a72.3,72.3,0,0,0,8.7.42c1.82-.06,3.61-.41,5.42-.55a28.48,28.48,0,0,0,3.2-.36,22.56,22.56,0,0,0,3.33-.94h0a64.39,64.39,0,0,1,8.39-1.39c.18-.24.55-.25.81-.33a6.85,6.85,0,0,1,1.5-.11c.56,0,1.12,0,1.68.09a6.08,6.08,0,0,0,1.65.08c1.22-.05,2.44,0,3.65-.11a3.77,3.77,0,0,0,2.51-1.3,4.31,4.31,0,0,0,.54-1c.06-.32-.74-5-.69-5.12a5.09,5.09,0,0,0-1.5-1.42,9.77,9.77,0,0,0-2.6-1.41c-.78-.27-1.56-.54-2.34-.78-1-.2-2-.36-3-.55-2-.3-4.07-.69-6.1-1-2.69-.21-5.41-.26-8.1-.34-3.53,0-7,0-10.58,0-1.63,0-3.26.14-4.89.13-2.69,0-5.39,0-8.08-.08-2.11-.09-4.23-.31-6.35-.2-2.84.13-5.66.48-8.49.75-2.09.2-4.19.29-6.27.5-1.57.15-3.08.67-4.64.83a94,94,0,0,1-11.75.28c-2.06-.07-4.12-.15-6.18-.2a8.58,8.58,0,0,0-4.31.63,7.93,7.93,0,0,0-2.16,1.63c-.62.59-1.43,1.2-1.5,2.11-.06.06,0,.17,0,.23-.14.23-.07.58-.1.86S104.75,106.43,104.77,106.84Z"/><path class="cls-16" d="M216.29,317.15a.49.49,0,0,0-.39-.28,6.91,6.91,0,0,0-2.34.3c-1.19.28-2.37.62-3.56.91-1.51.36-3.06.54-4.58.87-1.8.43-3.59.9-5.41,1.21a71.76,71.76,0,0,1-9.81,1.29,53.94,53.94,0,0,1-7.06.6c-4.61-.15-9.24-.39-13.86-.13-3.5.21-6.91,1.09-10.4,1.39a107.74,107.74,0,0,1-11.92.25c-4.55-.09-9.11.08-13.66-.11-3.52-.19-7-.47-10.55-.89-3.31-.26-6.61-.74-9.88-1.33-1.56-.31-3.14-.6-4.69-.92l-3.64-.68c-.17.1.1.18.18.24a3.77,3.77,0,0,1,1.31,1.74,10.72,10.72,0,0,1,.75,1.9c.35,1.09.72,2.18,1,3.28a22.11,22.11,0,0,1,.57,4c.59,1.91,2.67,2.57,4.37,3.19s3.2,1.21,4.82,1.74a37.44,37.44,0,0,0,6.45,1.39,63.47,63.47,0,0,0,9.45.49c2.23,0,4.46.1,6.69,0,1.42,0,2.86-.06,4.29,0,1.76.1,3.52.37,5.28.5,1.6.14,3.22.13,4.82.2,2.52.16,5,.27,7.56.2,5.83-.09,11.66-.58,17.47-1,5.6-.15,11.2-.5,16.77-1.14a29.78,29.78,0,0,0,4.87-.88,7.78,7.78,0,0,0,2.2-.82,3.11,3.11,0,0,0,.68-1c.57-1.37,1.09-2.76,1.75-4.08a11.2,11.2,0,0,1,2.06-3c1-1.05,2.12-2,3.13-3.06s1.88-2,2.83-3c.45-.5.91-1,1.38-1.48S216.37,317.89,216.29,317.15Z"/><path class="cls-17" d="M249.17,314.76a7.12,7.12,0,0,1-1.27-2.21,21.67,21.67,0,0,1-1.36-4.15,53.51,53.51,0,0,1-.46-12c.25-2.28-.55-1.49-1.16,0s-1,2.88-1.42,4.32c-.76,2.82-1.3-2.32-1.38-3s-.17-1.61-.29-2.41a3.56,3.56,0,0,0-.54-1.73l-.06-.06a2.57,2.57,0,0,0-1.9-.39,3.25,3.25,0,0,0-1.75.48c-2,1.68-2.32,7-2.48,9.52a48.91,48.91,0,0,0,0,6.74,8.63,8.63,0,0,0,1.13,2.8,8.35,8.35,0,0,0,2.76,2.69c.9.61,1.79,1.26,2.74,1.81a8.16,8.16,0,0,0,2.94,1,6.5,6.5,0,0,0,1.52.12c.21.18,2.91-3.39,3.05-3.4h0Z"/><path class="cls-17" d="M292.42,296.06a1.36,1.36,0,0,0-.31-.5h0a.18.18,0,0,0-.17-.06c-.22.13-.27.44-.35.67s-.2.7-.3,1.05c-.44,1.5-.68,3-1.09,4.56,0,0,.07.1.11.11a30.44,30.44,0,0,1,.48,5.22,25.43,25.43,0,0,1-.06,4c-.2,1.24-.4,3-1.88,3.29-.54.2-1.28.23-1.64.73,0,0,0,0,0,.09,0,.58.49,1,1,1.18a2.21,2.21,0,0,0,1.58,0,4.35,4.35,0,0,0,1.63-1.35,2.29,2.29,0,0,0,.76-1.66c0-3.47,0-6.95.11-10.42,0-1.28.07-2.58.14-3.86A13.07,13.07,0,0,0,292.42,296.06Z"/><path class="cls-17" d="M333.44,291.58c-.13-2.1.14-4.34-.76-6.31-.53-1-1.25-1-2.24-.61a6.44,6.44,0,0,0-.65.3c-.25-.06-.56,1.4-.64,1.52a4,4,0,0,1,1.14,1.36,9.61,9.61,0,0,1,.37,2.78,15,15,0,0,1-.26,4.06,21.73,21.73,0,0,0-.56,3.57c-.06.86.07,1.74,0,2.59a9.8,9.8,0,0,0-.67,2.26c-.06,1,.06,2,0,3a22.84,22.84,0,0,1-.39,3.22l.08.07h0c1.41-1.13,1.8-3,2.44-4.59a33.27,33.27,0,0,0,1.11-3.18c.18-.77.26-1.56.41-2.33A35.75,35.75,0,0,0,333.44,291.58Z"/></g><g id="レイヤー_4" data-name="レイヤー 4"><path class="cls-18" d="M154.05,332.91c-1.86,0-3.72-.21-5.58-.26-3.26-.1-6.53-.13-9.79-.19-2.08,0-4.15-.23-6.21-.45-1.45-.12-2.92-.15-4.37-.34-2.54-.39-5.12-.4-7.65-.84-1-.16-4.25-2.79-5.08-3.24l0-.11c.83,0,1.65.31,2.49.36,1.18.13,2.37.14,3.55.26s2.33.44,3.51.58a48.81,48.81,0,0,0,7.83.5c3.63-.12,7.27-.41,10.91-.36q9.47.21,18.92.17c5.21-.15,10.5,0,15.62-1.13,4.94-.81,9.84-2.09,14.87-2.09,1.56,0,3.13,0,4.69,0a12.48,12.48,0,0,1,3.23.25,2.35,2.35,0,0,1,.91.38l.12.13c.83,2.55-8.28,3.09-10,3.31-2.55.23-5.09.68-7.62,1.05-2.38.37-4.79.41-7.17.64-2.94.28-5.88.61-8.83.6-2.39.06-4.79-.06-7.18.13S156.46,332.89,154.05,332.91Z"/><path class="cls-19" d="M243,170a8.84,8.84,0,0,1-1.45-.1l-.07,0a2.81,2.81,0,0,1-2.2-1.46,4.51,4.51,0,0,1,.17-4.6c.8-1,2.2-1,3.3-1.48a31.18,31.18,0,0,0,4.66-2.24c1.82-.93,3.9-1.35,5.47-2.72a22,22,0,0,0,4.95-6,46.39,46.39,0,0,0,1.67-4.58c.67-2,1.37-4,1.89-6,.43-1.66.66-3.37.94-5.07a53.67,53.67,0,0,0,.55-5.8,92.32,92.32,0,0,0,.31-9.26c-.1-2.41-.15-4.84-.26-7.25a19.86,19.86,0,0,1-.17-4.22,7.43,7.43,0,0,1,.65-2.59,2.25,2.25,0,0,1,1-1.2,2.9,2.9,0,0,1,1.39.16,8.23,8.23,0,0,0,2,.35c.37.9,2.39,5.8,2.41,6.66a37.55,37.55,0,0,1,.51,10.74c-.18,2.39-.82,4.75-.74,7.16.17,3.66,1.14,7.24,1.17,10.91a29.18,29.18,0,0,1-1.4,9.59c-.62,2.08-1.17,4.2-1.95,6.23a12.51,12.51,0,0,1-3,5.07,22.55,22.55,0,0,1-3.61,2.61c-1.29.63-2.57,1.28-3.85,1.94a25.64,25.64,0,0,1-8.24,2.94C247.06,169.92,245,169.9,243,170Z"/><path class="cls-20" d="M286.19,94.73c-.79-.06-1.8.13-2.44-.42a.47.47,0,0,1-.07-.54c.67-.76,1.86-.65,2.78-.81a30.4,30.4,0,0,0,3.66-.62,59.11,59.11,0,0,0,7.83-2.1l2.42-.78a4.66,4.66,0,0,0,1.2-.49s.05-.17,0-.23c-2.66-2.36-11.77.9-15.31,1.22a24.38,24.38,0,0,1-8-.36c-.83-.11-1.67-.2-2.49-.29a4.22,4.22,0,0,1-1.37-.27c-.71-.36-.29-1.26.13-1.69a9.31,9.31,0,0,1,3.77-1.95c1.6-.5,3.23-1,4.86-1.31a41.94,41.94,0,0,1,7.17-.66c1.59-.06,3.21-.13,4.81-.1,1.17,0,2.34.15,3.52.12,1.67,0,3.42-.32,5,.27a19.41,19.41,0,0,1,3.21,1.64,22.36,22.36,0,0,0,2.83,1.15,38.54,38.54,0,0,1,7,3.22c.28.16.58.31.85.49,0,.07,2.48,4.32,2.37,4.41h-.08a12,12,0,0,0-6.27-1.29c-1.47.08-2.94.31-4.42.26-4.27-.15-8.56-.16-12.83.1-1.38.06-2.74.37-4.1.54C290.27,94.47,288.23,94.71,286.19,94.73Z"/><path class="cls-21" d="M323.85,283.46c-1.71-.19-1-5.6-1.21-6.9-.26-2.14-.51-4.28-.73-6.43a52.47,52.47,0,0,1,.38-7.09c.57-3.87-1.39-5.13-2.49-8.44-1.05-3.11.37-6.27.95-9.33.34-1.86.39-3.77.59-5.64.24-2.22.64-4.43.76-6.66.24-3.83.13-7.67.12-11.51,0-5.8-.17-11.61-.23-17.42-.06-2.64-.73-5.22-.88-7.85a48.83,48.83,0,0,1,.55-11.77,49.08,49.08,0,0,0,.37-7.17c-.09-2-.29-4-.33-6a57.69,57.69,0,0,1,.78-11.81,46,46,0,0,0,.45-6.09,27.41,27.41,0,0,0-.11-4.05,22.83,22.83,0,0,0-1-3.21,15.62,15.62,0,0,1-.6-3.72c-.18-3.28.81-6.48,1-9.73.26-4,.24-8.06.63-12.07.57-5.4-.09-10.83.22-16.24a23.29,23.29,0,0,1,.9-5.68,49.54,49.54,0,0,0,1-5.68c.22-2.3.21-4.62.22-6.93s.34-4.93.46-6.88c0-.12.16,0,.15.09s.07.28.09.4c.1.37.23.77.35,1.15,2.19,6.13.89,12.7.36,19-.2,2.22-.31,4.44-.38,6.66s-.29,4.21-.28,6.32c0,2.54.15,5.1.12,7.65-.07,2.33-.18,4.66-.19,7,0,3.73.05,7.47-.19,11.19-.08,1.21-.29,2.42-.46,3.62-.09.86-.14,1.72-.29,2.57a22.86,22.86,0,0,0-.16,3.51c.19,2.09.67,4.14,1,6.21.49,2.87,1.44,5.81.64,8.73a42.13,42.13,0,0,0-1.36,5.75c-.61,4.37.3,8.74.79,13.07.27,3.19.07,6.41.17,9.61.11,2.6.58,5.18.76,7.78.51,6.87-.24,13.74-.14,20.62a142.7,142.7,0,0,1-.52,14.47c-.28,3.18-1.06,6.3-1.22,9.49a52.81,52.81,0,0,0,.09,8.53c.31,3.43.87,6.86,1,10.31a53.05,53.05,0,0,1-.7,8.15c-.18,2.45-.28,4.9-.33,7.36,0,.75,0,1.51-.05,2.26-.07.44-.22.88-.31,1.32s-.12.65-.21,1S324.18,283.49,323.85,283.46Z"/></g><g id="レイヤー_3" data-name="レイヤー 3"><path d="M219.22,141.09c0-1,0-1.92-.11-2.87a12.65,12.65,0,0,0-.43-2.81,18.28,18.28,0,0,0-1.1-2.63,29.6,29.6,0,0,0-1.49-2.63c-1-1.6-2-3.21-3-4.86s-1.93-3.58-2.86-5.39a47.45,47.45,0,0,1-2.22-5.25c-.17-.51-.33-1-.45-1.53a1.42,1.42,0,0,0-2.83.14,3.45,3.45,0,0,0,.15.84c.12.44.25.88.4,1.31.32,1,.69,1.89,1.07,2.82.83,2,1.84,3.93,2.85,5.85.88,1.66,1.79,3.32,2.77,4.93s2.09,3.21,3,4.92c.32.65.62,1.31.88,2,.08.25.15.49.21.74.1.55.16,1.11.21,1.67.09,1.43.1,2.87.12,4.3s0,2.85,0,4.27q0,4.56,0,9.11v12.81c0,4.26,0,8.53-.15,12.8-.06,2.09-.15,4.17-.22,6.26s-.11,4.28-.13,6.42c-.05,4.21-.15,8.41-.18,12.61s0,8.49-.08,12.74-.13,8.47-.14,12.71,0,8.58,0,12.87,0,8.29-.12,12.43-.32,8.53-.44,12.8-.14,8.33-.15,12.5,0,8,0,12.07c0,2,.13,3.94.22,5.9s.18,3.84.31,5.76a1.21,1.21,0,0,0,0-.19c.06.94.14,1.89.2,2.83.14,2.08.18,4.17.18,6.25a1.42,1.42,0,0,0,1.21,1.56h.18a1.41,1.41,0,0,0,1.42-1.22,17.22,17.22,0,0,0,0-1.76c0-.77,0-1.55-.06-2.32,0-1.54-.15-3.07-.26-4.61,0,.07,0,.13,0,.2,0-.71-.09-1.41-.14-2.11-.13-2.1-.21-4.2-.31-6.3s-.14-4.32-.14-6.48q0-6.17,0-12.34t.22-12.49c.13-4.19.36-8.38.44-12.57s0-8.49,0-12.73,0-8.49,0-12.74.11-8.36.15-12.54,0-8.57.08-12.86l.09-6.07c0-2.21.06-4.42.1-6.63.09-4.22.3-8.45.39-12.67s.07-8.48.07-12.72v-12.8C219.27,149.29,219.28,145.19,219.22,141.09Z"/><path d="M215.25,318l-.13,0a1.44,1.44,0,0,0,.3-1.52,1.74,1.74,0,0,0-.23-.4,1.44,1.44,0,0,0-2-.26l-.09.08-1.13.26c-1.12.22-2.26.37-3.4.53s-2.56.36-3.83.51c-1.43.18-2.87.31-4.31.46s-2.84.33-4.26.53l-4.37.57-2.93.4a29.46,29.46,0,0,0,1.14-2.72c.07-.18.14-.36.19-.54s.23-.67.34-1c.37-1.15.72-2.3,1.1-3.45.5-1.43,1-2.85,1.52-4.28s1-2.87,1.39-4.32c.83-2.79,1.61-5.6,2.55-8.37.61-1.69,1.24-3.37,1.79-5.09.48-1.53.9-3.09,1.31-4.64.9-3.37,1.58-6.78,2.27-10.19a1.16,1.16,0,0,1,0,.18c.37-1.79.74-3.59,1-5.39s.53-3.8.73-5.71.37-3.77.5-5.65.23-3.76.35-5.63c0,.06,0,.12,0,.19.14-2.06.35-4.11.49-6.16l0-.44c0-.13,0-.26,0-.39,0-.67.08-1.34.1-2,.08-2.05.05-4.1.05-6.15s0-4.2,0-6.31c0-4-.09-8.08-.16-12.11,0-2.1-.1-4.19-.13-6.28s-.08-4.11-.16-6.17c-.16-4.18-.39-8.36-.65-12.54-.14-2.06-.24-4.12-.33-6.19s-.22-4.06-.32-6.09-.19-4.22-.29-6.34-.17-4-.28-6-.28-4.11-.46-6.16-.42-4.11-.7-6.16c-.14-1.07-.27-2.15-.45-3.22s-.36-2-.55-2.95c-.42-2.1-.84-4.19-1.39-6.26s-1.2-3.92-1.82-5.87-1.23-3.61-1.92-5.39-1.33-3.4-2-5.09-1.51-3.47-2.14-5.26c-.27-.81-.53-1.62-.72-2.46-.09-.53-.13-1.08-.17-1.62s0-.92,0-1.38a1.42,1.42,0,0,0-2.83,0v.2c0,.62,0,1.24.07,1.86a11.82,11.82,0,0,0,.14,1.32,12.08,12.08,0,0,0,.32,1.32,45.06,45.06,0,0,0,2,5.37c.71,1.7,1.41,3.41,2.07,5.12s1.3,3.34,1.89,5c.35,1,.66,2,1,3s.68,2,1,3.07c.67,2.21,1.14,4.47,1.6,6.73l0-.19c.29,1.46.59,2.93.81,4.4s.46,3.23.67,4.85c.37,2.92.57,5.87.77,8.82,0-.07,0-.13,0-.2.07,1.08.12,2.16.17,3.23.17,4.16.35,8.33.59,12.49.12,2,.2,4,.3,6.07s.24,4.17.37,6.25.24,4.27.34,6.41.19,4,.24,6.05q.17,6.18.25,12.34c.07,4,.13,8.06.14,12.1,0,2.13,0,4.28,0,6.42,0,2,0,3.93-.15,5.9v.12c0,.15,0,.31,0,.46a.53.53,0,0,1,0,.13c-.15,2-.33,3.95-.47,5.92s-.24,3.92-.37,5.88c0-.06,0-.13,0-.19-.1,1.28-.21,2.56-.34,3.84s-.24,2.61-.4,3.91c-.32,2.66-.81,5.28-1.34,7.9a1.06,1.06,0,0,0,0-.19l-.81,4c0-.06,0-.12,0-.18-.47,2.3-1,4.59-1.6,6.86s-1.16,4.25-1.88,6.34c-.48,1.36-1,2.72-1.45,4.09s-.83,2.59-1.22,3.89c-.75,2.56-1.47,5.13-2.33,7.66-.52,1.48-1.06,3-1.58,4.45s-.92,2.91-1.41,4.36c-.05.12-.09.25-.13.38v0c-.15.4-.29.79-.44,1.18-.27.68-.57,1.35-.88,2h0l-.07.14a1.46,1.46,0,0,0-.15,1c-2.34.3-4.67.58-7,.79-1.48.13-2.95.26-4.42.41s-2.93.34-4.4.44h.19l-.7,0h0c-2.42.14-4.84.25-7.26.42-2.21.15-4.41.35-6.61.51-1.75.11-3.5.11-5.26.11H145c-5.8,0-11.61.08-17.4-.25l-1.28-.1c-2.93-.24-5.84-.64-8.74-1.11l-4.35-.74c-1.46-.25-2.92-.49-4.37-.78a39.25,39.25,0,0,1-3.81-1.08c-.13,0-.26-.1-.38-.15a1.44,1.44,0,0,0-1.39-1.16,1.51,1.51,0,0,0-.37.06c-.39-2-.76-4-1-6-.32-2.29-.55-4.6-.78-6.9s-.38-4.34-.59-6.51-.4-4.08-.55-6.13-.32-4.24-.5-6.35-.36-4.24-.51-6.36v0c-.19-3.19-.24-6.39-.39-9.58s-.34-6.4-.48-9.6c-.09-2.14-.11-4.3-.19-6.45s-.19-4.28-.3-6.43c-.21-4.31-.19-8.63-.27-12.94s0-8.41-.2-12.6-.55-8.37-.85-12.55c-.08-1.21-.17-2.42-.24-3.63s-.1-2.45-.14-3.68c-.09-2.45-.2-4.9-.31-7.35-.21-4.25-.46-8.5-.65-12.76-.1-2.12-.17-4.25-.24-6.38s-.19-4.18-.24-6.28c-.1-4.18-.19-8.37-.18-12.55,0-2,0-3.95.09-5.93s.12-3.92.24-5.88a46.41,46.41,0,0,1,.72-5.77c.18-.77.4-1.53.65-2.28a.19.19,0,0,1,0,.07l0-.07,0-.11a.49.49,0,0,1,0,.11,49.2,49.2,0,0,1,2-4.71c.42-.8.93-1.56,1.39-2.34s.77-1.3,1.17-1.94c1-1.51,2-3,2.83-4.54.4-.71.8-1.42,1.21-2.12s.84-1.41,1.22-2.13.85-1.66,1.21-2.52a5.51,5.51,0,0,0,.63-2.09,1.42,1.42,0,0,0-2.83-.08l-.06.22c-.32.85-.71,1.68-1.11,2.5s-.93,1.7-1.43,2.54-1,1.83-1.56,2.75c-1,1.67-2.08,3.23-3.07,4.87-.47.79-.93,1.58-1.41,2.36a22.52,22.52,0,0,0-1.37,2.62,33.17,33.17,0,0,0-1.95,5,32.64,32.64,0,0,0-1,5.56c-.19,2-.24,4-.32,6s-.14,4.11-.16,6.17c0,4.05,0,8.11.12,12.17,0,2.14.12,4.27.21,6.41s.14,4.17.22,6.26c.18,4.29.41,8.58.64,12.87.11,2.11.2,4.22.29,6.32s.13,4.07.24,6.1c.21,4.12.57,8.22.87,12.33,0,.37,0,.75.07,1.13.27,4.24.31,8.48.34,12.73,0,2.18.06,4.37.1,6.55s0,4.31.09,6.46.19,4.26.29,6.39.17,4.23.22,6.34c.1,4.27.37,8.54.57,12.81.1,2.09.16,4.19.24,6.29s.22,4.4.4,6.59.36,4.22.53,6.33.28,4.1.47,6.14.43,4.3.61,6.45.39,4.2.6,6.3c.21,1.94.43,3.87.75,5.8.16,1,.34,2,.53,3s.39,2.12.65,3.16a1.42,1.42,0,0,0,1.38,1,1.49,1.49,0,0,0,.36-.05,1,1,0,0,0,.24-.09,2.85,2.85,0,0,0,.46.31l.64.68c.28.34.56.68.81,1a13.61,13.61,0,0,1,.88,1.52q.31.66.57,1.35a30.49,30.49,0,0,1,.93,3.23c0,.24.09.47.12.72s0,.35,0,.53a1.1,1.1,0,0,0,.11.57,1.44,1.44,0,0,0-.18.68,1.32,1.32,0,0,0,.15.62,2.72,2.72,0,0,0,.13.49,3.75,3.75,0,0,0,.62,1,9.15,9.15,0,0,0,3.84,2.39,23.79,23.79,0,0,0,3.95,1.15,76.59,76.59,0,0,0,8.52,1.33c1.45.15,2.89.35,4.34.52s2.81.28,4.22.38c2.9.22,5.8.5,8.7.6,1.51.06,3,.09,4.54.09s2.76,0,4.14-.08q4.43-.15,8.83-.38l8.78-.44c2.92-.14,5.85-.19,8.77-.39l.4,0h0l1.9-.13h-.19c1.48-.09,2.95-.18,4.42-.31s2.74-.29,4.11-.39h-.19c2.92-.19,5.85-.25,8.74-.67,1.45-.21,2.9-.41,4.34-.66.68-.12,1.36-.27,2-.44l.91-.23a1.33,1.33,0,0,0,.84.65,1.12,1.12,0,0,0,.36.05,1.43,1.43,0,0,0,1.38-1c.16-.67.36-1.31.57-2a26.89,26.89,0,0,1,1.11-2.59c.39-.74.82-1.46,1.28-2.16a19.69,19.69,0,0,1,1.38-1.78c.39-.42.8-.82,1.23-1.21a50.35,50.35,0,0,0,5.4-4.59l.05-.06a1.38,1.38,0,0,0,.47-1.25A1.42,1.42,0,0,0,215.25,318Zm-2,1.57-.8.69c-1.05.89-2.18,1.68-3.24,2.57a18.38,18.38,0,0,0-2.84,3.07,23.87,23.87,0,0,0-3.19,6.21c-.59.16-1.19.3-1.78.45s-.94.24-1.42.34c-1.43.27-2.87.46-4.31.68s-2.68.35-4,.44c-1.9.12-3.8.21-5.7.35s-3.57.35-5.36.49l-4.22.28h.2l-.32,0h.19l-.38,0h.07c-.95.07-1.89.12-2.84.16l-4.43.15-4.53.22c-2.9.14-5.79.3-8.69.43s-5.91.29-8.87.3-5.73,0-8.6-.23h0c-1.42-.1-2.84-.22-4.26-.34s-2.8-.2-4.2-.34-2.86-.37-4.29-.53-2.75-.27-4.11-.48-2.91-.45-4.35-.73a32.31,32.31,0,0,1-3.64-.92,23.26,23.26,0,0,1-2.18-.91c-.21-.11-.41-.22-.61-.35l-.33-.25-.32-.31c-.05-.07-.11-.14-.16-.22v0a2.33,2.33,0,0,0-.21-.68,1.62,1.62,0,0,0,.18-.65,9.88,9.88,0,0,0-.51-3.23,25.77,25.77,0,0,0-1-2.93c-.2-.47-.43-.94-.67-1.4,1,.23,2,.43,3,.6,2.88.5,5.76,1,8.65,1.46s6,.79,9.07,1,5.83.19,8.74.21h14.94c.91,0,1.83,0,2.75,0,2.93-.15,5.85-.45,8.77-.66,2.1-.12,4.2-.21,6.3-.35,1.83-.12,3.65-.34,5.47-.52s3.46-.31,5.18-.47c1.49-.14,3-.33,4.45-.52s2.76-.32,4.13-.52l8.68-1.16c2.83-.38,5.69-.58,8.52-1,1.4-.19,2.79-.37,4.18-.58.68-.1,1.35-.19,2-.33l1.08-.23a7.41,7.41,0,0,0,.84-.24l-.22.24a8.83,8.83,0,0,1-.82.8Z"/><path d="M169.85,324h0Z"/><path d="M176.42,337.93h0Z"/><path d="M105.88,109.08l.21.08a.5.5,0,0,0,0,.13,3.49,3.49,0,0,0,0,.46,1.37,1.37,0,0,0-.16.63,1.77,1.77,0,0,0,.08.46l0,0a2.74,2.74,0,0,0,0,.28,1.51,1.51,0,0,0,.52.79,1.4,1.4,0,0,0,1.42.18,1.45,1.45,0,0,0,.81-.93,3.14,3.14,0,0,0,.08-.87c1.67.18,3.32.5,5,.74,2.93.44,5.87.85,8.82,1.13,1.56.15,3.12.3,4.68.4s3,.19,4.49.29h.09l.94.07c1.54.13,3.07.28,4.6.38s3,.15,4.49.22c2.93.14,5.86.26,8.79.31s5.89,0,8.83.06,5.84.11,8.77.13c1.47,0,2.94,0,4.41,0s2.94,0,4.41,0,2.86,0,4.29,0,3-.13,4.43-.22,2.84-.19,4.26-.33,2.85-.26,4.26-.45,2.82-.44,4.23-.63c1-.13,1.92-.3,2.88-.48l1.56-.05a16.06,16.06,0,0,0,2.19-.2,2.56,2.56,0,0,0,1.44-.64,2.19,2.19,0,0,0,.63-1.29,10,10,0,0,0-.08-1.73,22,22,0,0,0-.54-3,12,12,0,0,0-1-2.91,6.34,6.34,0,0,0-3.13-2.62,19.11,19.11,0,0,0-4-1,67.66,67.66,0,0,0-8.54-.7c-3-.15-6-.25-8.95-.25H155.06c-2.86,0-5.71,0-8.57.1l-8.47.24c-3,.08-5.93.1-8.88.34-1.36.11-2.73.22-4.09.37s-2.8.38-4.21.49-2.66.15-4,.24-2.52.18-3.77.27l-1.11.07c-1.45.07-2.91,0-4.36.13a3.7,3.7,0,0,0-2.57.94,5.5,5.5,0,0,0-1.05,2.19,6,6,0,0,0-.37,2.3,5.94,5.94,0,0,0,.48,1.94A4.26,4.26,0,0,0,105.88,109.08Zm.55-4.27a2.34,2.34,0,0,1,0-.26c.1-.45.24-.88.38-1.31.07-.18.14-.37.22-.54l0,0,.09,0,.51-.06c1.48-.09,3,0,4.44-.13s3-.22,4.52-.33c2.38-.15,4.78-.22,7.15-.55,2.2-.31,4.43-.49,6.66-.65,2-.12,4-.16,6.07-.21l5.9-.17c2.87-.08,5.74-.16,8.62-.19s5.63,0,8.45,0h17.39c2.9,0,5.8,0,8.7.07s5.81.22,8.72.41a37.46,37.46,0,0,1,4.84.62c.62.14,1.24.27,1.84.47a9.11,9.11,0,0,1,.86.35,3.64,3.64,0,0,1,.39.23c.2.14.4.29.59.45l.2.21a.39.39,0,0,1,.08.1l.17.29c.09.2.18.41.26.61a21,21,0,0,1,.63,2.36,22.19,22.19,0,0,1,.34,2.43L204,109l-.82,0a1.47,1.47,0,0,0-1-.11l-.19,0-.82.15h-.31a1.62,1.62,0,0,0-.62.16c-.66.12-1.33.23-2,.32l-3.81.57c-1.3.19-2.61.31-3.92.44s-2.55.24-3.83.33c-2.37.15-4.74.28-7.11.29s-4.89.06-7.33,0q-4.35,0-8.69-.09c-2.92-.06-5.84-.07-8.76-.1-5.85,0-11.69-.21-17.52-.58-1.56-.11-3.11-.27-4.67-.39s-3.13-.19-4.69-.3q-2.61-.18-5.22-.45c-3-.29-5.94-.7-8.9-1.15-1.46-.23-2.91-.48-4.38-.67a9.23,9.23,0,0,0-1.18-.07h-.14a1.43,1.43,0,0,0-1.17-1.11l-.08-.09a.76.76,0,0,1-.11-.14.65.65,0,0,1-.09-.16c0-.07-.06-.14-.08-.2s-.09-.32-.13-.47l-.06-.41Z"/><path d="M117,105.53c1.69,0,3.39,0,5.08,0,3,0,6,.14,8.91.26s6.05.24,9.07.34c6,.21,12,.18,18,.18h3.18c1.84,0,3.67,0,5.5-.08,2.92-.11,5.83-.32,8.75-.38,1.44,0,2.88,0,4.32-.12s2.71-.18,4.07-.23c2.88-.1,5.77-.09,8.65-.09a1.42,1.42,0,1,0,0-2.83c-1.91,0-3.82,0-5.72,0-1.35,0-2.7,0-4.05.1s-2.76.2-4.14.24-2.85.05-4.28.1-2.89.12-4.34.2c-5.94.31-11.88.22-17.82.21-3,0-5.92,0-8.87-.09s-6-.2-9-.3-5.95-.26-8.93-.33c-2.78-.07-5.56-.08-8.34-.08a1.42,1.42,0,1,0,0,2.83Z"/><path d="M211.51,227c0-4-.09-8.08-.18-12.11s-.07-8.24-.26-12.36c-.18-4-.38-7.91-.47-11.88,0-2.07-.06-4.14-.09-6.21s-.09-4.07-.12-6.11,0-4,0-6-.1-4.08-.15-6.12-.08-4.05-.15-6.07-.2-4-.34-6.08-.18-4.15-.44-6.21-.64-4.06-1.06-6.08c-.21-1-.42-2-.67-2.92s-.57-2-.88-3-.64-1.91-1-2.85-.68-1.7-1-2.56l0,.08,0-.09,0-.09,0,.07c-.3-.87-.59-1.75-.9-2.62s-.71-1.93-1.07-2.89q-1-2.58-1.89-5.18a19.24,19.24,0,0,1-.62-2.09c-.06-.31-.1-.61-.13-.92a2.35,2.35,0,0,1,0-.26,1.35,1.35,0,0,0,.05-.6,1.43,1.43,0,0,0-1.59-1.22c-1.44.2-1.37,1.89-1.2,3a21.56,21.56,0,0,0,1.1,3.84c.45,1.24.9,2.49,1.36,3.73s.94,2.45,1.38,3.69.73,2.2,1.13,3.28.83,2.1,1.22,3.15c.46,1.35.9,2.72,1.26,4.09s.65,2.77.93,4.16l0-.18a56.59,56.59,0,0,1,1,6.75c.11,1.65.2,3.3.31,4.95s.2,3.27.26,4.91.1,3.26.13,4.9.09,3.3.13,5c0,2,.06,3.94.08,5.91s.06,4.19.1,6.28c.08,4.05.08,8.1.23,12.14s.39,8.09.49,12.14c0,2,0,4.05.08,6.08s.09,3.92.12,5.88c.14,8.15.16,16.29.17,24.44v24.5q0,3.15,0,6.3c0,2-.12,4-.19,6s-.13,4.05-.2,6.07-.13,3.94-.25,5.9v-.09c-.16,2.32-.34,4.64-.49,7a1.28,1.28,0,0,0,0-.19c-.19,2.9-.49,5.8-.85,8.69-.19,1.44-.35,2.89-.59,4.33-.2,1.16-.46,2.31-.61,3.49a1.43,1.43,0,0,0,1.21,1.6h.18a1.42,1.42,0,0,0,1.41-1.23c.19-1.46.54-2.9.75-4.36.23-1.68.45-3.36.65-5s.37-3.43.52-5.15.24-3.47.35-5.2.25-3.24.35-4.87.14-3.19.19-4.8l.33-9.76c.14-4.11.1-8.23.1-12.34v-12.3C211.56,243.17,211.59,235.09,211.51,227Z"/><path d="M231.94,270.48h0c0-.06,0-.11,0-.16S231.94,270.43,231.94,270.48Z"/><path d="M338.39,186.12c0-5,0-10-.07-15s-.08-9.81-.33-14.71c-.13-2.48-.27-5-.36-7.45s-.12-4.76-.19-7.14c-.15-4.82-.36-9.64-.56-14.47-.11-2.57-.23-5.13-.32-7.7s-.08-4.86-.11-7.3c-.05-5-.21-10.1-.29-15.15,0-2.44,0-4.88-.09-7.32s-.13-4.94-.26-7.4-.26-5.15-.34-7.72c-.06-2.07,0-4.15,0-6.22A1.44,1.44,0,0,0,334,67.15l-.24,0a1.42,1.42,0,0,0,.23-.76,1.42,1.42,0,1,0-1.42,1.42,1,1,0,0,0,.25,0,1.34,1.34,0,0,0-.23.76c0,1.36,0,2.73,0,4.09,0,1.79.07,3.58.15,5.37.15,3.48.36,7,.45,10.45.06,2.27.07,4.54.09,6.81a1.34,1.34,0,0,0-1.12-.35l-.09,0-.43-.13a10.54,10.54,0,0,0-1.34-.45c-.51-.13-1-.18-1.55-.28a5,5,0,0,0-2,0,8.75,8.75,0,0,0-.88.23l-.38.13a1.39,1.39,0,0,0-.91.29,1.42,1.42,0,0,0-.48.68l0-.09a10,10,0,0,0-1-1.93,19.19,19.19,0,0,0-1.25-1.84,13.09,13.09,0,0,0-3-2.75,19.58,19.58,0,0,0-3.45-1.89,38,38,0,0,0-3.9-1.31c-.63-.17-1.25-.36-1.87-.54s-1.31-.36-1.95-.57a8.65,8.65,0,0,1-1-.42l-.52-.31c-.24-.17-.48-.36-.71-.55-.72-.67-1.38-1.41-2.1-2.08a9.82,9.82,0,0,0-2.77-1.92,14.61,14.61,0,0,0-4.24-1c-1.35-.14-2.73-.23-4.1-.25a35.23,35.23,0,0,0-4.1.24,31.7,31.7,0,0,0-4.21.74,35.77,35.77,0,0,0-4.3,1.36c-.63.24-1.25.5-1.88.76s-1.35.52-2,.84a25.66,25.66,0,0,0-3.7,2.3c-1.19.88-2.33,1.83-3.55,2.67-.69.46-1.39.89-2.1,1.33l-1.06.69c-.23.16-.47.31-.68.49a1.44,1.44,0,0,0-.25,2,1.42,1.42,0,0,0,2,.25c.2-.17.42-.3.63-.45,1.29-.85,2.66-1.6,3.89-2.53s2.48-1.94,3.77-2.83c.65-.43,1.31-.84,2-1.21s1.7-.74,2.57-1.09,1.56-.64,2.36-.92h0l.12,0-.12,0a41.13,41.13,0,0,1,4.21-1.19,38.72,38.72,0,0,1,4.44-.54c.66,0,1.32-.07,2-.06s1.47,0,2.2.1h-.08a27.49,27.49,0,0,1,3.27.37c.4.09.79.19,1.17.31s.58.23.86.36a6.91,6.91,0,0,1,.65.38c.3.21.58.44.86.68.88.8,1.65,1.71,2.56,2.49a8.68,8.68,0,0,0,2.72,1.6c1.11.4,2.27.69,3.4,1s2.17.62,3.24,1a22.22,22.22,0,0,1,2.13.89c.68.35,1.34.74,2,1.16a13.8,13.8,0,0,1,1.23.94c.32.3.63.61.92.93s.4.52.59.79l-.38,0c-.82.13-1.64.27-2.47.34-.29,0-.58,0-.87,0a1.42,1.42,0,1,0,0,2.83h.12a18.82,18.82,0,0,0,2-.13c.72-.1,1.44-.25,2.16-.33h.18a4.44,4.44,0,0,1,.49.07l-.19,0,.56.11c.4,1.23.76,2.48,1,3.74a21.7,21.7,0,0,1,.35,2.79c0,.79.06,1.59.07,2.38s0,1.44,0,2.16c0,.27-.07.53-.11.8-.19.88-.42,1.74-.67,2.61a1.24,1.24,0,0,0-.47,0,12.76,12.76,0,0,0-1.48.36c-.36.1-.73.22-1.1.31-.12,0-.24,0-.36.06-.41,0-.83,0-1.24,0h0a1.38,1.38,0,0,0-.86.3,4,4,0,0,0-.49-1.44,4.63,4.63,0,0,0-1.06-1.19,9.24,9.24,0,0,0-4.44-1.83,1.42,1.42,0,0,0-.39,2.81l.58.11c.32.07.63.16.93.25s.5.2.74.32.28.16.41.25l.4.3.28.27.12.16.06.11,0,.09,0,.13v.14s0,.07,0,.11-.07.22-.1.33-.13.31-.2.47l-.26.47c-.1.14-.2.28-.31.41s-.26.28-.4.42-.26.22-.4.32l-.29.17-.34.14a1.89,1.89,0,0,1-.34.09l-.3,0h-.14l-.28,0-.31-.08-.4-.16-.34-.19-.2-.16-.1-.1-.06-.08-.11-.19,0-.09s0-.11,0-.16,0-.21-.05-.32v-.31q0-.42.12-.84c.06-.29.14-.57.23-.86l.05-.12a1.39,1.39,0,0,0,.39-1,1.44,1.44,0,0,0-1.42-1.42c-1,0-1.45.87-1.73,1.67a9.67,9.67,0,0,0-.27,1,1.27,1.27,0,0,0-.34,0,1.42,1.42,0,0,0,0,2.84,1,1,0,0,0,.24,0l.06.25a4.11,4.11,0,0,0,.93,1.67,5.3,5.3,0,0,0,2.56,1.45,5.55,5.55,0,0,0,1.21.14,4.85,4.85,0,0,0,1-.1,5.34,5.34,0,0,0,1.95-.86,7,7,0,0,0,1.77-1.8,7.74,7.74,0,0,0,.78-1.58,1.39,1.39,0,0,0,1.14.6h.86a5.6,5.6,0,0,0,1.09-.09c.6-.12,1.18-.3,1.77-.47l-.75,2.26c-.86,2.62-1.73,5.23-2.63,7.83l.06-.17a31.26,31.26,0,0,1-1.52,3.7,15.53,15.53,0,0,1-.93,1.63,10.92,10.92,0,0,1-.72,1c-.57.64-1.2,1.24-1.83,1.82-.28.24-.56.46-.85.67l-.53.31c-.3.14-.59.27-.9.38a14.35,14.35,0,0,1-1.43.38,23.21,23.21,0,0,1-2.62.35c-2.28.14-4.56.15-6.84.15-1.39,0-2.78,0-4.18,0s-2.75-.06-4.13,0-2.88.06-4.32.09l-2.06,0c-.57,0-1.15,0-1.73,0l-.14,0-.07,0-.09,0-.12-.07-.44-.35c-.3-.27-.59-.55-.87-.85-.66-.78-1.2-1.66-1.84-2.46s-1.42-1.81-2.07-2.75c-.85-1.33-1.51-2.79-2.31-4.16s-1.72-2.6-2.46-4l-.12-.26a1.46,1.46,0,0,0-1.1-.84c0-.53,0-1.05,0-1.58a1.35,1.35,0,0,0,.29,0c.63.09,1.26.22,1.9.3.83.11,1.68.17,2.52.21.34,0,.67,0,1,0a12.85,12.85,0,0,0,1.63-.1c.85-.11,1.7-.23,2.56-.29h-.08a1.5,1.5,0,0,0,1-.41,1.45,1.45,0,0,0,.41-1,1.42,1.42,0,0,0-1.41-1.42c-1.19.08-2.37.3-3.55.39-.65,0-1.31,0-2,0s-1.47-.12-2.19-.23l-1.06-.16a4.45,4.45,0,0,0-.72-.1,1.39,1.39,0,0,0-.5.1l-.12-1.62a33.36,33.36,0,0,0-.6-4.11,1.29,1.29,0,0,0,0,.19c-.19-.94-.36-1.87-.59-2.79a25.73,25.73,0,0,0-1-2.84c-.36-1-.66-2.09-1.09-3.11s-1-2-1.51-3a1.19,1.19,0,0,0,.08.16l-.14-.27.22-.29.05-.05a8.44,8.44,0,0,0,3,.89,4.46,4.46,0,0,0,2.1-.59c.34-.17.67-.35,1-.53l.35-.15.26-.07c.49-.09,1-.13,1.45-.25a8.77,8.77,0,0,0,1.67-.61,1.52,1.52,0,0,0,.75-.75,1.42,1.42,0,0,0-1.86-1.86,7.84,7.84,0,0,1-.72.32l-.68.19a11.17,11.17,0,0,0-1.91.4,13.53,13.53,0,0,0-1.66.83l-.46.2-.1,0H270l-.28,0a3,3,0,0,1-.43-.12c-.37-.13-.72-.29-1.08-.45a3.1,3.1,0,0,0-2-.23,2.3,2.3,0,0,0-.82.43c-.09-.19-.17-.38-.27-.56l-.08-.18c-.13-.28-.31-.55-.46-.83s-.22-.55-.33-.83-.33-.75-.51-1.12a11.15,11.15,0,0,0-.63-1.18c-.21-.33-.44-.66-.67-1-.67-1-1.25-2.08-2-3.06s-1.48-2.09-2.33-3a30.63,30.63,0,0,0-3.15-3,42.46,42.46,0,0,0-3.38-2.58c-.59-.41-1.21-.79-1.82-1.18a19.85,19.85,0,0,0-1.74-1,9.37,9.37,0,0,0-1.84-.65,6.9,6.9,0,0,0-2.17-.16c-.66,0-1.31.16-2,.25a8.44,8.44,0,0,0-2,.49,4.59,4.59,0,0,0-1.61,1.07,3,3,0,0,0-.76,2.18,6.57,6.57,0,0,0,.24,1.92l.1.25a1.41,1.41,0,0,0,0,.2v4.28c0,2.92,0,5.84-.07,8.76,0,1.44,0,2.87-.07,4.3,0,1.09-.09,2.17-.14,3.26a2.11,2.11,0,0,0-1.62-.71,3.65,3.65,0,0,0-1.48.42c-.32.16-.65.31-1,.44s-.46.13-.69.18c-.47.08-.93.12-1.4.16-1.44.08-2.91.15-4.35.11,0-1.65,0-3.31,0-5,0-5.09,0-10.18-.13-15.26C227,79,227,76.56,227,74.11c0-1.25-.06-2.5-.1-3.75,0-.55,0-1.1-.06-1.64a3.34,3.34,0,0,0-.12-.84,1.61,1.61,0,0,0,.53.1,1.38,1.38,0,0,0,1-.41c.21-.23.43-.46.66-.68l.3-.23.16-.1.37-.15c.81-.26,1.62-.55,2.43-.83.35-.11.69-.21,1-.29,1-.19,2.09-.31,3.14-.45,1.22-.16,2.43-.31,3.65-.45,2.21-.25,4.44-.45,6.65-.6l1.16-.07c.7,0,1.39-.07,2.08-.12h.54l2.33-.17,4.24-.33c1.26-.09,2.53-.16,3.79-.21,3-.14,5.92-.29,8.88-.47s5.94-.37,8.91-.43,6,0,9.05,0,5.93,0,8.9.06,5.75,0,8.61.15,6,.27,9,.46h.4a.83.83,0,0,0,.22,0l.27,0-.19,0,.92.07c2.93.22,5.85.57,8.76.89l4.41.49a38.86,38.86,0,0,0,4,.33,1.42,1.42,0,0,0,0-2.84c-.3,0-.61,0-.91,0-2.78-.23-5.55-.6-8.33-.9s-5.79-.64-8.7-.84h-.37a.81.81,0,0,0-.22,0h-.13c-3.53-.24-7.08-.43-10.62-.51-5.89-.14-11.78-.17-17.67-.17-3.05,0-6.11,0-9.16,0-2.89.09-5.77.31-8.66.47s-5.92.3-8.88.45-5.94.44-8.91.65h-.33l-.22,0c-.22,0-.45,0-.66,0l-1.63.09c-3,.17-5.93.44-8.88.79-1.45.17-2.91.36-4.35.56a17.58,17.58,0,0,0-2.17.38c-.63.16-1.23.39-1.84.61l.08,0-.11,0-.07,0,.06,0-1,.35a7.28,7.28,0,0,0-1.27.5,7.11,7.11,0,0,0-1.73,1.46,1.49,1.49,0,0,0-.33,1.42,1.49,1.49,0,0,0-1.06,0,1.43,1.43,0,0,0-.75,1.86h0l-.06-.17h0a1.16,1.16,0,0,1,0-.18s0,.1,0,.15c.08,1.32.09,2.65.12,4s0,2.7.07,4.05c0,2.88.11,5.75.15,8.63.08,5,.06,9.92.06,14.89s0,9.85,0,14.78-.07,9.77.1,14.65.31,9.61.45,14.42c.08,2.47.22,4.94.29,7.41s.13,4.82.28,7.22.3,5,.4,7.44.24,5,.42,7.5.38,4.88.54,7.31c.09,1.18.17,2.35.26,3.52l.12,1.81.06.83c0,.21,0,.43,0,.65s0,.47,0,.69a1.21,1.21,0,0,0,0,.19c.12,1.9.22,3.8.34,5.71s.26,3.74.39,5.61v-.07c.15,2.27.24,4.54.36,6.81s.28,4.44.43,6.65c0-.06,0-.13,0-.19.31,4.8.45,9.6.76,14.4s.57,9.35.9,14v0c.16,2.46.29,4.92.44,7.38s.29,4.88.39,7.33c.2,4.74.22,9.49.54,14.22h0a4.55,4.55,0,0,0,0,.52c0,.09,0,.17,0,.25s0-.12,0-.19c.17,2.54.27,5.07.4,7.61s.24,4.88.28,7.33,0,4.89.08,7.33c0,1.16.06,2.31.1,3.46s.09,2.32.18,3.48.25,2.52.37,3.78.21,2.41.32,3.62a1.43,1.43,0,0,0,1.42,1.22h.18a1.44,1.44,0,0,0,1.21-1.6c-.13-1.33-.22-2.66-.36-4s-.28-2.58-.37-3.88c-.12-2.18-.18-4.37-.21-6.55a20.47,20.47,0,0,0,2,.63,41.73,41.73,0,0,0,6,1.12c1.4.2,2.81.36,4.22.56s2.75.37,4.13.53c2.85.34,5.72.67,8.59.86h.15l.27,0c.29,0,.61,0,.88,0l1.14.06c.71,0,1.43.05,2.14.06,2.58,0,5.16,0,7.74,0h1a35.49,35.49,0,0,0,4.38-.19c1.48-.18,3-.38,4.44-.53s2.82-.27,4.23-.45,2.73-.34,4.11-.45l.64,0h.19c1.47-.1,2.93-.18,4.39-.34s2.87-.41,4.31-.61c2.91-.39,5.82-.82,8.71-1.33,1.45-.26,2.92-.52,4.36-.85s2.73-.77,4.1-1.14,2.64-.75,4-1.14,2.39-.86,3.58-1.28l2.23-.79a11.9,11.9,0,0,0,1.12-.45c.32-.15.62-.32.93-.49.63-.3,1.3-.53,1.93-.85.21-.11.41-.23.61-.36a3.74,3.74,0,0,0,.9-.63,1.19,1.19,0,0,0,.16-.23c-.12,1.4-.28,2.8-.43,4.2-.19,1.89-.35,3.77-.49,5.66s-.29,3.5-.46,5.24l-.24,2.65a1.41,1.41,0,0,0-1.51,1.21c-.08.69-.18,1.38-.31,2.06a15.46,15.46,0,0,1-.49,1.77c-.06.15-.12.31-.19.46s-.16.3-.26.45l-.23.3-.26.26a39.41,39.41,0,0,1-3.61,2.7c-.54.35-1.08.69-1.66,1a11.87,11.87,0,0,1-1.27.55c-.35.1-.69.19-1,.26-1,.19-2,.35-3,.56l-2.94.58c-2.9.55-5.84.93-8.75,1.43-1.44.24-2.88.49-4.34.67s-2.81.32-4.22.49-3,.38-4.5.57-2.92.35-4.38.53c-3,.37-5.93.75-8.92,1-1.43.09-2.87.16-4.31.21s-2.84,0-4.26,0c-2.86,0-5.71-.13-8.57-.31-1.53-.12-3.05-.28-4.57-.49s-3.22-.43-4.81-.74c-2.05-.42-4.09-.91-6.11-1.43-1-.27-2-.53-3-.84s-2-.64-2.94-1a15.61,15.61,0,0,1-1.47-.6c-.46-.25-.9-.53-1.34-.82s-.77-.55-1.13-.85a7.66,7.66,0,0,1-.57-.57,10.7,10.7,0,0,1-.68-.83,1.23,1.23,0,0,0,0-.2,1.43,1.43,0,0,0-1.59-1.22,1.5,1.5,0,0,0-1.24,1.27,2.39,2.39,0,0,0,.38,1.54,7.63,7.63,0,0,0,.74,1,11.76,11.76,0,0,0,.83.91,14.45,14.45,0,0,0,1.87,1.43,13.46,13.46,0,0,0,1.88,1.08c.67.3,1.37.54,2.06.77l2.1.71c1.31.43,2.66.77,4,1.11s2.8.67,4.21,1,2.9.61,4.38.81,2.95.41,4.44.57c3,.31,6,.43,9,.5,1.25,0,2.51,0,3.77,0,1.7,0,3.41,0,5.12-.12,2.95-.15,5.9-.46,8.84-.82s6-.74,9.06-1.13c2.86-.38,5.73-.62,8.58-1.07,1.45-.23,2.89-.49,4.34-.72l4.38-.69c1.45-.24,2.89-.53,4.33-.81l2.06-.4c.73-.13,1.48-.23,2.21-.4a12.6,12.6,0,0,0,3.93-1.7c1.23-.78,2.41-1.63,3.55-2.52a10.68,10.68,0,0,0,1.7-1.52,6.71,6.71,0,0,0,1.14-2.08,15.86,15.86,0,0,0,.52-1.91h0l.19,0a1.43,1.43,0,0,0,1.41-1.23c.19-1.59.32-3.18.47-4.77.21-2.23.4-4.45.57-6.68.19-2.39.45-4.77.7-7.15s.35-4.54.43-6.82c.09-2.44.19-4.86.34-7.29v.09c.14-2,.3-3.94.42-5.91h0a.91.91,0,0,0,0,.17c0-.13,0-.26,0-.38s0-.15,0-.23V266c0-.19,0-.39,0-.58,0-.58.07-1.17.1-1.75.06-1.2.11-2.4.16-3.6.11-2.46.19-4.92.22-7.39s.08-4.85.14-7.28c.11-5,.09-9.94.12-14.92s.19-9.83.35-14.74c.09-2.49.21-5,.28-7.48s.06-4.94.06-7.4Q338.4,193.51,338.39,186.12ZM240.54,77.85l.06,0,.12-.09a2.4,2.4,0,0,1,.27-.16l.34-.14a3,3,0,0,1,.43-.11,23.43,23.43,0,0,1,2.63-.37h.5l.47.07c.29.07.58.15.86.24s.48.19.71.3c1,.54,2,1.18,3,1.82l0,0a44.8,44.8,0,0,1,4.35,3.42,26.07,26.07,0,0,1,1.89,1.9c.48.56.91,1.15,1.34,1.75s.78,1,1.16,1.59.61,1,.92,1.48.66,1,1,1.52c.19.3.37.62.54.93.27.56.51,1.12.73,1.7a14.46,14.46,0,0,0,.69,1.36h0c.4.83.78,1.66,1.19,2.47l-.08-.16c.26.53.51,1.07.78,1.59s.62,1.14.92,1.72.52,1.16.74,1.76.38,1.2.59,1.8.45,1.19.67,1.79a16.91,16.91,0,0,1,.51,2c.12.58.23,1.16.35,1.74a44.39,44.39,0,0,1,.66,5.75c.14,2.07.14,4.15.15,6.23,0,1,0,2.08,0,3.12s.1,1.78.17,2.68c.18,2.71.14,5.43.2,8.15,0,1.36.05,2.72.05,4.08s0,2.61-.06,3.91c-.09,1.11-.24,2.21-.43,3.3s-.34,2-.54,3a35.93,35.93,0,0,1-1,3.72,24.23,24.23,0,0,1-1.08,2.58,19.79,19.79,0,0,1-1,1.73c-.43.6-.89,1.18-1.37,1.74s-1,1-1.5,1.51a34,34,0,0,1-3.11,2.37l.08-.06-.09.06-.06,0,0,0c-.84.55-1.69,1.08-2.59,1.56a20.06,20.06,0,0,1-2.17.95,18.13,18.13,0,0,1-1.92.52h0l-.14,0h0c-1,.2-2,.41-2.94.66s-1.73.44-2.61.63a29.54,29.54,0,0,1-3.63.47h-.05a4.26,4.26,0,0,1-.5,0l-.06,0,0,0-.24-.18c-.15-.14-.29-.29-.43-.44s-.24-.3-.36-.46-.18-.3-.26-.46-.1-.24-.15-.36c-.11-.33-.2-.67-.28-1s-.13-.89-.16-1.33c0-.08,0-.15,0-.22a5,5,0,0,0,1.09,0,10.23,10.23,0,0,0,4.1-1.31c1.24-.7,2.41-1.53,3.67-2.21.57-.31,1.16-.59,1.72-.94s1.25-.78,1.84-1.22a17.11,17.11,0,0,0,3.16-3,20.18,20.18,0,0,0,2.4-3.65,44.91,44.91,0,0,0,2.78-8.06c.36-1.3.69-2.62,1.06-3.92.2-.71.42-1.43.6-2.15s.34-1.51.47-2.27c.24-1.35.5-2.7.63-4.07s.21-2.79.24-4.19.05-2.84.06-4.26,0-2.86,0-4.3-.1-2.65-.15-4a36.21,36.21,0,0,0-.28-4.29,23.11,23.11,0,0,0-1-4.1c-.21-.62-.44-1.23-.67-1.84s-.45-1.1-.65-1.65l-.24-.68v0c-.12-.35-.24-.69-.35-1-.21-.66-.42-1.31-.61-2s-.33-1.22-.52-1.82a18.3,18.3,0,0,0-1.76-3.81,23.44,23.44,0,0,0-2.24-2.91c-.86-1-1.72-2-2.56-3.08s-1.7-2-2.61-2.94c-.41-.43-.82-.86-1.26-1.25a13.77,13.77,0,0,0-1.88-1.44c-.59-.37-1.19-.69-1.81-1a15.73,15.73,0,0,0-1.74-.75,24.45,24.45,0,0,0-3.62-.62h0a.29.29,0,0,1,0-.09c0-.18-.05-.36-.07-.54v0c0-.17,0-.35,0-.53A.34.34,0,0,0,240.54,77.85Zm34.62,95.6,0,.05,0,0Zm-.86,3.94c.27,0,.55.06.83.1a32.64,32.64,0,0,1,3.78,1.08l-.05,0,.17.06h0l1.26.44h0l.05,0h0l.06,0,.14.05c1.76.6,3.55,1.12,5.31,1.74l0,0,.7.24c3.28,1.17,6.46,2.59,9.68,3.91,1.38.57,2.75,1.17,4.12,1.77s2.54,1.14,3.85,1.62a35,35,0,0,0,4.13,1.24c1.28.29,2.56.57,3.81,1h0l.13.05-.13-.05a28.67,28.67,0,0,1,2.8,1.19l.48.27.12.1a5.32,5.32,0,0,1,.47.48,16.06,16.06,0,0,1,1,1.29,5.59,5.59,0,0,0,1.31,1.43,3.3,3.3,0,0,0,2.59.32,7.21,7.21,0,0,0,1.41-.65l.18-.08h0l.24.31c.09.14.17.28.25.43s.15.33.22.51.13.46.18.69a24,24,0,0,1,.3,2.67,34.06,34.06,0,0,1,.07,3.91c-.08,1-.24,2-.37,3s-.27,2.18-.38,3.27c-.21,2.07-.47,4.12-.86,6.16-.11.52-.24,1-.4,1.54-.08.21-.17.43-.27.64s-.14.24-.21.36h-.16l-.28,0-.26-.06-.11,0-.38-.22c-.2-.15-.41-.31-.6-.47l-.31-.31-.09-.13a1.62,1.62,0,0,1-.1-.18,1.38,1.38,0,0,0-.63-.54,1.41,1.41,0,0,0-2.66-.94l-.06.14c-.17.31-.36.62-.55.92-.4.59-.84,1.15-1.28,1.72s-.78,1-1.19,1.51q-.33.36-.69.69a6,6,0,0,1-.49.39c-.16.1-.31.19-.47.27l-.51.22-.47.13-.65.08c-.92,0-1.84,0-2.76-.08s-2.08-.09-3.12-.16c-.77,0-1.55-.11-2.32-.19-1.47-.14-2.93-.29-4.41-.37s-2.81-.09-4.22-.16c-2.81-.15-5.64-.19-8.46-.36-1.24-.09-2.49-.17-3.73-.29s-2.43-.31-3.63-.54l.18,0-.78-.15h0c-1.45-.31-2.9-.65-4.34-1s-3-.76-4.44-1.11-2.89-.63-4.34-.92c-2.31-.49-4.62-1-6.93-1.51l.07,0c-2.15-.44-4.3-.83-6.45-1.26l.19,0-4-.82a15,15,0,0,0-2.58-.3,1.25,1.25,0,0,0-.41-.26c-.31-.12-.61-.26-.93-.38h0s0,0,0,0c0-.17,0-.35,0-.52-.08-1.35-.08-2.69-.08-4,0-2.89,0-5.78.12-8.67,0-1.54.12-3.08.18-4.63,0-1,0-2.05.08-3.07a1.47,1.47,0,0,0,.33-.91,1.65,1.65,0,0,0,0-.32,2.85,2.85,0,0,1,.25-.33,5.94,5.94,0,0,0,.67-.83c.16-.26.29-.54.45-.8l0,0a2,2,0,0,0,.64,0c.38,0,.76-.1,1.14-.16a15.32,15.32,0,0,0,2.51-.52c1.68-.53,3.26-1.3,4.91-1.9,1.23-.42,2.48-.78,3.7-1.24s2.2-.94,3.27-1.46a29.16,29.16,0,0,0,3.17-1.69c1-.64,1.94-1.34,2.91-2,.3-.2.61-.38.93-.55s.65-.3,1-.43c.12,0,.24-.07.36-.09a12.71,12.71,0,0,1,1.51-.19A39.07,39.07,0,0,1,274.3,177.39ZM262.48,175a1.12,1.12,0,0,0,.53.18c.33.36.68.71,1,1.08l.13.16s0,0,0,0a1.47,1.47,0,0,0,.1.13l-1.58,1.13a29.3,29.3,0,0,1-2.76,1.62,44.33,44.33,0,0,1-4.78,2.13c-1.23.41-2.47.77-3.67,1.23s-2.41,1-3.64,1.46c-.48.15-1,.28-1.46.39s-1.09.19-1.63.26a1.39,1.39,0,0,0-1.13,0,4.21,4.21,0,0,0-.48.12,2.84,2.84,0,0,0-1.15.67,4.47,4.47,0,0,0-.74,1h0l-.2-.12a8.16,8.16,0,0,1-.66-.5l-.11-.11-.08-.1c-.22-.35-.43-.72-.62-1.09,0-.09-.08-.17-.11-.26-.1-.35-.17-.7-.26-1s-.25-.91-.35-1.37-.1-.71-.13-1.07c-.07-1.06,0-2.12,0-3.17s0-2.28.07-3.42A12.52,12.52,0,0,1,239,173a18.67,18.67,0,0,1,.51-1.81h0l.3.05a5.92,5.92,0,0,0,1.25.2,1.39,1.39,0,0,0,.94-.37c.12,0,.23.08.36.1a4.21,4.21,0,0,0,.62,0c.52,0,1-.07,1.56-.12a31.87,31.87,0,0,0,3.65-.58c1.35-.3,2.68-.69,4-1l-.18,0,.24-.05a1.26,1.26,0,0,0,.42.12l.38.11a26.18,26.18,0,0,1,2.54,1.13A67.55,67.55,0,0,1,262.48,175Zm-5.89-79.2a16.48,16.48,0,0,1,.77,1.78c.29.89.52,1.81.79,2.71s.62,1.93,1,2.88l0-.06c.42,1.21.93,2.38,1.36,3.59a23.78,23.78,0,0,1,.76,2.87c.14.73.23,1.47.3,2.2,0,.29,0,.58,0,.87.06,1.32.1,2.63.16,3.95s.05,2.75.05,4.12c0,2.78,0,5.57-.15,8.35a51.14,51.14,0,0,1-.89,6.39c-.23,1.12-.55,2.22-.86,3.33s-.53,2-.8,2.93c-.53,2-1.08,4-1.74,5.93-.28.77-.58,1.53-.93,2.27a22.29,22.29,0,0,1-1.23,2.11c-.43.61-.87,1.2-1.35,1.77s-.88.94-1.36,1.38a21.14,21.14,0,0,1-1.71,1.28l0,0,0,0-.08.06.07-.05c-.54.35-1.08.69-1.65,1s-1.1.57-1.63.89c-1.11.64-2.16,1.37-3.29,2-.28.13-.55.25-.84.36s-.67.19-1,.26a6.5,6.5,0,0,1-.77.12h-.31l-.25,0-.11,0h0v0a2.55,2.55,0,0,1-.14-.24c0-.08-.07-.17-.11-.27-.1-.33-.18-.66-.26-1-.13-.71-.19-1.43-.27-2.14s-.15-1.49-.2-2.24c-.07-1.05-.06-2.09-.06-3.13v-3.42c0-5.72,0-11.44,0-17.15,0-2.92,0-5.83.16-8.74.06-1.41.11-2.82.11-4.24s0-2.81,0-4.22c0-2.6.19-5.19.28-7.78,1,0,2,0,3,0,1.27,0,2.51-.22,3.77-.33.61-.06,1.24-.08,1.85-.2s1.15-.26,1.72-.39c.21,0,.41-.07.62-.09.43,0,.86,0,1.29,0a20.75,20.75,0,0,1,2.08.27c.31.07.61.14.92.24a5.32,5.32,0,0,1,.5.21l.27.16.19.15a1.88,1.88,0,0,1,.24.25c.1.11.19.23.28.35a1.42,1.42,0,0,0,1.26.79,1.44,1.44,0,0,0,1.42-1.42,2.21,2.21,0,0,0-.65-1.37,5.45,5.45,0,0,0-1.27-1.17,8.37,8.37,0,0,0-3.28-1.09,21.84,21.84,0,0,0-3-.24,12.52,12.52,0,0,0-2.79.47,23.45,23.45,0,0,1-2.35.26c-.71.07-1.42.18-2.14.24s-1.61,0-2.41,0h-1.36c.1-2.11.21-4.23.26-6.35.08-2.89.09-5.79.12-8.68,0-2.17,0-4.35,0-6.52.64.08,1.28.14,1.91.26.26.06.51.13.76.21.51.2,1,.44,1.49.68a16.5,16.5,0,0,1,1.63,1c.31.22.62.45.91.7a35,35,0,0,1,2.87,3c.94,1.09,1.84,2.23,2.77,3.34s1.77,2,2.53,3.12A15.34,15.34,0,0,1,256.59,95.81Zm79,110.81c0,2.54-.18,5.08-.26,7.63s-.15,4.86-.23,7.28c-.16,5-.18,10-.19,14.95,0,2.47,0,4.94-.07,7.41s-.12,5-.15,7.44-.09,4.95-.18,7.43c-.1,2.31-.18,4.64-.33,6.95v0c0,.1,0,.19,0,.28s0,.2,0,.3a.41.41,0,0,1,0,.11.45.45,0,0,1,0,.11c-.2,3-.44,5.94-.6,8.91-.14,2.6-.18,5.21-.32,7.8h0a1.41,1.41,0,0,0-2.5-.2c-.22.13-.44.26-.67.38-.41.19-.84.35-1.26.54s-.82.41-1.23.62a22.6,22.6,0,0,1-2.67,1l.17-.06c-.57.2-1.14.39-1.71.6s-1.09.43-1.65.63c-1.5.5-3,.91-4.57,1.33s-3.32,1-5,1.36l-1.9.36c-2.87.55-5.77,1-8.66,1.39l-4.34.62c-1.38.19-2.77.32-4.17.41l-1.58.11h.19l-.6,0h-.15c-2.32.16-4.62.52-6.94.75-1.23.12-2.45.23-3.68.39s-2.33.31-3.51.41-2.54.06-3.81.06H269c-2.59,0-5.17,0-7.75-.18h-.06l-.46,0h0c-1.3-.1-2.59-.21-3.88-.34-2.78-.29-5.57-.61-8.34-1s-5.75-.7-8.58-1.24c-1-.22-1.91-.48-2.85-.78-.35-.13-.69-.25-1-.41a1.36,1.36,0,0,0-.56-.39l-.06-4.35c0-2.38-.18-4.75-.3-7.13s-.22-4.84-.38-7.26h0a.76.76,0,0,0,0,.15c0-.22,0-.46-.05-.68s0-.17,0-.25a1.21,1.21,0,0,0,0,.19c0-.71-.09-1.43-.13-2.14-.13-2.41-.15-4.83-.23-7.24s-.15-4.85-.29-7.27q-.41-7.38-.89-14.75v.08c-.15-2.4-.29-4.79-.44-7.18s-.32-4.63-.44-6.95c-.13-2.49-.23-5-.36-7.48-.11-2.29-.26-4.58-.42-6.88v0c-.18-2.72-.3-5.44-.43-8.17s-.37-5.45-.55-8.18c-.08-1.28-.15-2.55-.22-3.83,0-.6-.07-1.2-.11-1.8,0-.06,0-.11,0-.17v-.06a1.09,1.09,0,0,0,0-.18v0a3.16,3.16,0,0,0,0-.32v-.13c0-.06,0-.12,0-.17,0-.53-.08-1-.11-1.57q-.51-7.08-1-14.15v0c-.18-2.78-.27-5.57-.41-8.35s-.35-5.41-.45-8.12c-.09-2.45-.13-4.89-.24-7.33s-.17-4.87-.25-7.3-.16-4.91-.23-7.37-.19-4.93-.22-7.4,0-4.8,0-7.21V104.51h.57l1.28,0q1.21,0,2.4-.09a12.82,12.82,0,0,0,2.62-.36,6.36,6.36,0,0,0,1.11-.39l.63-.3c.13.28.26.55.41.82a4.73,4.73,0,0,0,1.31,1.63c-.06,1.59-.12,3.18-.19,4.77-.13,2.81-.15,5.62-.15,8.43,0,1.42-.08,2.82-.14,4.23s-.08,2.89-.1,4.33c0,2.93,0,5.86,0,8.78v12.84c0,1.43,0,2.86,0,4.29s.12,2.73.27,4.09c.06.61.12,1.22.21,1.83a8.88,8.88,0,0,0,.56,2.27l0,.05a1.55,1.55,0,0,0-.14.6,20.56,20.56,0,0,0,.23,3.33,9.08,9.08,0,0,0,.61,2.15c.09.19.2.35.3.53a2,2,0,0,0-1.62.74,4.5,4.5,0,0,0-.65,1.34,14.51,14.51,0,0,0-.8,3.85c-.08,1.21-.08,2.42-.08,3.63s-.05,2.42.06,3.62a26.71,26.71,0,0,0,.71,3.31,6.69,6.69,0,0,0,.76,1.81,5.84,5.84,0,0,0,1.18,1.56,8.26,8.26,0,0,0,1,.75,4.8,4.8,0,0,0-.16,1.31c0,.43,0,.87,0,1.3,0,1,0,1.93-.08,2.91-.06,1.45-.13,2.9-.17,4.35s-.07,3.06-.09,4.6,0,2.85,0,4.28a37.86,37.86,0,0,0,.16,4.52,1.21,1.21,0,0,0,.13.42,1.18,1.18,0,0,0,0,.27,1.43,1.43,0,0,0,1.41,1.41h-.18l-.15,0-.14-.05.12.05h0c.49.18,1,.39,1.47.59a1.41,1.41,0,0,0,1,.46h.89c.82.09,1.62.25,2.43.41l1.13.24c-.75-.06-1.51-.11-2.27-.15a14.63,14.63,0,0,0-4.07.23,8.93,8.93,0,0,0-1.92.73,10.14,10.14,0,0,0-1.8,1.11,1.44,1.44,0,0,0-.25,2,1.39,1.39,0,0,0,.59.43c0,.22,0,.43,0,.64-.11,2.58-.06,5.16-.06,7.74v4.15c0,1.42,0,2.85,0,4.27s.14,2.75.19,4.12.15,2.75.19,4.12.07,2.52.1,3.77c0,.43,0,.85,0,1.27,0,.66.08,1.31.13,2s0,1.53.08,2.29c0,.4,0,.79.07,1.18a8.12,8.12,0,0,0,.07.85,1.43,1.43,0,0,0,1.4,1.22h.19a1.42,1.42,0,0,0,1.21-1.59c0-.06,0-.11,0-.17,0-.75-.1-1.5-.11-2.25,0-1-.09-2-.16-2.93s-.05-1.94-.08-2.91c0-1.26-.05-2.52-.11-3.77,0-.66-.08-1.33-.11-2s-.05-1.27-.08-1.91c-.07-1.35-.15-2.7-.15-4.05V228c0-2.58-.05-5.16.11-7.74v0c0-.15,0-.31,0-.46a1.42,1.42,0,0,0,.29-.7l.45-.2.64-.17c.31-.06.62-.1.92-.13a29.81,29.81,0,0,1,3.41.1h-.05c.82.05,1.65.11,2.47.19s1.9.23,2.85.34a26,26,0,0,0,2.78.22c.88,0,1.76,0,2.63.09,1.1.09,2.19.29,3.29.41s2,.17,3.06.37a16.61,16.61,0,0,1,1.68.44c.36.12.73.23,1.11.32l.54.15c.23.28.45.56.66.86a3.9,3.9,0,0,1,.19.35,1.11,1.11,0,0,1,.07.16c.09.3.16.61.22.92a12.24,12.24,0,0,1,.18,1.6l.09,1.23c0,.15,0,.31,0,.47v.07c0,.38.05.75.08,1.13l.15,2c.07,1.12.1,2.24.1,3.37,0,2.73,0,5.46.07,8.19l.06,1a1.64,1.64,0,0,0,0,.22c.09,1,.22,2.06.41,3.08a33.48,33.48,0,0,1,.58,4c0,.42,0,.83,0,1.25a10.72,10.72,0,0,1-.17,1.25c-.14.64-.32,1.26-.52,1.88a32.86,32.86,0,0,1-1.56,3.6l-.07.15.06-.12a20.42,20.42,0,0,1-1.24,2.11l-1.55,2.29a6.61,6.61,0,0,1-.44.6h0a1.42,1.42,0,0,0,.47,2.75,2.45,2.45,0,0,0,1.88-1.15c.49-.64.91-1.33,1.35-2s.83-1.16,1.19-1.77.76-1.32,1.09-2a34.48,34.48,0,0,0,1.66-4,12.74,12.74,0,0,0,.71-4.15,25.49,25.49,0,0,0-.48-4.26c-.13-.67-.26-1.34-.37-2-.05-.36-.1-.72-.13-1.08s0-.52-.06-.78l0-.25c-.13-2.48-.09-4.95-.1-7.43,0-1.17,0-2.35,0-3.53s-.15-2.42-.24-3.63h0l-.06-.91a1.77,1.77,0,0,0,0-.23l-.06-.77v0a19.07,19.07,0,0,0-.46-3.53c.29.06.59.11.88.15.52.05,1.05.05,1.57.05H273c1.25,0,2.51,0,3.77.07a9.08,9.08,0,0,1,1.15.16c.54.11,1.07.23,1.59.39s.89.3,1.34.45l.09,0h0l1,.38c.42.17.86.31,1.28.49,1,.41,1.88.87,2.81,1.33,1.47.75,2.94,1.52,4.4,2.29s3.09,1.59,4.54,2.54c.46.33.91.67,1.33,1l.21.21.13.18a2,2,0,0,1,.12.19,3.56,3.56,0,0,1,.17.41,18.25,18.25,0,0,1,.46,1.8,31.17,31.17,0,0,1,.56,3.84c0,.75,0,1.5,0,2.24s0,1.65,0,2.48c0,1.58,0,3.16-.13,4.74v-.05c-.14,2.06-.29,4.13-.48,6.19-.14,1.47-.29,2.94-.43,4.4s-.41,3-.62,4.47-.31,2.8-.49,4.19-.37,2.81-.64,4.2c-.27,1.22-.57,2.44-.76,3.68-.1.61-.23,1.23-.3,1.84a1.59,1.59,0,0,0-.64.42c-.54.58-1,1.23-1.49,1.83l-.33.32c-.9.77-1.9,1.43-2.87,2.11s-2,1.51-3,2.22q-.42.28-.87.54c-.48.23-1,.45-1.47.64l-.81.31,0,0h0l-.1,0c-.3.09-.6.18-.9.25-.59.1-1.18.15-1.77.21s-1.24.13-1.85.17-1,.06-1.45.07c-2.58.06-5.16,0-7.74,0l-4,0c-1.35,0-2.7,0-4-.1-.74-.06-1.48-.13-2.21-.23a23.86,23.86,0,0,0-2.38-.32,7.39,7.39,0,0,0-1.24.09c-.44.05-.89.12-1.33.2-.7.13-1.38.34-2.06.5l-.57.12h-.06c-.2.05-.41.09-.61.12-.59.09-1.18.15-1.77.22s-1.24.13-1.87.17l-1.9.19c-.74,0-1.48,0-2.23,0s-1.54,0-2.32-.06c-.3,0-.6-.06-.9-.11-.15,0-.3-.07-.44-.12a3,3,0,0,1-.45-.19l-.26-.14a1.41,1.41,0,0,0-2.5,1.08c.11.9,1.07,1.43,1.82,1.75a9.91,9.91,0,0,0,3.58.6c.7,0,1.39,0,2.09,0s1.24,0,1.86-.06,1.36-.14,2-.19,1.24-.1,1.86-.17,1.19-.13,1.77-.23,1-.18,1.45-.28,1.15-.31,1.74-.44a19.27,19.27,0,0,1,2-.29h.3c.58.05,1.15.18,1.72.26s1.22.16,1.83.21c1.36.12,2.73.16,4.1.17,2.66,0,5.32,0,8,.09a61.26,61.26,0,0,0,7.67-.18c.64-.07,1.28-.12,1.92-.21a7.11,7.11,0,0,0,1.12-.2,6.89,6.89,0,0,0,1-.32l.24-.08c.61-.23,1.22-.47,1.81-.73a11.6,11.6,0,0,0,1.94-1.11c.59-.41,1.15-.87,1.72-1.31s1-.71,1.47-1.06,1-.68,1.47-1a12.56,12.56,0,0,0,1.66-1.33c.58-.59,1-1.28,1.57-1.91l.25-.28a1.43,1.43,0,0,0,1.25-1.4v-.19c.05-.54.16-1.07.25-1.61s.19-1.2.31-1.8.24-1,.36-1.58a85.4,85.4,0,0,0,1.22-8.55c.18-1.46.47-2.89.62-4.35s.29-3,.44-4.48.24-2.88.35-4.32.24-2.92.29-4.38.05-2.68.06-4,0-2.75,0-4.11c0-.7-.14-1.39-.24-2.08s-.18-1.22-.3-1.82-.3-1.38-.49-2.07l-.12-.39a5.47,5.47,0,0,0-.31-.74,5,5,0,0,0-.75-1.09,9,9,0,0,0-1.4-1.2,16.06,16.06,0,0,0-1.61-1.07c-2.37-1.39-4.83-2.62-7.27-3.88l-.82-.4,1.82.08c1.44,0,2.88.11,4.32.18s2.67.08,4,.16,2.51.24,3.77.35,2.58.19,3.88.25,2.46.16,3.69.17h0a7.42,7.42,0,0,0,4-1.15,12.19,12.19,0,0,0,2.92-3c.34-.43.69-.88,1-1.33a5.57,5.57,0,0,0,1,1,6.12,6.12,0,0,0,1.4.91,4.37,4.37,0,0,0,1.84.41,3.51,3.51,0,0,0,1.35-.25,3.68,3.68,0,0,0,1.79-2.18,19.94,19.94,0,0,0,1-4.3c.23-1.41.39-2.81.54-4.22s.32-2.95.52-4.42c.1-.72.2-1.44.26-2.17a19.46,19.46,0,0,0,0-2.16,42.78,42.78,0,0,0-.31-4.38,7.78,7.78,0,0,0-1.48-3.91,3.13,3.13,0,0,0-1.41-1.11,2.55,2.55,0,0,0-1.1-.09,15.21,15.21,0,0,0,2.22-3.42,13,13,0,0,0,1.66-4.15,26.58,26.58,0,0,0,.49-4.08c0-.63.06-1.27,0-1.91a12,12,0,0,0-.34-2.29,6.83,6.83,0,0,0-1.44-3l-.2-.25,0,0,.58-.23A8.75,8.75,0,0,0,327,172a7.12,7.12,0,0,0,2.33-3.5,21.46,21.46,0,0,0,1-4.19c.09-.7.15-1.4.2-2.1a10,10,0,0,0,0-2.12,13.88,13.88,0,0,0-.55-2.2c-.24-.72-.48-1.44-.79-2.14a30.39,30.39,0,0,0-1.8-3.67,9.64,9.64,0,0,0-2.74-3.11,9.53,9.53,0,0,0-4.13-1.08c-1.28-.16-2.56-.38-3.83-.63-1-.22-2-.48-3-.72a22.15,22.15,0,0,0-3.23-.51c-.72-.06-1.43-.11-2.15-.14a16.35,16.35,0,0,0-2,0,6.26,6.26,0,0,0-2.46.73,16.39,16.39,0,0,0-1.93,1.26c-1.08.81-2.08,1.72-3.13,2.57s-2.14,1.68-3.26,2.46c-.76.51-1.54,1-2.34,1.42a15.52,15.52,0,0,0-2.28,1.51,10.47,10.47,0,0,0-1.14,1.07,8.2,8.2,0,0,0-1,1.26,6.25,6.25,0,0,0-.64,1.42,3.84,3.84,0,0,0-.1,2.2,1.49,1.49,0,0,0,.79.91,6.93,6.93,0,0,0,.76.84c.53.52,1.09,1,1.61,1.55a18.06,18.06,0,0,0,1.54,1.49,14.63,14.63,0,0,0,1.95,1.38c.64.39,1.28.79,1.94,1.13s1.28.6,1.93.86a28.88,28.88,0,0,0,4,1.32c.68.15,1.38.25,2.07.36l2.17.35c1.42.22,2.84.33,4.27.43h-.19a22.21,22.21,0,0,1,2.93.41l-.18,0,1.15.23-.19,0c.86.18,1.69.43,2.54.62a12.83,12.83,0,0,0,2.62.3h1.85c.22,0,.44,0,.65-.07a1.38,1.38,0,0,0,.28,1c.13.17.27.33.42.5h0l-.09-.1a1.83,1.83,0,0,1,.13.16c.11.17.21.34.31.51a4.22,4.22,0,0,1,.18.45c.11.36.2.73.28,1.1s.12.65.15,1a22.63,22.63,0,0,1-.07,2.73,23.08,23.08,0,0,1-.32,2.5,15.94,15.94,0,0,1-.44,1.68c-.15.36-.3.72-.47,1.08-.54,1-1.1,2.07-1.72,3-.12.17-.24.34-.38.51s-.24.26-.37.38l-.28.22-.26.16-.12.05-.12,0-.22,0c-.24,0-.47,0-.72,0h-.08l-.21,0a6.65,6.65,0,0,0-.88-.88,7.31,7.31,0,0,0-1.72-1c-.61-.28-1.23-.54-1.85-.78a30.9,30.9,0,0,0-4-1.14c-1.27-.3-2.53-.61-3.77-1-.76-.28-1.52-.56-2.26-.88-1.28-.55-2.55-1.13-3.83-1.68s-2.77-1.17-4.16-1.75c-2.68-1.12-5.34-2.28-8.08-3.24h0l-.08,0h0c-.86-.3-1.73-.6-2.6-.88s-1.88-.58-2.81-.9l-.58-.2h-.05c-.13-.06-.27-.1-.41-.15-.85-.29-1.69-.6-2.55-.87-.71-.23-1.43-.42-2.16-.6a3,3,0,0,0-.32-.06,1.4,1.4,0,0,0-.24-.47l-.14-.19h0a7,7,0,0,1-.52-.7,14.52,14.52,0,0,1-.83-1.36,23.52,23.52,0,0,1-1-2.36c0-.13-.08-.26-.11-.39s-.08-.49-.14-.74-.11-.46-.16-.69a6.79,6.79,0,0,1-.12-.89V167a1.45,1.45,0,0,0-1.42-1.42A1.43,1.43,0,0,0,270,167c0,.41.06.82.13,1.23s.18.77.26,1.16a8.62,8.62,0,0,0,.21,1c.15.5.36,1,.56,1.46s.46,1.11.74,1.64c.19.37.41.72.63,1.07h-.6c-.67,0-1.33,0-2,.08a13.74,13.74,0,0,0-1.93.23,7,7,0,0,0-1.27.41,1.42,1.42,0,0,0-.07-.22,5,5,0,0,0-.88-1.07l-.46-.48a1.43,1.43,0,0,0-1.42-1.4,3.86,3.86,0,0,0-.6,0c-1.6-1-3.22-2-4.88-3-.58-.33-1.18-.63-1.77-.93a31,31,0,0,0,6.37-3.88,21.57,21.57,0,0,0,3-2.84,17.16,17.16,0,0,0,2.41-3.38,26.54,26.54,0,0,0,1.62-3.71,35.92,35.92,0,0,0,1.05-3.68c.29-1.29.49-2.61.71-3.91a30.88,30.88,0,0,0,.43-4.28c.08-2.77,0-5.54-.05-8.31,0-1.36,0-2.72-.06-4.08s-.13-2.69-.23-4l0-.57c0-.74-.05-1.48-.05-2.22l.64,1c.71,1.11,1.32,2.28,1.93,3.45.31.57.63,1.15,1,1.69s.75,1,1.13,1.56c.8,1,1.6,2.06,2.34,3.13a9.66,9.66,0,0,0,1.21,1.42,7.92,7.92,0,0,0,1.58,1.31,3.78,3.78,0,0,0,1.16.43,5,5,0,0,0,.87.07h.1l2,0c2.82,0,5.64-.14,8.46-.1s5.68.05,8.52,0a31.09,31.09,0,0,0,8.22-.79,10.87,10.87,0,0,0,1.9-.71,9.6,9.6,0,0,0,1.95-1.33c.58-.51,1.13-1.06,1.66-1.6a13.59,13.59,0,0,0,1.29-1.55,27.68,27.68,0,0,0,3.36-7.43c.87-2.58,1.74-5.16,2.59-7.74.42-1.29.86-2.58,1.24-3.88a1.42,1.42,0,0,0,1.22.71h2.05a17.08,17.08,0,0,0,1.75-.08,16.45,16.45,0,0,0,1.68-.3,1.42,1.42,0,0,0,1-1.74,1.44,1.44,0,0,0-1.74-1l-.18,0a13.45,13.45,0,0,1-1.55.22c-1,0-2,0-3,0a1.29,1.29,0,0,0-.67.18,13.49,13.49,0,0,0,.43-2.5c0-.69,0-1.38,0-2.06s0-1.44-.06-2.16a22.57,22.57,0,0,0-.54-4.18c-.18-.8-.4-1.59-.64-2.38a1.43,1.43,0,0,0,.85.29,3.3,3.3,0,0,0,1-.21c.31-.1.61-.2.93-.27l.2,0h.17c.3,0,.6.09.9.15l.92.14.34.1a6.29,6.29,0,0,0,2.15.57,3.42,3.42,0,0,0,.45,0,1.56,1.56,0,0,0,.77-.38c0,1.93.06,3.85.1,5.78.06,2.58.12,5.17.16,7.75,0,2.41,0,4.83.08,7.24.13,5,.4,10,.6,15,.1,2.48.2,5,.28,7.45.08,2.32.11,4.64.19,6.95.16,4.93.53,9.85.62,14.77s.15,9.79.17,14.68,0,9.88,0,14.82v7.66C335.56,201.82,335.58,204.22,335.54,206.62ZM319,171a8.81,8.81,0,0,1-.88-.11c-.5-.12-1-.24-1.5-.38-.75-.2-1.51-.34-2.27-.49l.19,0c-.71-.15-1.43-.3-2.15-.38s-1.5-.13-2.26-.18q-1.73-.14-3.42-.42c-1.16-.19-2.33-.35-3.48-.58a19.54,19.54,0,0,1-1.95-.55l.08,0-.08,0-.1,0,.09,0a31.11,31.11,0,0,1-3.23-1.3,28.36,28.36,0,0,1-2.61-1.54,11.7,11.7,0,0,1-1-.75c-.55-.5-1.05-1-1.57-1.57s-1.11-1-1.62-1.55l-.22-.29a1.5,1.5,0,0,0-.24-.51c0-.07,0-.15.07-.23l.13-.31.14-.25a8.11,8.11,0,0,1,.51-.65c.28-.29.56-.57.86-.84s.54-.43.82-.63c.9-.59,1.85-1.07,2.76-1.63s1.94-1.33,2.88-2,1.78-1.39,2.65-2.11,1.72-1.45,2.64-2.1c.31-.2.62-.39.94-.57l.54-.23.31-.09.55-.07c.94,0,1.89,0,2.83.08h.07c1,.08,1.89.19,2.83.36s1.66.4,2.49.59,1.78.39,2.69.55c.73.13,1.46.26,2.2.36s1.47.16,2.2.29l.64.16.38.16.2.12.22.17.57.57c.2.24.4.5.58.76a19.44,19.44,0,0,1,1,1.77,33.6,33.6,0,0,1,1.5,3.43s0-.08,0-.12l0,.13,0,.05V158c.23.69.45,1.38.61,2.08,0,.18.05.35.07.53,0,.45,0,.89,0,1.34a29,29,0,0,1-.41,3.34c-.14.62-.31,1.23-.5,1.84a12.6,12.6,0,0,1-.54,1.32c-.1.2-.22.39-.34.58l-.19.25-.19.2-.19.15-.4.22a23,23,0,0,1-2.24.93l-.41.12a3.86,3.86,0,0,1-.49.06A23.27,23.27,0,0,1,319,171Z"/><path d="M334.07,266.52v0h0Z"/><path d="M300.84,93.5a11.07,11.07,0,0,1-1.29-.15,2,2,0,0,1-.33-.09A7.46,7.46,0,0,0,298,92.8a4.9,4.9,0,0,0-1.79,0c-1,.16-1.93.46-2.9.68-.34.06-.67.11-1,.14a14.64,14.64,0,0,0-2,.23c-.56.11-1.11.23-1.68.29h-.29l-.26,0-.18,0-.14-.06-.19-.12c-.3-.2-.59-.42-.9-.59a7.38,7.38,0,0,0-1.17-.48c-.53-.15-1.07-.29-1.59-.47l-.48-.2-.36-.21q-.37-.27-.72-.57a3.91,3.91,0,0,0-.78-.59,4.5,4.5,0,0,0-1.38-.42,1.42,1.42,0,0,0-.39,2.81l.27,0,.07,0h0l0,0c.33.26.62.54,1,.79a6.24,6.24,0,0,0,1.39.81c.76.31,1.56.5,2.35.75l.33.13.27.17a5.56,5.56,0,0,0,1.79.93,5.34,5.34,0,0,0,1.87.1c1-.13,1.93-.38,2.92-.47h0a13.86,13.86,0,0,0,2.3-.33c.66-.16,1.31-.33,2-.48.21,0,.42-.08.64-.1h.2l.16,0h.06l.56.26a6.1,6.1,0,0,0,1,.29,13.79,13.79,0,0,0,1.8.21,22.09,22.09,0,0,0,3-.13,14,14,0,0,1,1.45,0l.18,0,.25.07a14.74,14.74,0,0,0,2.56.84,25.13,25.13,0,0,0,2.74.25c.47,0,.93.11,1.4.11h.07a1.42,1.42,0,1,0,0-2.84h-.28l-2.12-.16h.19a13.87,13.87,0,0,1-1.58-.17c-.26-.06-.5-.13-.75-.21s-.73-.29-1.09-.43a4.77,4.77,0,0,0-1.82-.33c-1,0-1.94.11-2.9.19h0A10,10,0,0,1,300.84,93.5Z"/><path d="M292.2,96.45h0Z"/><path d="M298.11,115.65c.59,0,1.17-.1,1.76-.14,1-.05,2,0,2.95,0a1.42,1.42,0,0,0,0-2.84c-.83,0-1.66,0-2.48,0s-1.4.1-2.1.15c-.38,0-.76,0-1.13,0a1.45,1.45,0,0,0-1.18.63,5.32,5.32,0,0,0-1.72-1.12c-.6-.25-1.23-.44-1.85-.65-.37-.13-.75-.27-1.12-.42a1.44,1.44,0,0,0-1.79.62,3.23,3.23,0,0,0-1.33.64,7.48,7.48,0,0,0-.83.76,9.35,9.35,0,0,0-1.65,2.56,4.45,4.45,0,0,0,.29,4.65,7,7,0,0,0,3.4,2.22,7.93,7.93,0,0,0,2.21.42h.13a6.83,6.83,0,0,0,2-.28,5.66,5.66,0,0,0,2.46-1.51,5.74,5.74,0,0,0,1.17-2.19,5.31,5.31,0,0,0,.1-3.18c0-.11-.09-.21-.12-.31h.87Zm-4.34,4a.18.18,0,0,1-.07,0l.06,0,0,0,0,0,0,0,0,0h0Zm.92-1.83c-.05.19-.1.38-.16.57a5.48,5.48,0,0,1-.23.56,2.69,2.69,0,0,1-.16.29,1.56,1.56,0,0,1-.16.2,1.21,1.21,0,0,1-.16.16l-.15.11a5.06,5.06,0,0,1-.44.26l-.36.15-.41.11-.43.06h-.42c-.23,0-.45-.06-.68-.09l-.83-.23c-.26-.1-.51-.2-.75-.31l-.51-.29-.34-.27-.24-.24-.16-.21-.06-.1,0-.1,0-.1s0-.11,0-.16V118a2.51,2.51,0,0,1,0-.27c0-.17.09-.33.14-.49s.16-.4.25-.6.31-.56.48-.83.27-.35.41-.52l.36-.37.25-.19.12-.07h.48a1.42,1.42,0,0,0,.91-.34l1.23.42c.23.08.46.18.68.28l.35.2.19.14.18.19a2.92,2.92,0,0,1,.21.28,3.54,3.54,0,0,1,.19.33c.05.12.11.25.15.38s.08.27.12.41,0,.21,0,.31v.2C294.72,117.58,294.71,117.7,294.69,117.82Z"/><path d="M275.8,174.31h0l0,0a1,1,0,0,1,.09.13Z"/><path d="M293.47,277h0l0,0Z"/><path d="M290.79,292.35h0Z"/></g></svg>